Basic-Regular.ufo
<glyph name="exclam" format="1">
  <advance width="492"/>
  <unicode hex="0021"/>
  <outline>
    <contour>
      <point x="98" y="138" type="curve" smooth="yes"/>
      <point x="98" y="61"/>
      <point x="164" y="-1"/>
      <point x="246" y="-1" type="curve" smooth="yes"/>
      <point x="328" y="-1"/>
      <point x="394" y="61"/>
      <point x="394" y="138" type="curve" smooth="yes"/>
      <point x="394" y="214"/>
      <point x="328" y="275"/>
      <point x="246" y="275" type="curve" smooth="yes"/>
      <point x="164" y="275"/>
      <point x="98" y="214"/>
    </contour>
    <contour>
      <point x="177" y="410" type="curve"/>
      <point x="195" y="403"/>
      <point x="227" y="397"/>
      <point x="249" y="397" type="curve" smooth="yes"/>
      <point x="293" y="397"/>
      <point x="311" y="405"/>
      <point x="319" y="409" type="curve"/>
      <point x="319" y="409"/>
      <point x="363" y="962"/>
      <point x="363" y="1388" type="curve" smooth="yes"/>
      <point x="363" y="1388"/>
      <point x="304" y="1397"/>
      <point x="243" y="1397" type="curve" smooth="yes"/>
      <point x="186" y="1397"/>
      <point x="128" y="1388"/>
      <point x="128" y="1388" type="curve"/>
      <point x="128" y="992"/>
      <point x="177" y="410"/>
    </contour>
  </outline>
</glyph>
<glyph name="numbersign" format="1">
  <advance width="1364"/>
  <unicode hex="0023"/>
  <outline>
    <contour>
      <point x="723" y="8" type="line"/>
      <point x="763" y="-9"/>
      <point x="796" y="-14"/>
      <point x="821" y="-14" type="curve" smooth="yes"/>
      <point x="860" y="-14"/>
      <point x="901" y="0"/>
      <point x="901" y="0" type="curve"/>
      <point x="932" y="350" type="line"/>
      <point x="1159" y="350" type="line"/>
      <point x="1172" y="378"/>
      <point x="1178" y="392"/>
      <point x="1178" y="412" type="curve" smooth="yes"/>
      <point x="1178" y="451"/>
      <point x="1163" y="494"/>
      <point x="1163" y="494" type="curve"/>
      <point x="946" y="494" type="line"/>
      <point x="975" y="850" type="line"/>
      <point x="1210" y="850" type="line"/>
      <point x="1223" y="878"/>
      <point x="1228" y="898"/>
      <point x="1228" y="919" type="curve" smooth="yes"/>
      <point x="1228" y="958"/>
      <point x="1214" y="1001"/>
      <point x="1214" y="1001" type="curve"/>
      <point x="989" y="1001" type="line"/>
      <point x="1020" y="1346" type="line"/>
      <point x="989" y="1365"/>
      <point x="956" y="1370"/>
      <point x="930" y="1370" type="curve" smooth="yes"/>
      <point x="889" y="1370"/>
      <point x="842" y="1355"/>
      <point x="842" y="1355" type="curve"/>
      <point x="811" y="1001" type="line"/>
      <point x="575" y="1001" type="line"/>
      <point x="608" y="1346" type="line"/>
      <point x="577" y="1365"/>
      <point x="545" y="1370"/>
      <point x="518" y="1370" type="curve" smooth="yes"/>
      <point x="478" y="1370"/>
      <point x="431" y="1355"/>
      <point x="431" y="1355" type="curve"/>
      <point x="397" y="1001" type="line"/>
      <point x="182" y="1001" type="line"/>
      <point x="172" y="966"/>
      <point x="168" y="939"/>
      <point x="168" y="920" type="curve" smooth="yes"/>
      <point x="168" y="883"/>
      <point x="180" y="851"/>
      <point x="180" y="851" type="curve"/>
      <point x="382" y="851" type="line"/>
      <point x="350" y="494" type="line"/>
      <point x="131" y="494" type="line"/>
      <point x="122" y="460"/>
      <point x="118" y="433"/>
      <point x="118" y="413" type="curve" smooth="yes"/>
      <point x="118" y="376"/>
      <point x="129" y="351"/>
      <point x="129" y="351" type="curve"/>
      <point x="335" y="351" type="line"/>
      <point x="302" y="8" type="line"/>
      <point x="342" y="-9"/>
      <point x="375" y="-14"/>
      <point x="399" y="-14" type="curve" smooth="yes"/>
      <point x="439" y="-14"/>
      <point x="479" y="0"/>
      <point x="479" y="0" type="curve"/>
      <point x="512" y="351" type="line"/>
      <point x="753" y="350" type="line"/>
    </contour>
    <contour>
      <point x="560" y="851" type="line"/>
      <point x="797" y="850" type="line"/>
      <point x="767" y="494" type="line"/>
      <point x="527" y="494" type="line"/>
    </contour>
  </outline>
</glyph>
<glyph name="dollar" format="1">
  <advance width="1078"/>
  <unicode hex="0024"/>
  <outline>
    <contour>
      <point x="133" y="49" type="curve"/>
      <point x="133" y="49"/>
      <point x="266" y="-22"/>
      <point x="475" y="-26" type="curve"/>
      <point x="475" y="-202" type="line"/>
      <point x="514" y="-216"/>
      <point x="547" y="-219"/>
      <point x="573" y="-219" type="curve" smooth="yes"/>
      <point x="614" y="-219"/>
      <point x="659" y="-206"/>
      <point x="659" y="-206" type="curve"/>
      <point x="659" y="-14" type="line"/>
      <point x="894" y="25"/>
      <point x="980" y="158"/>
      <point x="980" y="389" type="curve" smooth="yes"/>
      <point x="980" y="595"/>
      <point x="885" y="695"/>
      <point x="591" y="773" type="curve" smooth="yes"/>
      <point x="390" y="826"/>
      <point x="327" y="864"/>
      <point x="327" y="1010" type="curve" smooth="yes"/>
      <point x="327" y="1141"/>
      <point x="419" y="1204"/>
      <point x="589" y="1204" type="curve" smooth="yes"/>
      <point x="774" y="1204"/>
      <point x="848" y="1131"/>
      <point x="848" y="1131" type="curve"/>
      <point x="914" y="1227"/>
      <point x="921" y="1302"/>
      <point x="921" y="1302" type="curve"/>
      <point x="921" y="1302"/>
      <point x="848" y="1363"/>
      <point x="678" y="1380" type="curve"/>
      <point x="678" y="1551" type="line"/>
      <point x="643" y="1567"/>
      <point x="613" y="1572"/>
      <point x="587" y="1572" type="curve" smooth="yes"/>
      <point x="541" y="1572"/>
      <point x="494" y="1555"/>
      <point x="494" y="1555" type="curve"/>
      <point x="494" y="1379" type="line"/>
      <point x="255" y="1353"/>
      <point x="120" y="1227"/>
      <point x="120" y="973" type="curve" smooth="yes"/>
      <point x="120" y="793"/>
      <point x="212" y="667"/>
      <point x="519" y="588" type="curve" smooth="yes"/>
      <point x="701" y="541"/>
      <point x="767" y="497"/>
      <point x="767" y="356" type="curve" smooth="yes"/>
      <point x="767" y="231"/>
      <point x="687" y="167"/>
      <point x="483" y="167" type="curve" smooth="yes"/>
      <point x="337" y="167"/>
      <point x="179" y="231"/>
      <point x="179" y="231" type="curve"/>
      <point x="136" y="127"/>
      <point x="133" y="49"/>
    </contour>
  </outline>
</glyph>
<glyph name="percent" format="1">
  <advance width="1787"/>
  <unicode hex="0025"/>
  <outline>
    <contour>
      <point x="423" y="66" type="line"/>
      <point x="479" y="-2"/>
      <point x="576" y="-21"/>
      <point x="576" y="-21" type="curve"/>
      <point x="1354" y="1298" type="line"/>
      <point x="1315" y="1364"/>
      <point x="1204" y="1385"/>
      <point x="1204" y="1385" type="curve"/>
    </contour>
    <contour>
      <point x="454" y="604" type="curve" smooth="yes"/>
      <point x="640" y="604"/>
      <point x="774" y="773"/>
      <point x="774" y="1001" type="curve" smooth="yes"/>
      <point x="774" y="1232"/>
      <point x="646" y="1384"/>
      <point x="454" y="1384" type="curve" smooth="yes"/>
      <point x="269" y="1384"/>
      <point x="130" y="1224"/>
      <point x="130" y="994" type="curve" smooth="yes"/>
      <point x="130" y="764"/>
      <point x="263" y="604"/>
    </contour>
    <contour>
      <point x="454" y="744" type="curve" smooth="yes"/>
      <point x="349" y="744"/>
      <point x="299" y="871"/>
      <point x="299" y="994" type="curve" smooth="yes"/>
      <point x="299" y="1116"/>
      <point x="349" y="1243"/>
      <point x="454" y="1243" type="curve" smooth="yes"/>
      <point x="561" y="1243"/>
      <point x="604" y="1127"/>
      <point x="604" y="999" type="curve" smooth="yes"/>
      <point x="604" y="880"/>
      <point x="561" y="744"/>
    </contour>
    <contour>
      <point x="1013" y="371" type="curve" smooth="yes"/>
      <point x="1013" y="141"/>
      <point x="1146" y="-20"/>
      <point x="1337" y="-20" type="curve" smooth="yes"/>
      <point x="1523" y="-20"/>
      <point x="1657" y="149"/>
      <point x="1657" y="378" type="curve" smooth="yes"/>
      <point x="1657" y="609"/>
      <point x="1529" y="761"/>
      <point x="1337" y="761" type="curve" smooth="yes"/>
      <point x="1151" y="761"/>
      <point x="1013" y="601"/>
    </contour>
    <contour>
      <point x="1181" y="371" type="curve" smooth="yes"/>
      <point x="1181" y="493"/>
      <point x="1232" y="620"/>
      <point x="1337" y="620" type="curve" smooth="yes"/>
      <point x="1444" y="620"/>
      <point x="1486" y="504"/>
      <point x="1486" y="375" type="curve" smooth="yes"/>
      <point x="1486" y="257"/>
      <point x="1444" y="121"/>
      <point x="1337" y="121" type="curve" smooth="yes"/>
      <point x="1222" y="121"/>
      <point x="1181" y="248"/>
    </contour>
  </outline>
</glyph>
<glyph name="ampersand" format="1">
  <advance width="1291"/>
  <unicode hex="0026"/>
  <outline>
    <contour>
      <point x="752" y="602" type="curve"/>
      <point x="966" y="602" type="line"/>
      <point x="960" y="508"/>
      <point x="935" y="391"/>
      <point x="896" y="330" type="curve"/>
      <point x="483" y="627"/>
      <point x="435" y="821"/>
      <point x="435" y="953" type="curve" smooth="yes"/>
      <point x="435" y="1074"/>
      <point x="489" y="1138"/>
      <point x="597" y="1138" type="curve" smooth="yes"/>
      <point x="684" y="1138"/>
      <point x="750" y="1102"/>
      <point x="754" y="1034" type="curve"/>
      <point x="860" y="1036"/>
      <point x="956" y="1054"/>
      <point x="956" y="1054" type="curve"/>
      <point x="956" y="1234"/>
      <point x="814" y="1317"/>
      <point x="612" y="1317" type="curve" smooth="yes"/>
      <point x="409" y="1317"/>
      <point x="208" y="1208"/>
      <point x="208" y="945" type="curve" smooth="yes"/>
      <point x="208" y="881"/>
      <point x="224" y="791"/>
      <point x="282" y="682" type="curve"/>
      <point x="113" y="637"/>
      <point x="19" y="503"/>
      <point x="19" y="344" type="curve" smooth="yes"/>
      <point x="19" y="83"/>
      <point x="295" y="-39"/>
      <point x="498" y="-39" type="curve" smooth="yes"/>
      <point x="671" y="-39"/>
      <point x="807" y="7"/>
      <point x="909" y="86" type="curve"/>
      <point x="971" y="47"/>
      <point x="1037" y="7"/>
      <point x="1110" y="-33" type="curve"/>
      <point x="1135" y="-33" type="line"/>
      <point x="1203" y="16"/>
      <point x="1223" y="120"/>
      <point x="1223" y="120" type="curve"/>
      <point x="1156" y="159"/>
      <point x="1095" y="196"/>
      <point x="1039" y="233" type="curve"/>
      <point x="1095" y="325"/>
      <point x="1127" y="477"/>
      <point x="1138" y="602" type="curve"/>
      <point x="1225" y="602" type="line"/>
      <point x="1240" y="627"/>
      <point x="1259" y="730"/>
      <point x="1259" y="798" type="curve"/>
      <point x="760" y="798" type="line"/>
      <point x="751" y="768"/>
      <point x="743" y="724"/>
      <point x="743" y="702" type="curve" smooth="yes"/>
      <point x="743" y="682"/>
      <point x="743" y="635"/>
    </contour>
    <contour>
      <point x="525" y="140" type="curve" smooth="yes"/>
      <point x="380" y="140"/>
      <point x="246" y="230"/>
      <point x="246" y="372" type="curve" smooth="yes"/>
      <point x="246" y="462"/>
      <point x="282" y="539"/>
      <point x="342" y="586" type="curve"/>
      <point x="424" y="470"/>
      <point x="552" y="337"/>
      <point x="750" y="194" type="curve"/>
      <point x="681" y="157"/>
      <point x="603" y="140"/>
    </contour>
  </outline>
</glyph>
<glyph name="quotesingle" format="1">
  <advance width="398"/>
  <unicode hex="0027"/>
  <outline>
    <contour>
      <point x="197" y="1030" type="curve" smooth="yes"/>
      <point x="248" y="1030"/>
      <point x="278" y="1049"/>
      <point x="278" y="1049" type="curve"/>
      <point x="318" y="1602" type="line"/>
      <point x="318" y="1602"/>
      <point x="277" y="1634"/>
      <point x="199" y="1634" type="curve" smooth="yes"/>
      <point x="122" y="1634"/>
      <point x="80" y="1608"/>
      <point x="80" y="1608" type="curve"/>
      <point x="116" y="1057" type="line"/>
      <point x="116" y="1057"/>
      <point x="143" y="1030"/>
    </contour>
  </outline>
</glyph>
<glyph name="parenleft" format="1">
  <advance width="604"/>
  <unicode hex="0028"/>
  <outline>
    <contour>
      <point x="465" y="-281" type="curve"/>
      <point x="465" y="-281"/>
      <point x="567" y="-248"/>
      <point x="584" y="-186" type="curve"/>
      <point x="359" y="108"/>
      <point x="292" y="376"/>
      <point x="292" y="663" type="curve" smooth="yes"/>
      <point x="292" y="951"/>
      <point x="359" y="1178"/>
      <point x="584" y="1463" type="curve"/>
      <point x="567" y="1524"/>
      <point x="465" y="1557"/>
      <point x="465" y="1557" type="curve"/>
      <point x="195" y="1295"/>
      <point x="88" y="996"/>
      <point x="88" y="662" type="curve" smooth="yes"/>
      <point x="88" y="330"/>
      <point x="195" y="-19"/>
    </contour>
  </outline>
</glyph>
<glyph name="asterisk" format="1">
  <advance width="942"/>
  <unicode hex="002A"/>
  <outline>
    <contour>
      <point x="166" y="579" type="curve"/>
      <point x="166" y="579"/>
      <point x="308" y="635"/>
      <point x="432" y="747" type="curve"/>
      <point x="510" y="630"/>
      <point x="560" y="506"/>
      <point x="560" y="506" type="curve"/>
      <point x="580" y="498" type="line"/>
      <point x="644" y="494"/>
      <point x="689" y="541"/>
      <point x="689" y="541" type="curve"/>
      <point x="689" y="541"/>
      <point x="682" y="686"/>
      <point x="602" y="849" type="curve"/>
      <point x="738" y="889"/>
      <point x="885" y="903"/>
      <point x="885" y="903" type="curve"/>
      <point x="898" y="939"/>
      <point x="904" y="953"/>
      <point x="904" y="951" type="curve" smooth="yes"/>
      <point x="904" y="982"/>
      <point x="887" y="1012"/>
      <point x="887" y="1012" type="curve"/>
      <point x="887" y="1012"/>
      <point x="796" y="1037"/>
      <point x="673" y="1037" type="curve" smooth="yes"/>
      <point x="640" y="1037"/>
      <point x="601" y="1035"/>
      <point x="566" y="1031" type="curve"/>
      <point x="571" y="1172"/>
      <point x="602" y="1317"/>
      <point x="602" y="1317" type="curve"/>
      <point x="547" y="1360"/>
      <point x="478" y="1349"/>
      <point x="478" y="1349" type="curve"/>
      <point x="478" y="1349"/>
      <point x="396" y="1220"/>
      <point x="362" y="1054" type="curve"/>
      <point x="230" y="1103"/>
      <point x="110" y="1173"/>
      <point x="110" y="1173" type="curve"/>
      <point x="44" y="1130"/>
      <point x="37" y="1084"/>
      <point x="37" y="1084" type="curve"/>
      <point x="37" y="1084"/>
      <point x="131" y="967"/>
      <point x="288" y="882" type="curve"/>
      <point x="203" y="770"/>
      <point x="89" y="669"/>
      <point x="89" y="669" type="curve"/>
      <point x="104" y="607"/>
      <point x="166" y="579"/>
    </contour>
  </outline>
</glyph>
<glyph name="comma" format="1">
  <advance width="432"/>
  <unicode hex="002C"/>
  <outline>
    <contour>
      <point x="-23" y="-339" type="curve"/>
      <point x="-23" y="-354" type="line"/>
      <point x="16" y="-405"/>
      <point x="110" y="-408"/>
      <point x="110" y="-408" type="curve"/>
      <point x="110" y="-408"/>
      <point x="337" y="-141"/>
      <point x="337" y="139" type="curve"/>
      <point x="298" y="189"/>
      <point x="227" y="200"/>
      <point x="175" y="200" type="curve" smooth="yes"/>
      <point x="143" y="200"/>
      <point x="118" y="196"/>
      <point x="111" y="195" type="curve"/>
      <point x="111" y="-96"/>
      <point x="-23" y="-339"/>
    </contour>
  </outline>
</glyph>
<glyph name="hyphen" format="1">
  <advance width="952"/>
  <unicode hex="002D"/>
  <outline>
    <contour>
      <point x="180" y="510" type="line"/>
      <point x="772" y="510" type="line"/>
      <point x="772" y="685" type="line"/>
      <point x="180" y="685" type="line"/>
    </contour>
  </outline>
</glyph>
<glyph name="period" format="1">
  <advance width="392"/>
  <unicode hex="002E"/>
  <outline>
    <contour>
      <point x="48" y="138" type="curve" smooth="yes"/>
      <point x="48" y="61"/>
      <point x="114" y="-1"/>
      <point x="196" y="-1" type="curve" smooth="yes"/>
      <point x="278" y="-1"/>
      <point x="344" y="61"/>
      <point x="344" y="138" type="curve" smooth="yes"/>
      <point x="344" y="214"/>
      <point x="278" y="275"/>
      <point x="196" y="275" type="curve" smooth="yes"/>
      <point x="114" y="275"/>
      <point x="48" y="214"/>
    </contour>
  </outline>
</glyph>
<glyph name="zero" format="1">
  <advance width="1146"/>
  <unicode hex="0030"/>
  <outline>
    <contour>
      <point x="576" y="-20" type="curve" smooth="yes"/>
      <point x="912" y="-20"/>
      <point x="1063" y="274"/>
      <point x="1063" y="698" type="curve" smooth="yes"/>
      <point x="1063" y="1134"/>
      <point x="925" y="1380"/>
      <point x="576" y="1380" type="curve" smooth="yes"/>
      <point x="245" y="1380"/>
      <point x="83" y="1105"/>
      <point x="83" y="680" type="curve" smooth="yes"/>
      <point x="83" y="245"/>
      <point x="233" y="-20"/>
    </contour>
    <contour>
      <point x="575" y="141" type="curve" smooth="yes"/>
      <point x="388" y="141"/>
      <point x="317" y="366"/>
      <point x="317" y="680" type="curve" smooth="yes"/>
      <point x="317" y="994"/>
      <point x="389" y="1220"/>
      <point x="576" y="1220" type="curve" smooth="yes"/>
      <point x="758" y="1220"/>
      <point x="828" y="1027"/>
      <point x="828" y="698" type="curve" smooth="yes"/>
      <point x="828" y="394"/>
      <point x="757" y="141"/>
    </contour>
  </outline>
</glyph>
<glyph name="one" format="1">
  <advance width="658"/>
  <unicode hex="0031"/>
  <outline>
    <contour>
      <point x="274" y="0" type="line"/>
      <point x="489" y="0" type="line"/>
      <point x="489" y="1311" type="line"/>
      <point x="323" y="1311" type="line"/>
      <point x="323" y="1311"/>
      <point x="209" y="1252"/>
      <point x="59" y="1194" type="curve"/>
      <point x="59" y="1194"/>
      <point x="67" y="1095"/>
      <point x="129" y="1060" type="curve"/>
      <point x="147" y="1058" type="line"/>
      <point x="192" y="1070"/>
      <point x="242" y="1088"/>
      <point x="274" y="1102" type="curve"/>
    </contour>
  </outline>
</glyph>
<glyph name="two" format="1">
  <advance width="943"/>
  <unicode hex="0032"/>
  <outline>
    <contour>
      <point x="52" y="0" type="line"/>
      <point x="861" y="0" type="line"/>
      <point x="885" y="41"/>
      <point x="891" y="94"/>
      <point x="891" y="134" type="curve" smooth="yes"/>
      <point x="891" y="163"/>
      <point x="888" y="195"/>
      <point x="888" y="195" type="curve"/>
      <point x="888" y="195"/>
      <point x="563" y="169"/>
      <point x="306" y="166" type="curve"/>
      <point x="716" y="545"/>
      <point x="862" y="730"/>
      <point x="862" y="965" type="curve" smooth="yes"/>
      <point x="862" y="1206"/>
      <point x="709" y="1330"/>
      <point x="472" y="1330" type="curve" smooth="yes"/>
      <point x="254" y="1330"/>
      <point x="125" y="1225"/>
      <point x="84" y="1188" type="curve"/>
      <point x="84" y="1188"/>
      <point x="103" y="1116"/>
      <point x="167" y="1018" type="curve"/>
      <point x="229" y="1081"/>
      <point x="321" y="1160"/>
      <point x="442" y="1160" type="curve" smooth="yes"/>
      <point x="558" y="1160"/>
      <point x="658" y="1087"/>
      <point x="658" y="933" type="curve" smooth="yes"/>
      <point x="658" y="775"/>
      <point x="552" y="656"/>
      <point x="52" y="153" type="curve"/>
    </contour>
  </outline>
</glyph>
<glyph name="three" format="1">
  <advance width="1011"/>
  <unicode hex="0033"/>
  <outline>
    <contour>
      <point x="44" y="62" type="curve"/>
      <point x="44" y="62"/>
      <point x="215" y="-20"/>
      <point x="415" y="-20" type="curve" smooth="yes"/>
      <point x="724" y="-20"/>
      <point x="922" y="137"/>
      <point x="922" y="406" type="curve" smooth="yes"/>
      <point x="922" y="566"/>
      <point x="801" y="682"/>
      <point x="640" y="720" type="curve"/>
      <point x="773" y="765"/>
      <point x="862" y="877"/>
      <point x="862" y="1038" type="curve" smooth="yes"/>
      <point x="862" y="1268"/>
      <point x="705" y="1380"/>
      <point x="433" y="1380" type="curve" smooth="yes"/>
      <point x="244" y="1380"/>
      <point x="83" y="1297"/>
      <point x="83" y="1297" type="curve"/>
      <point x="83" y="1297"/>
      <point x="92" y="1220"/>
      <point x="154" y="1130" type="curve"/>
      <point x="154" y="1130"/>
      <point x="274" y="1209"/>
      <point x="414" y="1209" type="curve" smooth="yes"/>
      <point x="539" y="1209"/>
      <point x="627" y="1140"/>
      <point x="627" y="1021" type="curve" smooth="yes"/>
      <point x="627" y="885"/>
      <point x="540" y="796"/>
      <point x="435" y="796" type="curve"/>
      <point x="315" y="796" type="line"/>
      <point x="315" y="796"/>
      <point x="308" y="759"/>
      <point x="308" y="725" type="curve" smooth="yes"/>
      <point x="308" y="700"/>
      <point x="313" y="668"/>
      <point x="321" y="632" type="curve"/>
      <point x="435" y="632" type="line"/>
      <point x="614" y="632"/>
      <point x="691" y="523"/>
      <point x="691" y="427" type="curve" smooth="yes"/>
      <point x="691" y="262"/>
      <point x="571" y="152"/>
      <point x="412" y="152" type="curve" smooth="yes"/>
      <point x="261" y="152"/>
      <point x="115" y="231"/>
      <point x="115" y="231" type="curve"/>
      <point x="55" y="139"/>
      <point x="44" y="62"/>
    </contour>
  </outline>
</glyph>
<glyph name="four" format="1">
  <advance width="1102"/>
  <unicode hex="0034"/>
  <outline>
    <contour>
      <point x="92" y="366" type="curve"/>
      <point x="643" y="366" type="line"/>
      <point x="643" y="0" type="line"/>
      <point x="869" y="0" type="line"/>
      <point x="869" y="366" type="line"/>
      <point x="1009" y="366" type="line"/>
      <point x="1033" y="412"/>
      <point x="1038" y="447"/>
      <point x="1038" y="476" type="curve" smooth="yes"/>
      <point x="1038" y="494"/>
      <point x="1034" y="520"/>
      <point x="1034" y="520" type="curve"/>
      <point x="869" y="520" type="line"/>
      <point x="869" y="865" type="line"/>
      <point x="869" y="865"/>
      <point x="737" y="862"/>
      <point x="643" y="792" type="curve"/>
      <point x="643" y="520" type="line"/>
      <point x="224" y="520" type="line"/>
      <point x="323" y="648" type="line" smooth="yes"/>
      <point x="508" y="983"/>
      <point x="709" y="1325"/>
      <point x="709" y="1325" type="curve"/>
      <point x="708" y="1340" type="line"/>
      <point x="667" y="1390"/>
      <point x="497" y="1426"/>
      <point x="497" y="1426" type="curve"/>
      <point x="28" y="522" type="line"/>
      <point x="28" y="522"/>
      <point x="36" y="431"/>
    </contour>
  </outline>
</glyph>
<glyph name="five" format="1">
  <advance width="1042"/>
  <unicode hex="0035"/>
  <outline>
    <contour>
      <point x="67" y="62" type="curve"/>
      <point x="67" y="62"/>
      <point x="225" y="-20"/>
      <point x="415" y="-20" type="curve" smooth="yes"/>
      <point x="742" y="-20"/>
      <point x="934" y="163"/>
      <point x="934" y="448" type="curve" smooth="yes"/>
      <point x="934" y="680"/>
      <point x="766" y="828"/>
      <point x="501" y="828" type="curve" smooth="yes"/>
      <point x="453" y="828"/>
      <point x="398" y="823"/>
      <point x="348" y="803" type="curve"/>
      <point x="373" y="1135" type="line"/>
      <point x="616" y="1135"/>
      <point x="833" y="1124"/>
      <point x="833" y="1124" type="curve"/>
      <point x="865" y="1183"/>
      <point x="871" y="1240"/>
      <point x="871" y="1270" type="curve" smooth="yes"/>
      <point x="871" y="1297"/>
      <point x="868" y="1320"/>
      <point x="868" y="1320" type="curve"/>
      <point x="179" y="1320" type="line"/>
      <point x="167" y="1067"/>
      <point x="141" y="741"/>
      <point x="141" y="741" type="curve"/>
      <point x="141" y="741"/>
      <point x="159" y="686"/>
      <point x="220" y="631" type="curve"/>
      <point x="220" y="631"/>
      <point x="314" y="680"/>
      <point x="420" y="680" type="curve" smooth="yes"/>
      <point x="608" y="680"/>
      <point x="708" y="600"/>
      <point x="708" y="428" type="curve" smooth="yes"/>
      <point x="708" y="296"/>
      <point x="637" y="152"/>
      <point x="385" y="152" type="curve" smooth="yes"/>
      <point x="249" y="152"/>
      <point x="138" y="232"/>
      <point x="138" y="232" type="curve"/>
      <point x="77" y="138"/>
      <point x="67" y="62"/>
    </contour>
  </outline>
</glyph>
<glyph name="six" format="1">
  <advance width="1169"/>
  <unicode hex="0036"/>
  <outline>
    <contour>
      <point x="144" y="613" type="curve"/>
      <point x="144" y="269"/>
      <point x="239" y="-10"/>
      <point x="598" y="-10" type="curve" smooth="yes"/>
      <point x="869" y="-10"/>
      <point x="1054" y="159"/>
      <point x="1054" y="440" type="curve" smooth="yes"/>
      <point x="1054" y="751"/>
      <point x="888" y="883"/>
      <point x="663" y="883" type="curve" smooth="yes"/>
      <point x="526" y="883"/>
      <point x="404" y="834"/>
      <point x="365" y="805" type="curve"/>
      <point x="376" y="1004"/>
      <point x="453" y="1199"/>
      <point x="669" y="1199" type="curve" smooth="yes"/>
      <point x="820" y="1199"/>
      <point x="906" y="1146"/>
      <point x="906" y="1146" type="curve"/>
      <point x="983" y="1249"/>
      <point x="981" y="1317"/>
      <point x="981" y="1317" type="curve"/>
      <point x="981" y="1317"/>
      <point x="873" y="1380"/>
      <point x="669" y="1380" type="curve" smooth="yes"/>
      <point x="338" y="1380"/>
      <point x="144" y="1126"/>
    </contour>
    <contour>
      <point x="365" y="638" type="curve"/>
      <point x="415" y="688"/>
      <point x="510" y="720"/>
      <point x="599" y="720" type="curve" smooth="yes"/>
      <point x="739" y="720"/>
      <point x="829" y="628"/>
      <point x="829" y="450" type="curve" smooth="yes"/>
      <point x="829" y="292"/>
      <point x="761" y="164"/>
      <point x="594" y="164" type="curve" smooth="yes"/>
      <point x="385" y="164"/>
      <point x="352" y="487"/>
    </contour>
  </outline>
</glyph>
<glyph name="seven" format="1">
  <advance width="960"/>
  <unicode hex="0037"/>
  <outline>
    <contour>
      <point x="202" y="44" type="curve"/>
      <point x="202" y="44"/>
      <point x="300" y="-22"/>
      <point x="414" y="-26" type="curve"/>
      <point x="438" y="-18" type="line"/>
      <point x="651" y="574"/>
      <point x="816" y="1040"/>
      <point x="942" y="1286" type="curve"/>
      <point x="903" y="1361" type="line"/>
      <point x="652" y="1363"/>
      <point x="94" y="1368"/>
      <point x="94" y="1368" type="curve"/>
      <point x="94" y="1368"/>
      <point x="88" y="1308"/>
      <point x="88" y="1275" type="curve" smooth="yes"/>
      <point x="88" y="1239"/>
      <point x="94" y="1192"/>
      <point x="120" y="1155" type="curve"/>
      <point x="120" y="1155"/>
      <point x="395" y="1153"/>
      <point x="696" y="1155" type="curve"/>
      <point x="696" y="1155"/>
      <point x="477" y="645"/>
    </contour>
  </outline>
</glyph>
<glyph name="eight" format="1">
  <advance width="1180"/>
  <unicode hex="0038"/>
  <outline>
    <contour>
      <point x="130" y="367" type="curve" smooth="yes"/>
      <point x="130" y="132"/>
      <point x="321" y="-20"/>
      <point x="592" y="-20" type="curve" smooth="yes"/>
      <point x="850" y="-20"/>
      <point x="1050" y="128"/>
      <point x="1050" y="367" type="curve" smooth="yes"/>
      <point x="1050" y="538"/>
      <point x="944" y="668"/>
      <point x="806" y="710" type="curve"/>
      <point x="927" y="755"/>
      <point x="1004" y="872"/>
      <point x="1004" y="1012" type="curve" smooth="yes"/>
      <point x="1004" y="1229"/>
      <point x="836" y="1370"/>
      <point x="592" y="1370" type="curve" smooth="yes"/>
      <point x="333" y="1370"/>
      <point x="176" y="1229"/>
      <point x="176" y="1012" type="curve" smooth="yes"/>
      <point x="176" y="862"/>
      <point x="251" y="757"/>
      <point x="370" y="708" type="curve"/>
      <point x="234" y="665"/>
      <point x="130" y="522"/>
    </contour>
    <contour>
      <point x="363" y="369" type="curve" smooth="yes"/>
      <point x="363" y="466"/>
      <point x="425" y="625"/>
      <point x="592" y="625" type="curve" smooth="yes"/>
      <point x="743" y="625"/>
      <point x="817" y="466"/>
      <point x="817" y="369" type="curve" smooth="yes"/>
      <point x="817" y="226"/>
      <point x="703" y="134"/>
      <point x="592" y="134" type="curve" smooth="yes"/>
      <point x="472" y="134"/>
      <point x="363" y="226"/>
    </contour>
    <contour>
      <point x="592" y="782" type="curve" smooth="yes"/>
      <point x="477" y="782"/>
      <point x="401" y="884"/>
      <point x="401" y="1003" type="curve" smooth="yes"/>
      <point x="401" y="1122"/>
      <point x="479" y="1216"/>
      <point x="592" y="1216" type="curve" smooth="yes"/>
      <point x="689" y="1216"/>
      <point x="780" y="1118"/>
      <point x="780" y="1003" type="curve" smooth="yes"/>
      <point x="780" y="878"/>
      <point x="689" y="782"/>
    </contour>
  </outline>
</glyph>
<glyph name="nine" format="1">
  <advance width="1161"/>
  <unicode hex="0039"/>
  <outline>
    <contour>
      <point x="1036" y="767" type="curve"/>
      <point x="1036" y="1111"/>
      <point x="941" y="1380"/>
      <point x="582" y="1380" type="curve" smooth="yes"/>
      <point x="323" y="1380"/>
      <point x="146" y="1211"/>
      <point x="146" y="930" type="curve" smooth="yes"/>
      <point x="146" y="619"/>
      <point x="308" y="487"/>
      <point x="527" y="487" type="curve" smooth="yes"/>
      <point x="659" y="487"/>
      <point x="770" y="548"/>
      <point x="808" y="585" type="curve"/>
      <point x="797" y="376"/>
      <point x="738" y="171"/>
      <point x="501" y="171" type="curve" smooth="yes"/>
      <point x="356" y="171"/>
      <point x="254" y="234"/>
      <point x="254" y="234" type="curve"/>
      <point x="196" y="156"/>
      <point x="199" y="53"/>
      <point x="199" y="53" type="curve"/>
      <point x="199" y="53"/>
      <point x="304" y="-10"/>
      <point x="501" y="-10" type="curve" smooth="yes"/>
      <point x="853" y="-10"/>
      <point x="1036" y="254"/>
    </contour>
    <contour>
      <point x="806" y="930" type="curve"/>
      <point x="811" y="862"/>
      <point x="812" y="802"/>
      <point x="808" y="751" type="curve"/>
      <point x="760" y="701"/>
      <point x="676" y="650"/>
      <point x="591" y="650" type="curve" smooth="yes"/>
      <point x="457" y="650"/>
      <point x="371" y="742"/>
      <point x="371" y="920" type="curve" smooth="yes"/>
      <point x="371" y="1078"/>
      <point x="433" y="1206"/>
      <point x="586" y="1206" type="curve" smooth="yes"/>
      <point x="742" y="1206"/>
      <point x="793" y="1069"/>
    </contour>
  </outline>
</glyph>
<glyph name="less" format="1">
  <advance width="1435"/>
  <unicode hex="003C"/>
  <outline>
    <contour>
      <point x="215" y="518" type="line"/>
      <point x="1090" y="52" type="line"/>
      <point x="1163" y="211" type="line"/>
      <point x="533" y="564" type="line"/>
      <point x="468" y="585" type="line"/>
      <point x="530" y="604" type="line"/>
      <point x="1163" y="959" type="line"/>
      <point x="1090" y="1118" type="line"/>
      <point x="215" y="653" type="line"/>
    </contour>
  </outline>
</glyph>
<glyph name="equal" format="1">
  <advance width="1362"/>
  <unicode hex="003D"/>
  <outline>
    <contour>
      <point x="235" y="341" type="line"/>
      <point x="1109" y="341" type="line"/>
      <point x="1109" y="515" type="line"/>
      <point x="235" y="515" type="line"/>
    </contour>
    <contour>
      <point x="235" y="846" type="line"/>
      <point x="1109" y="846" type="line"/>
      <point x="1109" y="1020" type="line"/>
      <point x="235" y="1020" type="line"/>
    </contour>
  </outline>
</glyph>
<glyph name="question" format="1">
  <advance width="851"/>
  <unicode hex="003F"/>
  <outline>
    <contour>
      <point x="271" y="416" type="curve"/>
      <point x="289" y="405" type="line"/>
      <point x="309" y="400"/>
      <point x="334" y="397"/>
      <point x="359" y="397" type="curve" smooth="yes"/>
      <point x="384" y="397"/>
      <point x="401" y="401"/>
      <point x="433" y="409" type="curve"/>
      <point x="433" y="607"/>
      <point x="440" y="662"/>
      <point x="532" y="711" type="curve" smooth="yes"/>
      <point x="672" y="785"/>
      <point x="811" y="895"/>
      <point x="811" y="1077" type="curve" smooth="yes"/>
      <point x="811" y="1289"/>
      <point x="634" y="1406"/>
      <point x="391" y="1406" type="curve" smooth="yes"/>
      <point x="156" y="1406"/>
      <point x="36" y="1294"/>
      <point x="36" y="1294" type="curve"/>
      <point x="36" y="1294"/>
      <point x="38" y="1230"/>
      <point x="104" y="1134" type="curve"/>
      <point x="104" y="1134"/>
      <point x="214" y="1231"/>
      <point x="361" y="1231" type="curve" smooth="yes"/>
      <point x="497" y="1231"/>
      <point x="580" y="1179"/>
      <point x="580" y="1047" type="curve" smooth="yes"/>
      <point x="580" y="971"/>
      <point x="528" y="899"/>
      <point x="413" y="844" type="curve" smooth="yes"/>
      <point x="309" y="794"/>
      <point x="265" y="741"/>
      <point x="265" y="621" type="curve" smooth="yes"/>
      <point x="265" y="591"/>
      <point x="267" y="455"/>
    </contour>
    <contour>
      <point x="206" y="138" type="curve" smooth="yes"/>
      <point x="206" y="61"/>
      <point x="272" y="-1"/>
      <point x="354" y="-1" type="curve" smooth="yes"/>
      <point x="436" y="-1"/>
      <point x="502" y="61"/>
      <point x="502" y="138" type="curve" smooth="yes"/>
      <point x="502" y="214"/>
      <point x="436" y="275"/>
      <point x="354" y="275" type="curve" smooth="yes"/>
      <point x="272" y="275"/>
      <point x="206" y="214"/>
    </contour>
  </outline>
</glyph>
<glyph name="at" format="1">
  <advance width="1853"/>
  <unicode hex="0040"/>
  <outline>
    <contour>
      <point x="60" y="437" type="curve" smooth="yes"/>
      <point x="60" y="33"/>
      <point x="351" y="-230"/>
      <point x="867" y="-230" type="curve" smooth="yes"/>
      <point x="1051" y="-230"/>
      <point x="1205" y="-156"/>
      <point x="1205" y="-156" type="curve"/>
      <point x="1195" y="-103"/>
      <point x="1157" y="-48"/>
      <point x="1157" y="-48" type="curve"/>
      <point x="1157" y="-48"/>
      <point x="1045" y="-93"/>
      <point x="889" y="-93" type="curve" smooth="yes"/>
      <point x="495" y="-93"/>
      <point x="236" y="125"/>
      <point x="236" y="506" type="curve" smooth="yes"/>
      <point x="236" y="958"/>
      <point x="553" y="1257"/>
      <point x="1007" y="1257" type="curve" smooth="yes"/>
      <point x="1349" y="1257"/>
      <point x="1613" y="1093"/>
      <point x="1613" y="750" type="curve" smooth="yes"/>
      <point x="1613" y="392"/>
      <point x="1421" y="245"/>
      <point x="1272" y="245" type="curve" smooth="yes"/>
      <point x="1191" y="245"/>
      <point x="1182" y="275"/>
      <point x="1201" y="433" type="curve" smooth="yes"/>
      <point x="1273" y="1034" type="line"/>
      <point x="1070" y="1034" type="line"/>
      <point x="1067" y="1010" type="line"/>
      <point x="1067" y="1010"/>
      <point x="996" y="1034"/>
      <point x="937" y="1034" type="curve" smooth="yes"/>
      <point x="728" y="1034"/>
      <point x="495" y="803"/>
      <point x="495" y="483" type="curve" smooth="yes"/>
      <point x="495" y="254"/>
      <point x="619" y="144"/>
      <point x="769" y="144" type="curve" smooth="yes"/>
      <point x="891" y="144"/>
      <point x="981" y="239"/>
      <point x="1020" y="298" type="curve"/>
      <point x="1021" y="198"/>
      <point x="1062" y="129"/>
      <point x="1225" y="129" type="curve" smooth="yes"/>
      <point x="1537" y="129"/>
      <point x="1786" y="409"/>
      <point x="1786" y="773" type="curve" smooth="yes"/>
      <point x="1786" y="1195"/>
      <point x="1444" y="1385"/>
      <point x="1019" y="1385" type="curve" smooth="yes"/>
      <point x="597" y="1385"/>
      <point x="60" y="1106"/>
    </contour>
    <contour>
      <point x="708" y="505" type="curve" smooth="yes"/>
      <point x="708" y="718"/>
      <point x="809" y="920"/>
      <point x="968" y="920" type="curve" smooth="yes"/>
      <point x="1016" y="920"/>
      <point x="1037" y="905"/>
      <point x="1054" y="900" type="curve"/>
      <point x="1003" y="408" type="line"/>
      <point x="1003" y="408"/>
      <point x="955" y="288"/>
      <point x="843" y="288" type="curve" smooth="yes"/>
      <point x="753" y="288"/>
      <point x="708" y="360"/>
    </contour>
  </outline>
</glyph>
<glyph name="A" format="1">
  <advance width="1121"/>
  <unicode hex="0041"/>
  <outline>
    <contour>
      <point x="-10" y="0" type="line"/>
      <point x="223" y="0" type="line"/>
      <point x="341" y="415" type="line"/>
      <point x="780" y="415" type="line"/>
      <point x="904" y="0" type="line"/>
      <point x="1131" y="0" type="line"/>
      <point x="725" y="1358" type="line"/>
      <point x="384" y="1358" type="line"/>
    </contour>
    <contour>
      <point x="385" y="589" type="line"/>
      <point x="550" y="1255" type="line"/>
      <point x="733" y="589" type="line"/>
    </contour>
    <contour>
      <point x="566" y="1713" type="move" name="top"/>
    </contour>
    <contour>
      <point x="566" y="-157" type="move" name="btm"/>
    </contour>
    <contour>
      <point x="1117" y="-157" type="move" name="og"/>
    </contour>
  </outline>
</glyph>
<glyph name="B" format="1">
  <advance width="1172"/>
  <unicode hex="0042"/>
  <outline>
    <contour>
      <point x="592" y="1713" type="move" name="top"/>
    </contour>
    <contour>
      <point x="631" y="-157" type="move" name="btm"/>
    </contour>
    <contour>
      <point x="158" y="0" type="line"/>
      <point x="632" y="0" type="line"/>
      <point x="928" y="0"/>
      <point x="1082" y="148"/>
      <point x="1082" y="400" type="curve" smooth="yes"/>
      <point x="1082" y="585"/>
      <point x="949" y="710"/>
      <point x="830" y="730" type="curve"/>
      <point x="944" y="770"/>
      <point x="1033" y="895"/>
      <point x="1033" y="1014" type="curve" smooth="yes"/>
      <point x="1033" y="1242"/>
      <point x="870" y="1358"/>
      <point x="658" y="1358" type="curve"/>
      <point x="158" y="1358" type="line"/>
    </contour>
    <contour>
      <point x="385" y="170" type="line"/>
      <point x="385" y="619" type="line"/>
      <point x="624" y="619" type="line"/>
      <point x="752" y="619"/>
      <point x="851" y="564"/>
      <point x="851" y="396" type="curve" smooth="yes"/>
      <point x="851" y="230"/>
      <point x="754" y="170"/>
      <point x="608" y="170" type="curve"/>
    </contour>
    <contour>
      <point x="385" y="770" type="line"/>
      <point x="385" y="1190" type="line"/>
      <point x="614" y="1190" type="line"/>
      <point x="730" y="1190"/>
      <point x="802" y="1123"/>
      <point x="802" y="1010" type="curve" smooth="yes"/>
      <point x="802" y="878"/>
      <point x="760" y="798"/>
      <point x="667" y="770" type="curve"/>
    </contour>
  </outline>
</glyph>
<glyph name="C" format="1">
  <advance width="1069"/>
  <unicode hex="0043"/>
  <outline>
    <contour>
      <point x="668" y="1713" type="move" name="top"/>
    </contour>
    <contour>
      <point x="674" y="-157" type="move" name="btm"/>
    </contour>
    <contour>
      <point x="51" y="667" type="curve" smooth="yes"/>
      <point x="51" y="211"/>
      <point x="260" y="-26"/>
      <point x="663" y="-26" type="curve" smooth="yes"/>
      <point x="820" y="-26"/>
      <point x="980" y="28"/>
      <point x="980" y="28" type="curve"/>
      <point x="984" y="138"/>
      <point x="945" y="212"/>
      <point x="945" y="212" type="curve"/>
      <point x="945" y="212"/>
      <point x="812" y="159"/>
      <point x="663" y="159" type="curve" smooth="yes"/>
      <point x="426" y="159"/>
      <point x="276" y="333"/>
      <point x="276" y="667" type="curve" smooth="yes"/>
      <point x="276" y="1002"/>
      <point x="426" y="1200"/>
      <point x="663" y="1200" type="curve" smooth="yes"/>
      <point x="810" y="1200"/>
      <point x="935" y="1148"/>
      <point x="935" y="1148" type="curve"/>
      <point x="981" y="1242"/>
      <point x="987" y="1329"/>
      <point x="987" y="1329" type="curve"/>
      <point x="987" y="1329"/>
      <point x="819" y="1384"/>
      <point x="663" y="1384" type="curve" smooth="yes"/>
      <point x="268" y="1384"/>
      <point x="51" y="1123"/>
    </contour>
  </outline>
</glyph>
<glyph name="D" format="1">
  <advance width="1255"/>
  <unicode hex="0044"/>
  <outline>
    <contour>
      <point x="664" y="1713" type="move" name="top"/>
    </contour>
    <contour>
      <point x="687" y="-157" type="move" name="btm"/>
    </contour>
    <contour>
      <point x="158" y="0" type="line"/>
      <point x="543" y="0" type="line" smooth="yes"/>
      <point x="950" y="0"/>
      <point x="1203" y="236"/>
      <point x="1203" y="692" type="curve" smooth="yes"/>
      <point x="1203" y="1148"/>
      <point x="972" y="1368"/>
      <point x="557" y="1368" type="curve" smooth="yes"/>
      <point x="327" y="1368"/>
      <point x="158" y="1357"/>
      <point x="158" y="1357" type="curve"/>
    </contour>
    <contour>
      <point x="384" y="175" type="line"/>
      <point x="384" y="1188" type="line"/>
      <point x="384" y="1188"/>
      <point x="441" y="1194"/>
      <point x="577" y="1194" type="curve" smooth="yes"/>
      <point x="824" y="1194"/>
      <point x="972" y="1021"/>
      <point x="972" y="688" type="curve" smooth="yes"/>
      <point x="972" y="400"/>
      <point x="824" y="175"/>
      <point x="577" y="175" type="curve" smooth="yes"/>
    </contour>
  </outline>
</glyph>
<glyph name="E" format="1">
  <advance width="1019"/>
  <unicode hex="0045"/>
  <outline>
    <contour>
      <point x="158" y="0" type="line"/>
      <point x="932" y="0" type="line"/>
      <point x="945" y="52"/>
      <point x="948" y="100"/>
      <point x="948" y="128" type="curve" smooth="yes"/>
      <point x="948" y="159"/>
      <point x="945" y="189"/>
      <point x="945" y="189" type="curve"/>
      <point x="945" y="189"/>
      <point x="618" y="172"/>
      <point x="385" y="171" type="curve"/>
      <point x="385" y="619" type="line"/>
      <point x="518" y="619"/>
      <point x="843" y="617"/>
      <point x="843" y="617" type="curve"/>
      <point x="859" y="649"/>
      <point x="868" y="723"/>
      <point x="868" y="735" type="curve" smooth="yes"/>
      <point x="868" y="766"/>
      <point x="865" y="792"/>
      <point x="865" y="792" type="curve"/>
      <point x="865" y="792"/>
      <point x="542" y="782"/>
      <point x="385" y="781" type="curve"/>
      <point x="385" y="1191" type="line"/>
      <point x="619" y="1191"/>
      <point x="905" y="1178"/>
      <point x="905" y="1178" type="curve"/>
      <point x="934" y="1238"/>
      <point x="940" y="1287"/>
      <point x="940" y="1309" type="curve" smooth="yes"/>
      <point x="940" y="1335"/>
      <point x="937" y="1358"/>
      <point x="937" y="1358" type="curve"/>
      <point x="158" y="1358" type="line"/>
    </contour>
    <contour>
      <point x="559" y="1713" type="move" name="top"/>
    </contour>
    <contour>
      <point x="559" y="-157" type="move" name="btm"/>
    </contour>
    <contour>
      <point x="926" y="-157" type="move" name="og"/>
    </contour>
  </outline>
</glyph>
<glyph name="F" format="1">
  <advance width="991"/>
  <unicode hex="0046"/>
  <outline>
    <contour>
      <point x="158" y="0" type="line"/>
      <point x="385" y="0" type="line"/>
      <point x="385" y="585" type="line"/>
      <point x="488" y="585"/>
      <point x="863" y="583"/>
      <point x="863" y="583" type="curve"/>
      <point x="884" y="654"/>
      <point x="888" y="692"/>
      <point x="888" y="704" type="curve" smooth="yes"/>
      <point x="888" y="734"/>
      <point x="885" y="761"/>
      <point x="885" y="761" type="curve"/>
      <point x="885" y="761"/>
      <point x="529" y="749"/>
      <point x="385" y="748" type="curve"/>
      <point x="385" y="1191" type="line"/>
      <point x="625" y="1191"/>
      <point x="905" y="1178"/>
      <point x="905" y="1178" type="curve"/>
      <point x="934" y="1238"/>
      <point x="940" y="1287"/>
      <point x="940" y="1309" type="curve" smooth="yes"/>
      <point x="940" y="1335"/>
      <point x="937" y="1358"/>
      <point x="937" y="1358" type="curve"/>
      <point x="158" y="1358" type="line"/>
    </contour>
    <contour>
      <point x="518" y="1713" type="move" name="top"/>
    </contour>
    <contour>
      <point x="554" y="-157" type="move" name="btm"/>
    </contour>
  </outline>
</glyph>
<glyph name="G" format="1">
  <advance width="1151"/>
  <unicode hex="0047"/>
  <outline>
    <contour>
      <point x="594" y="1700" type="move" name="top"/>
    </contour>
    <contour>
      <point x="547" y="-157" type="move" name="btm"/>
    </contour>
    <contour>
      <point x="53" y="667" type="curve" smooth="yes"/>
      <point x="53" y="211"/>
      <point x="278" y="-26"/>
      <point x="685" y="-26" type="curve" smooth="yes"/>
      <point x="842" y="-26"/>
      <point x="1021" y="-2"/>
      <point x="1021" y="-2" type="curve"/>
      <point x="1040" y="11" type="line"/>
      <point x="1040" y="11"/>
      <point x="1050" y="300"/>
      <point x="1050" y="614" type="curve" smooth="yes"/>
      <point x="1050" y="614"/>
      <point x="992" y="631"/>
      <point x="935" y="631" type="curve" smooth="yes"/>
      <point x="907" y="631"/>
      <point x="867" y="628"/>
      <point x="819" y="615" type="curve"/>
      <point x="819" y="615"/>
      <point x="832" y="328"/>
      <point x="834" y="156" type="curve"/>
      <point x="794" y="152"/>
      <point x="729" y="151"/>
      <point x="685" y="151" type="curve" smooth="yes"/>
      <point x="426" y="151"/>
      <point x="285" y="341"/>
      <point x="285" y="667" type="curve" smooth="yes"/>
      <point x="285" y="994"/>
      <point x="436" y="1206"/>
      <point x="685" y="1206" type="curve" smooth="yes"/>
      <point x="832" y="1206"/>
      <point x="976" y="1154"/>
      <point x="976" y="1154" type="curve"/>
      <point x="1021" y="1246"/>
      <point x="1026" y="1329"/>
      <point x="1026" y="1329" type="curve"/>
      <point x="1026" y="1329"/>
      <point x="840" y="1384"/>
      <point x="685" y="1384" type="curve" smooth="yes"/>
      <point x="278" y="1384"/>
      <point x="53" y="1123"/>
    </contour>
  </outline>
</glyph>
<glyph name="H" format="1">
  <advance width="1299"/>
  <unicode hex="0048"/>
  <outline>
    <contour>
      <point x="158" y="0" type="line"/>
      <point x="385" y="0" type="line"/>
      <point x="385" y="607" type="line"/>
      <point x="915" y="607" type="line"/>
      <point x="915" y="0" type="line"/>
      <point x="1141" y="0" type="line"/>
      <point x="1141" y="1358" type="line"/>
      <point x="915" y="1358" type="line"/>
      <point x="915" y="781" type="line"/>
      <point x="385" y="781" type="line"/>
      <point x="385" y="1358" type="line"/>
      <point x="158" y="1358" type="line"/>
    </contour>
    <contour>
      <point x="656" y="1713" type="move" name="top"/>
    </contour>
    <contour>
      <point x="656" y="-157" type="move" name="btm"/>
    </contour>
  </outline>
</glyph>
<glyph name="I" format="1">
  <advance width="542"/>
  <unicode hex="0049"/>
  <outline>
    <contour>
      <point x="158" y="0" type="line"/>
      <point x="384" y="0" type="line"/>
      <point x="384" y="1358" type="line"/>
      <point x="158" y="1358" type="line"/>
    </contour>
    <contour>
      <point x="273" y="1713" type="move" name="top"/>
    </contour>
    <contour>
      <point x="273" y="-157" type="move" name="btm"/>
    </contour>
    <contour>
      <point x="366" y="-157" type="move" name="og"/>
    </contour>
  </outline>
</glyph>
<glyph name="J" format="1">
  <advance width="633"/>
  <unicode hex="004A"/>
  <outline>
    <contour>
      <point x="337" y="1713" type="move" name="top"/>
    </contour>
    <contour>
      <point x="271" y="-157" type="move" name="btm"/>
    </contour>
    <contour>
      <point x="223" y="172" type="line" smooth="yes"/>
      <point x="223" y="-14"/>
      <point x="157" y="-78"/>
      <point x="40" y="-102" type="curve"/>
      <point x="40" y="-102"/>
      <point x="66" y="-190"/>
      <point x="116" y="-268" type="curve"/>
      <point x="354" y="-215"/>
      <point x="450" y="-94"/>
      <point x="450" y="123" type="curve"/>
      <point x="450" y="1358" type="line"/>
      <point x="223" y="1358" type="line"/>
    </contour>
  </outline>
</glyph>
<glyph name="K" format="1">
  <advance width="1128"/>
  <unicode hex="004B"/>
  <outline>
    <contour>
      <point x="661" y="1713" type="move" name="top"/>
    </contour>
    <contour>
      <point x="661" y="-157" type="move" name="btm"/>
    </contour>
    <contour>
      <point x="158" y="0" type="line"/>
      <point x="385" y="0" type="line"/>
      <point x="385" y="627" type="line"/>
      <point x="397" y="627" type="line"/>
      <point x="854" y="0" type="line"/>
      <point x="1132" y="0" type="line"/>
      <point x="590" y="695" type="line"/>
      <point x="1104" y="1358" type="line"/>
      <point x="832" y="1358" type="line"/>
      <point x="405" y="763" type="line"/>
      <point x="385" y="763" type="line"/>
      <point x="385" y="1358" type="line"/>
      <point x="158" y="1358" type="line"/>
    </contour>
  </outline>
</glyph>
<glyph name="L" format="1">
  <advance width="993"/>
  <unicode hex="004C"/>
  <outline>
    <contour>
      <point x="158" y="0" type="line"/>
      <point x="880" y="0" type="line"/>
      <point x="887" y="-1"/>
      <point x="915" y="160"/>
      <point x="915" y="205" type="curve"/>
      <point x="915" y="205"/>
      <point x="612" y="189"/>
      <point x="385" y="188" type="curve"/>
      <point x="385" y="1358" type="line"/>
      <point x="158" y="1358" type="line"/>
    </contour>
    <contour>
      <point x="569" y="1713" type="move" name="top"/>
    </contour>
    <contour>
      <point x="569" y="-157" type="move" name="btm"/>
    </contour>
  </outline>
</glyph>
<glyph name="M" format="1">
  <advance width="1573"/>
  <unicode hex="004D"/>
  <outline>
    <contour>
      <point x="793" y="1713" type="move" name="top"/>
    </contour>
    <contour>
      <point x="793" y="-157" type="move" name="btm"/>
    </contour>
    <contour>
      <point x="108" y="0" type="line"/>
      <point x="325" y="0" type="line"/>
      <point x="359" y="978" type="line"/>
      <point x="355" y="1248" type="line"/>
      <point x="661" y="234" type="line"/>
      <point x="918" y="234" type="line"/>
      <point x="1010" y="508"/>
      <point x="1123" y="968"/>
      <point x="1215" y="1245" type="curve"/>
      <point x="1210" y="982" type="line"/>
      <point x="1251" y="0" type="line"/>
      <point x="1468" y="0" type="line"/>
      <point x="1394" y="1358" type="line"/>
      <point x="1053" y="1358" type="line"/>
      <point x="862" y="680" type="line"/>
      <point x="789" y="388" type="line"/>
      <point x="716" y="680" type="line"/>
      <point x="520" y="1358" type="line"/>
      <point x="179" y="1358" type="line"/>
    </contour>
  </outline>
</glyph>
<glyph name="N" format="1">
  <advance width="1351"/>
  <unicode hex="004E"/>
  <outline>
    <contour>
      <point x="682" y="1713" type="move" name="top"/>
    </contour>
    <contour>
      <point x="682" y="-157" type="move" name="btm"/>
    </contour>
    <contour>
      <point x="158" y="0" type="line"/>
      <point x="375" y="0" type="line"/>
      <point x="368" y="850" type="line"/>
      <point x="355" y="1242" type="line"/>
      <point x="492" y="850" type="line"/>
      <point x="843" y="0" type="line"/>
      <point x="1193" y="0" type="line"/>
      <point x="1193" y="1358" type="line"/>
      <point x="977" y="1358" type="line"/>
      <point x="984" y="510" type="line"/>
      <point x="997" y="124" type="line"/>
      <point x="860" y="510" type="line"/>
      <point x="517" y="1358" type="line"/>
      <point x="158" y="1358" type="line"/>
    </contour>
  </outline>
</glyph>
<glyph name="O" format="1">
  <advance width="1290"/>
  <unicode hex="004F"/>
  <outline>
    <contour>
      <point x="651" y="1713" type="move" name="top"/>
    </contour>
    <contour>
      <point x="651" y="-157" type="move" name="btm"/>
    </contour>
    <contour>
      <point x="649" y="-26" type="curve" smooth="yes"/>
      <point x="1041" y="-26"/>
      <point x="1207" y="259"/>
      <point x="1207" y="698" type="curve" smooth="yes"/>
      <point x="1207" y="1135"/>
      <point x="1056" y="1384"/>
      <point x="649" y="1384" type="curve" smooth="yes"/>
      <point x="259" y="1384"/>
      <point x="83" y="1117"/>
      <point x="83" y="679" type="curve" smooth="yes"/>
      <point x="83" y="242"/>
      <point x="248" y="-26"/>
    </contour>
    <contour>
      <point x="649" y="149" type="curve" smooth="yes"/>
      <point x="395" y="149"/>
      <point x="308" y="342"/>
      <point x="308" y="679" type="curve" smooth="yes"/>
      <point x="308" y="1016"/>
      <point x="395" y="1211"/>
      <point x="649" y="1211" type="curve" smooth="yes"/>
      <point x="902" y="1211"/>
      <point x="981" y="1048"/>
      <point x="981" y="698" type="curve" smooth="yes"/>
      <point x="981" y="372"/>
      <point x="902" y="149"/>
    </contour>
  </outline>
</glyph>
<glyph name="P" format="1">
  <advance width="1096"/>
  <unicode hex="0050"/>
  <outline>
    <contour>
      <point x="158" y="0" type="line"/>
      <point x="385" y="0" type="line"/>
      <point x="385" y="518" type="line"/>
      <point x="385" y="518"/>
      <point x="466" y="509"/>
      <point x="567" y="509" type="curve" smooth="yes"/>
      <point x="884" y="509"/>
      <point x="1048" y="720"/>
      <point x="1048" y="951" type="curve" smooth="yes"/>
      <point x="1048" y="1206"/>
      <point x="891" y="1358"/>
      <point x="623" y="1358" type="curve" smooth="yes"/>
      <point x="158" y="1358" type="line"/>
    </contour>
    <contour>
      <point x="385" y="687" type="curve"/>
      <point x="385" y="1184" type="line"/>
      <point x="611" y="1184" type="line" smooth="yes"/>
      <point x="758" y="1184"/>
      <point x="816" y="1087"/>
      <point x="816" y="937" type="curve" smooth="yes"/>
      <point x="816" y="750"/>
      <point x="683" y="680"/>
      <point x="502" y="680" type="curve" smooth="yes"/>
      <point x="447" y="680"/>
      <point x="405" y="684"/>
    </contour>
    <contour>
      <point x="621" y="1713" type="move" name="top"/>
    </contour>
    <contour>
      <point x="621" y="-157" type="move" name="btm"/>
    </contour>
  </outline>
</glyph>
<glyph name="Q" format="1">
  <advance width="1290"/>
  <unicode hex="0051"/>
  <outline>
    <contour>
      <point x="674" y="1713" type="move" name="top"/>
    </contour>
    <contour>
      <point x="674" y="-157" type="move" name="btm"/>
    </contour>
    <contour>
      <point x="659" y="-26" type="curve" smooth="yes"/>
      <point x="674" y="-26"/>
      <point x="718" y="-24"/>
      <point x="736" y="-21" type="curve"/>
      <point x="832" y="-88"/>
      <point x="951" y="-188"/>
      <point x="1107" y="-280" type="curve"/>
      <point x="1107" y="-280"/>
      <point x="1213" y="-209"/>
      <point x="1246" y="-110" type="curve"/>
      <point x="1246" y="-110"/>
      <point x="1090" y="-34"/>
      <point x="962" y="43" type="curve"/>
      <point x="962" y="60" type="line"/>
      <point x="1129" y="175"/>
      <point x="1207" y="392"/>
      <point x="1207" y="698" type="curve" smooth="yes"/>
      <point x="1207" y="1135"/>
      <point x="1059" y="1384"/>
      <point x="652" y="1384" type="curve" smooth="yes"/>
      <point x="262" y="1384"/>
      <point x="83" y="1117"/>
      <point x="83" y="679" type="curve" smooth="yes"/>
      <point x="83" y="242"/>
      <point x="248" y="-26"/>
    </contour>
    <contour>
      <point x="652" y="149" type="curve" smooth="yes"/>
      <point x="398" y="149"/>
      <point x="313" y="342"/>
      <point x="313" y="679" type="curve" smooth="yes"/>
      <point x="313" y="1026"/>
      <point x="398" y="1212"/>
      <point x="652" y="1212" type="curve" smooth="yes"/>
      <point x="905" y="1212"/>
      <point x="976" y="1048"/>
      <point x="976" y="698" type="curve" smooth="yes"/>
      <point x="976" y="372"/>
      <point x="905" y="149"/>
    </contour>
  </outline>
</glyph>
<glyph name="R" format="1">
  <advance width="1140"/>
  <unicode hex="0052"/>
  <outline>
    <contour>
      <point x="627" y="1713" type="move" name="top"/>
    </contour>
    <contour>
      <point x="589" y="-157" type="move" name="btm"/>
    </contour>
    <contour>
      <point x="158" y="0" type="line"/>
      <point x="376" y="0" type="line"/>
      <point x="376" y="578" type="line"/>
      <point x="376" y="578"/>
      <point x="482" y="561"/>
      <point x="557" y="561" type="curve"/>
      <point x="571" y="561" type="line"/>
      <point x="868" y="0" type="line"/>
      <point x="1112" y="0" type="line"/>
      <point x="1010" y="193"/>
      <point x="879" y="400"/>
      <point x="777" y="595" type="curve"/>
      <point x="961" y="659"/>
      <point x="1044" y="801"/>
      <point x="1044" y="971" type="curve" smooth="yes"/>
      <point x="1044" y="1205"/>
      <point x="902" y="1358"/>
      <point x="634" y="1358" type="curve"/>
      <point x="158" y="1358" type="line"/>
    </contour>
    <contour>
      <point x="376" y="739" type="curve"/>
      <point x="376" y="1184" type="line"/>
      <point x="598" y="1184" type="line"/>
      <point x="736" y="1184"/>
      <point x="815" y="1106"/>
      <point x="815" y="967" type="curve" smooth="yes"/>
      <point x="815" y="808"/>
      <point x="731" y="732"/>
      <point x="563" y="732" type="curve" smooth="yes"/>
      <point x="490" y="732"/>
      <point x="401" y="736"/>
    </contour>
  </outline>
</glyph>
<glyph name="S" format="1">
  <advance width="1081"/>
  <unicode hex="0053"/>
  <outline>
    <contour>
      <point x="546" y="1713" type="move" name="top"/>
    </contour>
    <contour>
      <point x="546" y="-157" type="move" name="btm"/>
    </contour>
    <contour>
      <point x="107" y="49" type="curve"/>
      <point x="107" y="49"/>
      <point x="277" y="-26"/>
      <point x="485" y="-26" type="curve" smooth="yes"/>
      <point x="835" y="-26"/>
      <point x="974" y="110"/>
      <point x="974" y="389" type="curve" smooth="yes"/>
      <point x="974" y="615"/>
      <point x="865" y="700"/>
      <point x="585" y="778" type="curve" smooth="yes"/>
      <point x="398" y="831"/>
      <point x="326" y="869"/>
      <point x="326" y="1015" type="curve" smooth="yes"/>
      <point x="326" y="1146"/>
      <point x="395" y="1204"/>
      <point x="583" y="1204" type="curve" smooth="yes"/>
      <point x="756" y="1204"/>
      <point x="852" y="1131"/>
      <point x="852" y="1131" type="curve"/>
      <point x="918" y="1227"/>
      <point x="925" y="1302"/>
      <point x="925" y="1302" type="curve"/>
      <point x="925" y="1302"/>
      <point x="807" y="1384"/>
      <point x="587" y="1384" type="curve" smooth="yes"/>
      <point x="299" y="1384"/>
      <point x="114" y="1266"/>
      <point x="114" y="978" type="curve" smooth="yes"/>
      <point x="114" y="778"/>
      <point x="220" y="672"/>
      <point x="513" y="593" type="curve" smooth="yes"/>
      <point x="681" y="546"/>
      <point x="756" y="497"/>
      <point x="756" y="356" type="curve" smooth="yes"/>
      <point x="756" y="231"/>
      <point x="687" y="167"/>
      <point x="477" y="167" type="curve" smooth="yes"/>
      <point x="339" y="167"/>
      <point x="153" y="231"/>
      <point x="153" y="231" type="curve"/>
      <point x="110" y="127"/>
      <point x="107" y="49"/>
    </contour>
  </outline>
</glyph>
<glyph name="T" format="1">
  <advance width="963"/>
  <unicode hex="0054"/>
  <outline>
    <contour>
      <point x="362" y="0" type="line"/>
      <point x="588" y="0" type="line"/>
      <point x="588" y="1190" type="line"/>
      <point x="726" y="1190"/>
      <point x="897" y="1185"/>
      <point x="919" y="1182" type="curve"/>
      <point x="931" y="1219"/>
      <point x="935" y="1267"/>
      <point x="935" y="1294" type="curve" smooth="yes"/>
      <point x="935" y="1324"/>
      <point x="930" y="1358"/>
      <point x="930" y="1358" type="curve"/>
      <point x="40" y="1358" type="line"/>
      <point x="31" y="1316"/>
      <point x="28" y="1281"/>
      <point x="28" y="1257" type="curve" smooth="yes"/>
      <point x="28" y="1220"/>
      <point x="34" y="1181"/>
      <point x="34" y="1181" type="curve"/>
      <point x="34" y="1181"/>
      <point x="162" y="1189"/>
      <point x="362" y="1190" type="curve"/>
    </contour>
    <contour>
      <point x="487" y="1713" type="move" name="top"/>
    </contour>
    <contour>
      <point x="487" y="-157" type="move" name="btm"/>
    </contour>
  </outline>
</glyph>
<glyph name="U" format="1">
  <advance width="1241"/>
  <unicode hex="0055"/>
  <outline>
    <contour>
      <point x="626" y="1713" type="move" name="top"/>
    </contour>
    <contour>
      <point x="626" y="-157" type="move" name="btm"/>
    </contour>
    <contour>
      <point x="1125" y="-157" type="move" name="og"/>
    </contour>
    <contour>
      <point x="117" y="530" type="curve" smooth="yes"/>
      <point x="117" y="172"/>
      <point x="253" y="-20"/>
      <point x="623" y="-20" type="curve" smooth="yes"/>
      <point x="1000" y="-20"/>
      <point x="1122" y="167"/>
      <point x="1123" y="530" type="curve"/>
      <point x="1123" y="1358" type="line"/>
      <point x="902" y="1358" type="line"/>
      <point x="902" y="1358"/>
      <point x="906" y="615"/>
      <point x="906" y="497" type="curve" smooth="yes"/>
      <point x="906" y="292"/>
      <point x="826" y="160"/>
      <point x="623" y="160" type="curve" smooth="yes"/>
      <point x="419" y="160"/>
      <point x="343" y="292"/>
      <point x="343" y="497" type="curve"/>
      <point x="343" y="1358" type="line"/>
      <point x="121" y="1358" type="line"/>
      <point x="121" y="1358"/>
      <point x="117" y="698"/>
    </contour>
  </outline>
</glyph>
<glyph name="V" format="1">
  <advance width="1078"/>
  <unicode hex="0056"/>
  <outline>
    <contour>
      <point x="368" y="0" type="line"/>
      <point x="703" y="0" type="line"/>
      <point x="1108" y="1358" type="line"/>
      <point x="877" y="1358" type="line"/>
      <point x="599" y="390" type="line"/>
      <point x="537" y="135" type="line"/>
      <point x="476" y="390" type="line"/>
      <point x="203" y="1358" type="line"/>
      <point x="-30" y="1358" type="line"/>
    </contour>
    <contour>
      <point x="544" y="1713" type="move" name="top"/>
    </contour>
    <contour>
      <point x="544" y="-157" type="move" name="btm"/>
    </contour>
  </outline>
</glyph>
<glyph name="W" format="1">
  <advance width="1735"/>
  <unicode hex="0057"/>
  <outline>
    <contour>
      <point x="298" y="0" type="line"/>
      <point x="609" y="0" type="line"/>
      <point x="831" y="981" type="line"/>
      <point x="868" y="1232" type="line"/>
      <point x="904" y="981" type="line"/>
      <point x="1125" y="0" type="line"/>
      <point x="1435" y="0" type="line"/>
      <point x="1755" y="1358" type="line"/>
      <point x="1531" y="1358" type="line"/>
      <point x="1276" y="188" type="line"/>
      <point x="1014" y="1358" type="line"/>
      <point x="734" y="1358" type="line"/>
      <point x="468" y="192" type="line"/>
      <point x="214" y="1358" type="line"/>
      <point x="-20" y="1358" type="line"/>
    </contour>
    <contour>
      <point x="878" y="1713" type="move" name="top"/>
    </contour>
    <contour>
      <point x="878" y="-157" type="move" name="btm"/>
    </contour>
  </outline>
</glyph>
<glyph name="X" format="1">
  <advance width="1130"/>
  <unicode hex="0058"/>
  <outline>
    <contour>
      <point x="5" y="0" type="line"/>
      <point x="265" y="0" type="line"/>
      <point x="481" y="390" type="line"/>
      <point x="549" y="532" type="line"/>
      <point x="553" y="532" type="line"/>
      <point x="624" y="390" type="line"/>
      <point x="856" y="0" type="line"/>
      <point x="1125" y="0" type="line"/>
      <point x="685" y="673" type="line"/>
      <point x="1109" y="1358" type="line"/>
      <point x="845" y="1358" type="line"/>
      <point x="653" y="1020" type="line"/>
      <point x="562" y="832" type="line"/>
      <point x="555" y="832" type="line"/>
      <point x="465" y="1020" type="line"/>
      <point x="268" y="1358" type="line"/>
      <point x="11" y="1358" type="line"/>
      <point x="423" y="695" type="line"/>
    </contour>
    <contour>
      <point x="570" y="1713" type="move" name="top"/>
    </contour>
    <contour>
      <point x="570" y="-157" type="move" name="btm"/>
    </contour>
  </outline>
</glyph>
<glyph name="Y" format="1">
  <advance width="1001"/>
  <unicode hex="0059"/>
  <outline>
    <contour>
      <point x="388" y="0" type="line"/>
      <point x="615" y="0" type="line"/>
      <point x="615" y="510" type="line"/>
      <point x="1021" y="1358" type="line"/>
      <point x="777" y="1358" type="line"/>
      <point x="557" y="849" type="line"/>
      <point x="499" y="674" type="line"/>
      <point x="441" y="850" type="line"/>
      <point x="224" y="1358" type="line"/>
      <point x="-20" y="1358" type="line"/>
      <point x="388" y="510" type="line"/>
    </contour>
    <contour>
      <point x="505" y="1713" type="move" name="top"/>
    </contour>
    <contour>
      <point x="505" y="-157" type="move" name="btm"/>
    </contour>
  </outline>
</glyph>
<glyph name="Z" format="1">
  <advance width="1050"/>
  <unicode hex="005A"/>
  <outline>
    <contour>
      <point x="82" y="0" type="line"/>
      <point x="949" y="0" type="line"/>
      <point x="972" y="57"/>
      <point x="978" y="101"/>
      <point x="978" y="129" type="curve" smooth="yes"/>
      <point x="978" y="152"/>
      <point x="972" y="178"/>
      <point x="972" y="178" type="curve"/>
      <point x="972" y="178"/>
      <point x="584" y="178"/>
      <point x="261" y="177" type="curve"/>
      <point x="383" y="302" type="line"/>
      <point x="977" y="1196" type="line"/>
      <point x="957" y="1358" type="line"/>
      <point x="131" y="1358" type="line"/>
      <point x="131" y="1358"/>
      <point x="114" y="1320"/>
      <point x="114" y="1277" type="curve" smooth="yes"/>
      <point x="114" y="1256"/>
      <point x="118" y="1227"/>
      <point x="129" y="1183" type="curve"/>
      <point x="129" y="1183"/>
      <point x="424" y="1183"/>
      <point x="744" y="1184" type="curve"/>
      <point x="634" y="1058" type="line"/>
      <point x="42" y="163" type="line"/>
    </contour>
    <contour>
      <point x="540" y="1713" type="move" name="top"/>
    </contour>
    <contour>
      <point x="540" y="-157" type="move" name="btm"/>
    </contour>
  </outline>
</glyph>
<glyph name="bracketleft" format="1">
  <advance width="587"/>
  <unicode hex="005B"/>
  <outline>
    <contour>
      <point x="90" y="-331" type="line"/>
      <point x="537" y="-331" type="line"/>
      <point x="537" y="-196" type="line"/>
      <point x="294" y="-196" type="line"/>
      <point x="294" y="1403" type="line"/>
      <point x="537" y="1403" type="line"/>
      <point x="537" y="1538" type="line"/>
      <point x="90" y="1538" type="line"/>
    </contour>
  </outline>
</glyph>
<glyph name="backslash" format="1">
  <advance width="861"/>
  <unicode hex="005C"/>
  <outline>
    <contour>
      <point x="628" y="-232" type="line"/>
      <point x="628" y="-232"/>
      <point x="741" y="-212"/>
      <point x="808" y="-153" type="curve"/>
      <point x="528" y="547" type="line"/>
      <point x="228" y="1377" type="line"/>
      <point x="228" y="1377"/>
      <point x="103" y="1369"/>
      <point x="53" y="1309" type="curve"/>
      <point x="374" y="484" type="line"/>
    </contour>
  </outline>
</glyph>
<glyph name="asciicircum" format="1">
  <advance width="1196"/>
  <unicode hex="005E"/>
  <outline>
    <contour>
      <point x="124" y="220" type="line"/>
      <point x="295" y="142" type="line"/>
      <point x="580" y="1065" type="line"/>
      <point x="591" y="1117" type="line"/>
      <point x="601" y="1065" type="line"/>
      <point x="885" y="142" type="line"/>
      <point x="1056" y="220" type="line"/>
      <point x="671" y="1358" type="line"/>
      <point x="512" y="1358" type="line"/>
    </contour>
  </outline>
</glyph>
<glyph name="underscore" format="1">
  <advance width="1364"/>
  <unicode hex="005F"/>
  <outline>
    <contour>
      <point x="-9" y="-177" type="line"/>
      <point x="-9" y="-332" type="line"/>
      <point x="1373" y="-332" type="line"/>
      <point x="1373" y="-177" type="line"/>
    </contour>
  </outline>
</glyph>
<glyph name="grave" format="1">
  <advance width="551"/>
  <unicode hex="0060"/>
  <outline>
    <contour>
      <point x="199" y="1169" type="line"/>
      <point x="240" y="1185"/>
      <point x="291" y="1227"/>
      <point x="304" y="1259" type="curve"/>
      <point x="59" y="1605" type="line"/>
      <point x="10" y="1591"/>
      <point x="-99" y="1508"/>
      <point x="-118" y="1468" type="curve"/>
    </contour>
    <contour>
      <point x="129" y="1713" type="move" name="_top"/>
    </contour>
  </outline>
</glyph>
<glyph name="a" format="1">
  <advance width="992"/>
  <unicode hex="0061"/>
  <outline>
    <contour>
      <point x="64" y="292" type="curve" smooth="yes"/>
      <point x="64" y="107"/>
      <point x="195" y="-20"/>
      <point x="395" y="-20" type="curve" smooth="yes"/>
      <point x="522" y="-20"/>
      <point x="630" y="76"/>
      <point x="643" y="89" type="curve"/>
      <point x="679" y="89" type="line"/>
      <point x="756" y="0" type="line"/>
      <point x="941" y="0" type="line"/>
      <point x="941" y="63" type="line"/>
      <point x="857" y="165" type="line"/>
      <point x="857" y="723" type="line"/>
      <point x="857" y="947"/>
      <point x="774" y="1051"/>
      <point x="469" y="1051" type="curve" smooth="yes"/>
      <point x="285" y="1051"/>
      <point x="124" y="967"/>
      <point x="124" y="967" type="curve"/>
      <point x="124" y="967"/>
      <point x="133" y="888"/>
      <point x="191" y="806" type="curve"/>
      <point x="191" y="806"/>
      <point x="313" y="882"/>
      <point x="457" y="882" type="curve" smooth="yes"/>
      <point x="601" y="882"/>
      <point x="647" y="842"/>
      <point x="647" y="699" type="curve"/>
      <point x="647" y="619" type="line"/>
      <point x="424" y="607" type="line"/>
      <point x="196" y="594"/>
      <point x="64" y="514"/>
    </contour>
    <contour>
      <point x="282" y="310" type="curve" smooth="yes"/>
      <point x="282" y="398"/>
      <point x="321" y="464"/>
      <point x="446" y="471" type="curve"/>
      <point x="647" y="484" type="line"/>
      <point x="647" y="215" type="line"/>
      <point x="647" y="215"/>
      <point x="565" y="153"/>
      <point x="463" y="153" type="curve" smooth="yes"/>
      <point x="354" y="153"/>
      <point x="282" y="187"/>
    </contour>
    <contour>
      <point x="521" y="1713" type="move" name="top"/>
    </contour>
    <contour>
      <point x="403" y="-157" type="move" name="btm"/>
    </contour>
    <contour>
      <point x="956" y="-157" type="move" name="og"/>
    </contour>
  </outline>
</glyph>
<glyph name="b" format="1">
  <advance width="1089"/>
  <unicode hex="0062"/>
  <outline>
    <contour>
      <point x="669" y="1713" type="move" name="top"/>
    </contour>
    <contour>
      <point x="528" y="-157" type="move" name="btm"/>
    </contour>
    <contour>
      <point x="136" y="26" type="line"/>
      <point x="136" y="26"/>
      <point x="271" y="-20"/>
      <point x="512" y="-20" type="curve" smooth="yes"/>
      <point x="781" y="-20"/>
      <point x="1010" y="164"/>
      <point x="1010" y="531" type="curve" smooth="yes"/>
      <point x="1010" y="939"/>
      <point x="819" y="1051"/>
      <point x="615" y="1051" type="curve" smooth="yes"/>
      <point x="467" y="1051"/>
      <point x="374" y="979"/>
      <point x="354" y="962" type="curve"/>
      <point x="348" y="962" type="line"/>
      <point x="348" y="1439" type="line"/>
      <point x="136" y="1439" type="line"/>
    </contour>
    <contour>
      <point x="348" y="157" type="curve"/>
      <point x="348" y="833" type="line"/>
      <point x="348" y="833"/>
      <point x="434" y="888"/>
      <point x="506" y="888" type="curve" smooth="yes"/>
      <point x="679" y="888"/>
      <point x="785" y="814"/>
      <point x="785" y="531" type="curve" smooth="yes"/>
      <point x="785" y="279"/>
      <point x="673" y="135"/>
      <point x="467" y="135" type="curve" smooth="yes"/>
      <point x="406" y="135"/>
      <point x="366" y="149"/>
    </contour>
  </outline>
</glyph>
<glyph name="c" format="1">
  <advance width="858"/>
  <unicode hex="0063"/>
  <outline>
    <contour>
      <point x="79" y="513" type="curve" smooth="yes"/>
      <point x="79" y="160"/>
      <point x="257" y="-20"/>
      <point x="570" y="-20" type="curve" smooth="yes"/>
      <point x="683" y="-20"/>
      <point x="808" y="27"/>
      <point x="808" y="27" type="curve"/>
      <point x="810" y="117"/>
      <point x="773" y="191"/>
      <point x="773" y="191" type="curve"/>
      <point x="773" y="191"/>
      <point x="676" y="148"/>
      <point x="570" y="148" type="curve" smooth="yes"/>
      <point x="391" y="148"/>
      <point x="296" y="275"/>
      <point x="296" y="514" type="curve" smooth="yes"/>
      <point x="296" y="734"/>
      <point x="381" y="870"/>
      <point x="560" y="870" type="curve" smooth="yes"/>
      <point x="664" y="870"/>
      <point x="754" y="827"/>
      <point x="754" y="827" type="curve"/>
      <point x="792" y="905"/>
      <point x="801" y="1001"/>
      <point x="801" y="1001" type="curve"/>
      <point x="801" y="1001"/>
      <point x="673" y="1051"/>
      <point x="560" y="1051" type="curve" smooth="yes"/>
      <point x="254" y="1051"/>
      <point x="79" y="864"/>
    </contour>
    <contour>
      <point x="510" y="1713" type="move" name="top"/>
    </contour>
    <contour>
      <point x="599" y="-157" type="move" name="btm"/>
    </contour>
  </outline>
</glyph>
<glyph name="d" format="1">
  <advance width="1089"/>
  <unicode hex="0064"/>
  <outline>
    <contour>
      <point x="79" y="493" type="curve" smooth="yes"/>
      <point x="79" y="137"/>
      <point x="308" y="-20"/>
      <point x="506" y="-20" type="curve" smooth="yes"/>
      <point x="655" y="-20"/>
      <point x="726" y="67"/>
      <point x="738" y="79" type="curve"/>
      <point x="772" y="79" type="line"/>
      <point x="841" y="0" type="line"/>
      <point x="1041" y="0" type="line"/>
      <point x="1041" y="63" type="line"/>
      <point x="953" y="165" type="line"/>
      <point x="953" y="1439" type="line"/>
      <point x="740" y="1439" type="line"/>
      <point x="740" y="1027" type="line"/>
      <point x="740" y="1027"/>
      <point x="677" y="1051"/>
      <point x="577" y="1051" type="curve" smooth="yes"/>
      <point x="309" y="1051"/>
      <point x="79" y="874"/>
    </contour>
    <contour>
      <point x="303" y="493" type="curve" smooth="yes"/>
      <point x="303" y="756"/>
      <point x="423" y="898"/>
      <point x="631" y="898" type="curve" smooth="yes"/>
      <point x="691" y="898"/>
      <point x="723" y="884"/>
      <point x="740" y="874" type="curve"/>
      <point x="740" y="198" type="line"/>
      <point x="740" y="198"/>
      <point x="650" y="144"/>
      <point x="583" y="144" type="curve" smooth="yes"/>
      <point x="409" y="144"/>
      <point x="303" y="245"/>
    </contour>
    <contour>
      <point x="454" y="1713" type="move" name="top"/>
    </contour>
    <contour>
      <point x="502" y="-157" type="move" name="btm"/>
    </contour>
  </outline>
</glyph>
<glyph name="e" format="1">
  <advance width="1043"/>
  <unicode hex="0065"/>
  <outline>
    <contour>
      <point x="77" y="501" type="curve" smooth="yes"/>
      <point x="77" y="114"/>
      <point x="261" y="-20"/>
      <point x="580" y="-20" type="curve" smooth="yes"/>
      <point x="782" y="-20"/>
      <point x="892" y="40"/>
      <point x="892" y="40" type="curve"/>
      <point x="892" y="40"/>
      <point x="891" y="109"/>
      <point x="850" y="203" type="curve"/>
      <point x="850" y="203"/>
      <point x="748" y="148"/>
      <point x="580" y="148" type="curve" smooth="yes"/>
      <point x="383" y="148"/>
      <point x="293" y="211"/>
      <point x="290" y="449" type="curve"/>
      <point x="946" y="446" type="line"/>
      <point x="946" y="446"/>
      <point x="965" y="514"/>
      <point x="965" y="604" type="curve" smooth="yes"/>
      <point x="965" y="867"/>
      <point x="811" y="1050"/>
      <point x="553" y="1050" type="curve" smooth="yes"/>
      <point x="274" y="1050"/>
      <point x="77" y="886"/>
    </contour>
    <contour>
      <point x="293" y="595" type="line"/>
      <point x="293" y="804"/>
      <point x="380" y="889"/>
      <point x="549" y="889" type="curve" smooth="yes"/>
      <point x="665" y="889"/>
      <point x="751" y="798"/>
      <point x="751" y="629" type="curve"/>
      <point x="751" y="595" type="line"/>
    </contour>
    <contour>
      <point x="528" y="1713" type="move" name="top"/>
    </contour>
    <contour>
      <point x="577" y="-157" type="move" name="btm"/>
    </contour>
  </outline>
</glyph>
<glyph name="f" format="1">
  <advance width="696"/>
  <unicode hex="0066"/>
  <outline>
    <contour>
      <point x="206" y="0" type="line"/>
      <point x="416" y="0" type="line"/>
      <point x="416" y="867" type="line"/>
      <point x="617" y="867" type="line"/>
      <point x="641" y="916"/>
      <point x="646" y="955"/>
      <point x="646" y="982" type="curve" smooth="yes"/>
      <point x="646" y="1008"/>
      <point x="641" y="1022"/>
      <point x="641" y="1022" type="curve"/>
      <point x="416" y="1022" type="line"/>
      <point x="416" y="1126" type="line"/>
      <point x="416" y="1240"/>
      <point x="461" y="1287"/>
      <point x="551" y="1287" type="curve" smooth="yes"/>
      <point x="606" y="1287"/>
      <point x="659" y="1270"/>
      <point x="659" y="1270" type="curve"/>
      <point x="702" y="1351"/>
      <point x="706" y="1434"/>
      <point x="706" y="1434" type="curve"/>
      <point x="706" y="1434"/>
      <point x="646" y="1460"/>
      <point x="536" y="1460" type="curve" smooth="yes"/>
      <point x="307" y="1460"/>
      <point x="206" y="1301"/>
      <point x="206" y="1132" type="curve"/>
      <point x="206" y="1022" type="line"/>
      <point x="59" y="1022" type="line"/>
      <point x="59" y="1022"/>
      <point x="53" y="989"/>
      <point x="53" y="950" type="curve" smooth="yes"/>
      <point x="53" y="927"/>
      <point x="54" y="899"/>
      <point x="58" y="867" type="curve"/>
      <point x="206" y="867" type="line"/>
    </contour>
    <contour>
      <point x="289" y="2033" type="move" name="top"/>
    </contour>
    <contour>
      <point x="297" y="-157" type="move" name="btm"/>
    </contour>
  </outline>
</glyph>
<glyph name="g" format="1">
  <advance width="1107"/>
  <unicode hex="0067"/>
  <outline>
    <contour>
      <point x="213" y="18" type="line"/>
      <point x="213" y="18"/>
      <point x="94" y="-86"/>
      <point x="94" y="-198" type="curve" smooth="yes"/>
      <point x="94" y="-366"/>
      <point x="258" y="-493"/>
      <point x="535" y="-493" type="curve" smooth="yes"/>
      <point x="536" y="-493" type="line" smooth="yes"/>
      <point x="872" y="-493"/>
      <point x="1052" y="-317"/>
      <point x="1052" y="-114" type="curve" smooth="yes"/>
      <point x="1052" y="46"/>
      <point x="988" y="157"/>
      <point x="798" y="157" type="curve" smooth="yes"/>
      <point x="403" y="157" type="line" smooth="yes"/>
      <point x="370" y="157"/>
      <point x="330" y="172"/>
      <point x="330" y="201" type="curve" smooth="yes"/>
      <point x="330" y="339" type="line"/>
      <point x="380" y="327"/>
      <point x="459" y="319"/>
      <point x="514" y="319" type="curve"/>
      <point x="515" y="319" type="line"/>
      <point x="763" y="320"/>
      <point x="943" y="469"/>
      <point x="943" y="689" type="curve" smooth="yes"/>
      <point x="943" y="770"/>
      <point x="899" y="850"/>
      <point x="864" y="885" type="curve"/>
      <point x="1027" y="885" type="line"/>
      <point x="1027" y="1047" type="line"/>
      <point x="745" y="1017" type="line"/>
      <point x="745" y="1017"/>
      <point x="689" y="1049"/>
      <point x="515" y="1049" type="curve"/>
      <point x="514" y="1049" type="line"/>
      <point x="263" y="1049"/>
      <point x="103" y="913"/>
      <point x="103" y="689" type="curve" smooth="yes"/>
      <point x="103" y="566"/>
      <point x="145" y="481"/>
      <point x="208" y="418" type="curve"/>
      <point x="208" y="372" type="line"/>
      <point x="208" y="372"/>
      <point x="166" y="310"/>
      <point x="166" y="188" type="curve" smooth="yes"/>
      <point x="166" y="133"/>
      <point x="182" y="78"/>
      <point x="213" y="41" type="curve"/>
    </contour>
    <contour>
      <point x="514" y="468" type="line"/>
      <point x="351" y="468"/>
      <point x="309" y="539"/>
      <point x="309" y="689" type="curve" smooth="yes"/>
      <point x="309" y="840"/>
      <point x="353" y="900"/>
      <point x="514" y="900" type="curve"/>
      <point x="515" y="900" type="line"/>
      <point x="673" y="900"/>
      <point x="737" y="840"/>
      <point x="737" y="689" type="curve" smooth="yes"/>
      <point x="737" y="525"/>
      <point x="672" y="468"/>
      <point x="515" y="468" type="curve"/>
    </contour>
    <contour>
      <point x="290" y="-161" type="curve" smooth="yes"/>
      <point x="290" y="-90"/>
      <point x="317" y="-35"/>
      <point x="333" y="-18" type="curve"/>
      <point x="780" y="-18" type="line" smooth="yes"/>
      <point x="828" y="-18"/>
      <point x="853" y="-54"/>
      <point x="853" y="-116" type="curve" smooth="yes"/>
      <point x="853" y="-214"/>
      <point x="753" y="-324"/>
      <point x="541" y="-324" type="curve"/>
      <point x="540" y="-324" type="line"/>
      <point x="320" y="-324"/>
      <point x="290" y="-231"/>
    </contour>
    <contour>
      <point x="333" y="-18" type="move"/>
    </contour>
    <contour>
      <point x="533" y="1713" type="move" name="top"/>
    </contour>
    <contour>
      <point x="463" y="-157" type="move" name="btm"/>
    </contour>
  </outline>
</glyph>
<glyph name="h" format="1">
  <advance width="1127"/>
  <unicode hex="0068"/>
  <outline>
    <contour>
      <point x="639" y="1713" type="move" name="top"/>
    </contour>
    <contour>
      <point x="562" y="-157" type="move" name="btm"/>
    </contour>
    <contour>
      <point x="136" y="0" type="line"/>
      <point x="351" y="0" type="line"/>
      <point x="351" y="831" type="line"/>
      <point x="351" y="831"/>
      <point x="455" y="887"/>
      <point x="582" y="887" type="curve" smooth="yes"/>
      <point x="715" y="887"/>
      <point x="769" y="819"/>
      <point x="769" y="675" type="curve" smooth="yes"/>
      <point x="769" y="0" type="line"/>
      <point x="984" y="0" type="line"/>
      <point x="984" y="696" type="line" smooth="yes"/>
      <point x="984" y="911"/>
      <point x="862" y="1050"/>
      <point x="638" y="1050" type="curve" smooth="yes"/>
      <point x="496" y="1050"/>
      <point x="367" y="968"/>
      <point x="347" y="951" type="curve"/>
      <point x="341" y="951" type="line"/>
      <point x="351" y="1104" type="line"/>
      <point x="351" y="1440" type="line"/>
      <point x="136" y="1440" type="line"/>
    </contour>
  </outline>
</glyph>
<glyph name="i" format="1">
  <advance width="521"/>
  <unicode hex="0069"/>
  <outline>
    <contour>
      <point x="256" y="1195" type="curve" smooth="yes"/>
      <point x="331" y="1195"/>
      <point x="393" y="1251"/>
      <point x="393" y="1320" type="curve" smooth="yes"/>
      <point x="393" y="1391"/>
      <point x="331" y="1446"/>
      <point x="256" y="1446" type="curve" smooth="yes"/>
      <point x="182" y="1446"/>
      <point x="120" y="1391"/>
      <point x="120" y="1320" type="curve" smooth="yes"/>
      <point x="120" y="1251"/>
      <point x="182" y="1195"/>
    </contour>
    <contour>
      <point x="141" y="172" type="line" smooth="yes"/>
      <point x="141" y="49"/>
      <point x="217" y="0"/>
      <point x="349" y="0" type="curve"/>
      <point x="349" y="2" type="line"/>
      <point x="351" y="0" type="line"/>
      <point x="408" y="0" type="line"/>
      <point x="408" y="126" type="line"/>
      <point x="349" y="168" type="line"/>
      <point x="349" y="1022" type="line"/>
      <point x="141" y="1022" type="line"/>
    </contour>
    <contour>
      <point x="260" y="1713" type="move" name="top"/>
    </contour>
    <contour>
      <point x="260" y="-157" type="move" name="btm"/>
    </contour>
    <contour>
      <point x="338" y="-157" type="move" name="og"/>
    </contour>
  </outline>
</glyph>
<glyph name="j" format="1">
  <advance width="521"/>
  <unicode hex="006A"/>
  <outline>
    <contour>
      <point x="214" y="1713" type="move" name="top"/>
    </contour>
    <contour>
      <point x="214" y="-157" type="move" name="btm"/>
    </contour>
    <contour>
      <point x="158" y="-80" type="line" smooth="yes"/>
      <point x="158" y="-195"/>
      <point x="111" y="-258"/>
      <point x="23" y="-278" type="curve"/>
      <point x="23" y="-278"/>
      <point x="28" y="-331"/>
      <point x="77" y="-410" type="curve"/>
      <point x="292" y="-362"/>
      <point x="374" y="-265"/>
      <point x="374" y="-98" type="curve"/>
      <point x="374" y="1020" type="line"/>
      <point x="158" y="1020" type="line"/>
    </contour>
    <contour>
      <point x="270" y="1195" type="curve" smooth="yes"/>
      <point x="345" y="1195"/>
      <point x="408" y="1251"/>
      <point x="408" y="1320" type="curve" smooth="yes"/>
      <point x="408" y="1391"/>
      <point x="345" y="1446"/>
      <point x="270" y="1446" type="curve" smooth="yes"/>
      <point x="196" y="1446"/>
      <point x="135" y="1391"/>
      <point x="135" y="1320" type="curve" smooth="yes"/>
      <point x="135" y="1251"/>
      <point x="196" y="1195"/>
    </contour>
  </outline>
</glyph>
<glyph name="k" format="1">
  <advance width="985"/>
  <unicode hex="006B"/>
  <outline>
    <contour>
      <point x="561" y="1713" type="move" name="top"/>
    </contour>
    <contour>
      <point x="520" y="-157" type="move" name="btm"/>
    </contour>
    <contour>
      <point x="136" y="0" type="line"/>
      <point x="340" y="0" type="line"/>
      <point x="340" y="340" type="line"/>
      <point x="330" y="522" type="line"/>
      <point x="377" y="462" type="line"/>
      <point x="721" y="0" type="line"/>
      <point x="964" y="0" type="line"/>
      <point x="603" y="472" type="line"/>
      <point x="538" y="531" type="line"/>
      <point x="621" y="610" type="line"/>
      <point x="946" y="1022" type="line"/>
      <point x="704" y="1022" type="line"/>
      <point x="383" y="597" type="line"/>
      <point x="330" y="534" type="line"/>
      <point x="340" y="679" type="line"/>
      <point x="340" y="1440" type="line"/>
      <point x="136" y="1440" type="line"/>
    </contour>
  </outline>
</glyph>
<glyph name="l" format="1">
  <advance width="483"/>
  <unicode hex="006C"/>
  <outline>
    <contour>
      <point x="124" y="172" type="line" smooth="yes"/>
      <point x="124" y="49"/>
      <point x="199" y="0"/>
      <point x="331" y="0" type="curve"/>
      <point x="331" y="2" type="line"/>
      <point x="333" y="0" type="line"/>
      <point x="390" y="0" type="line"/>
      <point x="390" y="126" type="line"/>
      <point x="331" y="168" type="line"/>
      <point x="331" y="1439" type="line"/>
      <point x="124" y="1439" type="line"/>
    </contour>
    <contour>
      <point x="240" y="1713" type="move" name="top"/>
    </contour>
    <contour>
      <point x="240" y="-157" type="move" name="btm"/>
    </contour>
  </outline>
</glyph>
<glyph name="m" format="1">
  <advance width="1707"/>
  <unicode hex="006D"/>
  <outline>
    <contour>
      <point x="152" y="839" type="line"/>
      <point x="152" y="0" type="line"/>
      <point x="366" y="0" type="line"/>
      <point x="366" y="833" type="line"/>
      <point x="366" y="833"/>
      <point x="462" y="888"/>
      <point x="584" y="888" type="curve" smooth="yes"/>
      <point x="714" y="888"/>
      <point x="761" y="826"/>
      <point x="761" y="696" type="curve"/>
      <point x="761" y="0" type="line"/>
      <point x="976" y="0" type="line"/>
      <point x="976" y="717" type="line"/>
      <point x="976" y="766"/>
      <point x="964" y="816"/>
      <point x="946" y="858" type="curve"/>
      <point x="979" y="873"/>
      <point x="1055" y="888"/>
      <point x="1133" y="888" type="curve" smooth="yes"/>
      <point x="1266" y="888"/>
      <point x="1349" y="820"/>
      <point x="1349" y="676" type="curve"/>
      <point x="1349" y="0" type="line"/>
      <point x="1564" y="0" type="line"/>
      <point x="1564" y="697" type="line"/>
      <point x="1564" y="912"/>
      <point x="1412" y="1051"/>
      <point x="1187" y="1051" type="curve" smooth="yes"/>
      <point x="1058" y="1051"/>
      <point x="930" y="986"/>
      <point x="886" y="950" type="curve"/>
      <point x="829" y="1015"/>
      <point x="757" y="1051"/>
      <point x="639" y="1051" type="curve" smooth="yes"/>
      <point x="510" y="1051"/>
      <point x="383" y="975"/>
      <point x="370" y="962" type="curve"/>
      <point x="343" y="946" type="line"/>
      <point x="257" y="1033" type="line"/>
      <point x="73" y="1033" type="line"/>
      <point x="73" y="920" type="line"/>
    </contour>
    <contour>
      <point x="887" y="1713" type="move" name="top"/>
    </contour>
    <contour>
      <point x="844" y="-157" type="move" name="btm"/>
    </contour>
  </outline>
</glyph>
<glyph name="n" format="1">
  <advance width="1148"/>
  <unicode hex="006E"/>
  <outline>
    <contour>
      <point x="152" y="0" type="line"/>
      <point x="366" y="0" type="line"/>
      <point x="366" y="831" type="line"/>
      <point x="366" y="831"/>
      <point x="471" y="887"/>
      <point x="600" y="887" type="curve" smooth="yes"/>
      <point x="731" y="887"/>
      <point x="790" y="819"/>
      <point x="790" y="675" type="curve"/>
      <point x="790" y="0" type="line"/>
      <point x="1005" y="0" type="line"/>
      <point x="1005" y="696" type="line"/>
      <point x="1005" y="911"/>
      <point x="879" y="1050"/>
      <point x="654" y="1050" type="curve" smooth="yes"/>
      <point x="512" y="1050"/>
      <point x="392" y="978"/>
      <point x="372" y="961" type="curve"/>
      <point x="343" y="955" type="line"/>
      <point x="257" y="1033" type="line"/>
      <point x="73" y="1033" type="line"/>
      <point x="73" y="920" type="line"/>
      <point x="152" y="839" type="line"/>
    </contour>
    <contour>
      <point x="624" y="1713" type="move" name="top"/>
    </contour>
    <contour>
      <point x="600" y="-157" type="move" name="btm"/>
    </contour>
  </outline>
</glyph>
<glyph name="o" format="1">
  <advance width="1118"/>
  <unicode hex="006F"/>
  <outline>
    <contour>
      <point x="567" y="1713" type="move" name="top"/>
    </contour>
    <contour>
      <point x="567" y="-157" type="move" name="btm"/>
    </contour>
    <contour>
      <point x="76" y="511" type="curve" smooth="yes"/>
      <point x="76" y="159"/>
      <point x="259" y="-20"/>
      <point x="563" y="-20" type="curve" smooth="yes"/>
      <point x="856" y="-20"/>
      <point x="1042" y="172"/>
      <point x="1042" y="525" type="curve" smooth="yes"/>
      <point x="1042" y="877"/>
      <point x="860" y="1051"/>
      <point x="563" y="1051" type="curve" smooth="yes"/>
      <point x="276" y="1051"/>
      <point x="76" y="863"/>
    </contour>
    <contour>
      <point x="563" y="145" type="curve" smooth="yes"/>
      <point x="385" y="145"/>
      <point x="300" y="271"/>
      <point x="300" y="511" type="curve" smooth="yes"/>
      <point x="300" y="731"/>
      <point x="385" y="892"/>
      <point x="563" y="892" type="curve" smooth="yes"/>
      <point x="740" y="892"/>
      <point x="818" y="764"/>
      <point x="818" y="525" type="curve" smooth="yes"/>
      <point x="818" y="304"/>
      <point x="740" y="145"/>
    </contour>
  </outline>
</glyph>
<glyph name="p" format="1">
  <advance width="1089"/>
  <unicode hex="0070"/>
  <outline>
    <contour>
      <point x="347" y="-6" type="line"/>
      <point x="347" y="-6"/>
      <point x="442" y="-20"/>
      <point x="512" y="-20" type="curve" smooth="yes"/>
      <point x="779" y="-20"/>
      <point x="1010" y="178"/>
      <point x="1010" y="531" type="curve" smooth="yes"/>
      <point x="1010" y="939"/>
      <point x="818" y="1051"/>
      <point x="620" y="1051" type="curve" smooth="yes"/>
      <point x="465" y="1051"/>
      <point x="369" y="978"/>
      <point x="353" y="962" type="curve"/>
      <point x="316" y="964" type="line"/>
      <point x="237" y="1033" type="line"/>
      <point x="54" y="1033" type="line"/>
      <point x="54" y="970" type="line"/>
      <point x="133" y="889" type="line"/>
      <point x="133" y="-405" type="line"/>
      <point x="347" y="-405" type="line"/>
    </contour>
    <contour>
      <point x="347" y="148" type="curve"/>
      <point x="347" y="833" type="line"/>
      <point x="347" y="833"/>
      <point x="433" y="888"/>
      <point x="506" y="888" type="curve" smooth="yes"/>
      <point x="678" y="888"/>
      <point x="786" y="827"/>
      <point x="786" y="531" type="curve" smooth="yes"/>
      <point x="786" y="292"/>
      <point x="657" y="135"/>
      <point x="457" y="135" type="curve" smooth="yes"/>
      <point x="410" y="135"/>
      <point x="369" y="142"/>
    </contour>
    <contour>
      <point x="621" y="1713" type="move" name="top"/>
    </contour>
    <contour>
      <point x="621" y="-157" type="move" name="btm"/>
    </contour>
  </outline>
</glyph>
<glyph name="q" format="1">
  <advance width="1099"/>
  <unicode hex="0071"/>
  <outline>
    <contour>
      <point x="447" y="1713" type="move" name="top"/>
    </contour>
    <contour>
      <point x="510" y="-157" type="move" name="btm"/>
    </contour>
    <contour>
      <point x="79" y="497" type="curve" smooth="yes"/>
      <point x="79" y="126"/>
      <point x="280" y="-20"/>
      <point x="517" y="-20" type="curve" smooth="yes"/>
      <point x="642" y="-20"/>
      <point x="724" y="58"/>
      <point x="736" y="69" type="curve"/>
      <point x="741" y="69" type="line"/>
      <point x="741" y="-405" type="line"/>
      <point x="956" y="-405" type="line"/>
      <point x="956" y="1008" type="line"/>
      <point x="826" y="1037"/>
      <point x="732" y="1051"/>
      <point x="608" y="1051" type="curve" smooth="yes"/>
      <point x="319" y="1051"/>
      <point x="79" y="864"/>
    </contour>
    <contour>
      <point x="304" y="515" type="curve" smooth="yes"/>
      <point x="304" y="758"/>
      <point x="432" y="898"/>
      <point x="622" y="898" type="curve" smooth="yes"/>
      <point x="691" y="898"/>
      <point x="727" y="877"/>
      <point x="741" y="868" type="curve"/>
      <point x="741" y="198" type="line"/>
      <point x="741" y="198"/>
      <point x="650" y="144"/>
      <point x="583" y="144" type="curve" smooth="yes"/>
      <point x="410" y="144"/>
      <point x="304" y="252"/>
    </contour>
  </outline>
</glyph>
<glyph name="r" format="1">
  <advance width="702"/>
  <unicode hex="0072"/>
  <outline>
    <contour>
      <point x="80" y="1033" type="line"/>
      <point x="80" y="920" type="line"/>
      <point x="159" y="839" type="line"/>
      <point x="159" y="0" type="line"/>
      <point x="373" y="0" type="line"/>
      <point x="373" y="800" type="line"/>
      <point x="373" y="800"/>
      <point x="411" y="833"/>
      <point x="516" y="833" type="curve" smooth="yes"/>
      <point x="551" y="833"/>
      <point x="584" y="822"/>
      <point x="611" y="809" type="curve"/>
      <point x="630" y="814" type="line"/>
      <point x="665" y="858"/>
      <point x="673" y="936"/>
      <point x="673" y="978" type="curve" smooth="yes"/>
      <point x="673" y="1006"/>
      <point x="670" y="1026"/>
      <point x="669" y="1029" type="curve"/>
      <point x="627" y="1043"/>
      <point x="593" y="1049"/>
      <point x="554" y="1049" type="curve" smooth="yes"/>
      <point x="460" y="1049"/>
      <point x="397" y="991"/>
      <point x="367" y="925" type="curve"/>
      <point x="264" y="1033" type="line"/>
    </contour>
    <contour>
      <point x="371" y="1713" type="move" name="top"/>
    </contour>
    <contour>
      <point x="257" y="-157" type="move" name="btm"/>
    </contour>
  </outline>
</glyph>
<glyph name="s" format="1">
  <advance width="911"/>
  <unicode hex="0073"/>
  <outline>
    <contour>
      <point x="86" y="46" type="curve"/>
      <point x="86" y="46"/>
      <point x="216" y="-20"/>
      <point x="401" y="-20" type="curve" smooth="yes"/>
      <point x="691" y="-20"/>
      <point x="808" y="107"/>
      <point x="808" y="301" type="curve" smooth="yes"/>
      <point x="808" y="482"/>
      <point x="734" y="560"/>
      <point x="489" y="614" type="curve" smooth="yes"/>
      <point x="333" y="649"/>
      <point x="307" y="684"/>
      <point x="307" y="749" type="curve" smooth="yes"/>
      <point x="307" y="880"/>
      <point x="387" y="891"/>
      <point x="499" y="891" type="curve" smooth="yes"/>
      <point x="641" y="891"/>
      <point x="729" y="835"/>
      <point x="729" y="835" type="curve"/>
      <point x="779" y="914"/>
      <point x="789" y="990"/>
      <point x="789" y="990" type="curve"/>
      <point x="789" y="990"/>
      <point x="689" y="1050"/>
      <point x="504" y="1050" type="curve" smooth="yes"/>
      <point x="240" y="1050"/>
      <point x="95" y="967"/>
      <point x="95" y="742" type="curve" smooth="yes"/>
      <point x="95" y="592"/>
      <point x="182" y="480"/>
      <point x="429" y="431" type="curve" smooth="yes"/>
      <point x="549" y="408"/>
      <point x="592" y="366"/>
      <point x="592" y="287" type="curve" smooth="yes"/>
      <point x="592" y="157"/>
      <point x="507" y="150"/>
      <point x="395" y="150" type="curve" smooth="yes"/>
      <point x="272" y="150"/>
      <point x="119" y="210"/>
      <point x="119" y="210" type="curve"/>
      <point x="85" y="126"/>
      <point x="86" y="46"/>
    </contour>
    <contour>
      <point x="448" y="1713" type="move" name="top"/>
    </contour>
    <contour>
      <point x="478" y="-157" type="move" name="btm"/>
    </contour>
  </outline>
</glyph>
<glyph name="t" format="1">
  <advance width="743"/>
  <unicode hex="0074"/>
  <outline>
    <contour>
      <point x="308" y="1924" type="move" name="top"/>
    </contour>
    <contour>
      <point x="410" y="-157" type="move" name="btm"/>
    </contour>
    <contour>
      <point x="182" y="286" type="line" smooth="yes"/>
      <point x="182" y="85"/>
      <point x="251" y="-20"/>
      <point x="458" y="-20" type="curve" smooth="yes"/>
      <point x="606" y="-20"/>
      <point x="694" y="48"/>
      <point x="694" y="48" type="curve"/>
      <point x="694" y="48"/>
      <point x="694" y="117"/>
      <point x="639" y="187" type="curve"/>
      <point x="639" y="187"/>
      <point x="549" y="148"/>
      <point x="489" y="148" type="curve" smooth="yes"/>
      <point x="418" y="148"/>
      <point x="386" y="190"/>
      <point x="386" y="287" type="curve" smooth="yes"/>
      <point x="386" y="867" type="line"/>
      <point x="646" y="867" type="line"/>
      <point x="646" y="867"/>
      <point x="674" y="910"/>
      <point x="674" y="971" type="curve" smooth="yes"/>
      <point x="674" y="988"/>
      <point x="672" y="1009"/>
      <point x="669" y="1022" type="curve"/>
      <point x="386" y="1022" type="line"/>
      <point x="386" y="1311" type="line"/>
      <point x="297" y="1311" type="line"/>
      <point x="182" y="1181" type="line"/>
      <point x="182" y="1022" type="line"/>
      <point x="51" y="1022" type="line"/>
      <point x="48" y="991"/>
      <point x="47" y="974"/>
      <point x="47" y="950" type="curve" smooth="yes"/>
      <point x="47" y="903"/>
      <point x="51" y="867"/>
      <point x="51" y="867" type="curve"/>
      <point x="182" y="867" type="line"/>
    </contour>
  </outline>
</glyph>
<glyph name="u" format="1">
  <advance width="1096"/>
  <unicode hex="0075"/>
  <outline>
    <contour>
      <point x="563" y="1713" type="move" name="top"/>
    </contour>
    <contour>
      <point x="613" y="-157" type="move" name="btm"/>
    </contour>
    <contour>
      <point x="1061" y="-157" type="move" name="og"/>
    </contour>
    <contour>
      <point x="112" y="335" type="line"/>
      <point x="112" y="120"/>
      <point x="228" y="-20"/>
      <point x="453" y="-20" type="curve" smooth="yes"/>
      <point x="595" y="-20"/>
      <point x="697" y="63"/>
      <point x="717" y="79" type="curve"/>
      <point x="755" y="79" type="line"/>
      <point x="834" y="0" type="line"/>
      <point x="1027" y="0" type="line"/>
      <point x="1027" y="63" type="line"/>
      <point x="938" y="165" type="line"/>
      <point x="938" y="1022" type="line"/>
      <point x="723" y="1022" type="line"/>
      <point x="723" y="199" type="line"/>
      <point x="723" y="199"/>
      <point x="636" y="144"/>
      <point x="509" y="144" type="curve" smooth="yes"/>
      <point x="377" y="144"/>
      <point x="326" y="212"/>
      <point x="326" y="354" type="curve"/>
      <point x="326" y="1022" type="line"/>
      <point x="112" y="1022" type="line"/>
    </contour>
  </outline>
</glyph>
<glyph name="v" format="1">
  <advance width="981"/>
  <unicode hex="0076"/>
  <outline>
    <contour>
      <point x="497" y="1713" type="move" name="top"/>
    </contour>
    <contour>
      <point x="497" y="-157" type="move" name="btm"/>
    </contour>
    <contour>
      <point x="335" y="0" type="line"/>
      <point x="649" y="0" type="line"/>
      <point x="953" y="1022" type="line"/>
      <point x="741" y="1022" type="line"/>
      <point x="521" y="211" type="line"/>
      <point x="496" y="99" type="line"/>
      <point x="470" y="211" type="line"/>
      <point x="243" y="1022" type="line"/>
      <point x="28" y="1022" type="line"/>
    </contour>
  </outline>
</glyph>
<glyph name="w" format="1">
  <advance width="1541"/>
  <unicode hex="0077"/>
  <outline>
    <contour>
      <point x="284" y="0" type="line"/>
      <point x="595" y="0" type="line"/>
      <point x="744" y="730" type="line"/>
      <point x="769" y="878" type="line"/>
      <point x="796" y="730" type="line"/>
      <point x="960" y="0" type="line"/>
      <point x="1265" y="0" type="line"/>
      <point x="1523" y="1022" type="line"/>
      <point x="1315" y="1022" type="line"/>
      <point x="1137" y="233" type="line"/>
      <point x="1115" y="105" type="line"/>
      <point x="1091" y="233" type="line"/>
      <point x="908" y="1022" type="line"/>
      <point x="637" y="1022" type="line"/>
      <point x="463" y="232" type="line"/>
      <point x="443" y="105" type="line"/>
      <point x="420" y="233" type="line"/>
      <point x="232" y="1022" type="line"/>
      <point x="17" y="1022" type="line"/>
    </contour>
    <contour>
      <point x="779" y="1713" type="move" name="top"/>
    </contour>
    <contour>
      <point x="779" y="-157" type="move" name="btm"/>
    </contour>
  </outline>
</glyph>
<glyph name="x" format="1">
  <advance width="1000"/>
  <unicode hex="0078"/>
  <outline>
    <contour>
      <point x="512" y="1713" type="move" name="top"/>
    </contour>
    <contour>
      <point x="512" y="-157" type="move" name="btm"/>
    </contour>
    <contour>
      <point x="40" y="0" type="line"/>
      <point x="265" y="0" type="line"/>
      <point x="467" y="334" type="line"/>
      <point x="484" y="403" type="line"/>
      <point x="521" y="334" type="line"/>
      <point x="730" y="0" type="line"/>
      <point x="959" y="0" type="line"/>
      <point x="624" y="507" type="line"/>
      <point x="965" y="1022" type="line"/>
      <point x="738" y="1022" type="line"/>
      <point x="670" y="919"/>
      <point x="608" y="805"/>
      <point x="539" y="702" type="curve"/>
      <point x="521" y="630" type="line"/>
      <point x="482" y="702" type="line"/>
      <point x="284" y="1022" type="line"/>
      <point x="55" y="1022" type="line"/>
      <point x="165" y="867"/>
      <point x="273" y="680"/>
      <point x="383" y="524" type="curve"/>
    </contour>
  </outline>
</glyph>
<glyph name="y" format="1">
  <advance width="978"/>
  <unicode hex="0079"/>
  <outline>
    <contour>
      <point x="494" y="1713" type="move" name="top"/>
    </contour>
    <contour>
      <point x="494" y="-157" type="move" name="btm"/>
    </contour>
    <contour>
      <point x="332" y="0" type="line"/>
      <point x="460" y="0" type="line"/>
      <point x="293" y="-466" type="line"/>
      <point x="510" y="-466" type="line"/>
      <point x="965" y="1022" type="line"/>
      <point x="733" y="1022" type="line"/>
      <point x="532" y="275" type="line"/>
      <point x="488" y="75" type="line"/>
      <point x="445" y="275" type="line"/>
      <point x="250" y="1022" type="line"/>
      <point x="25" y="1022" type="line"/>
    </contour>
  </outline>
</glyph>
<glyph name="z" format="1">
  <advance width="884"/>
  <unicode hex="007A"/>
  <outline>
    <contour>
      <point x="452" y="1713" type="move" name="top"/>
    </contour>
    <contour>
      <point x="429" y="-157" type="move" name="btm"/>
    </contour>
    <contour>
      <point x="76" y="0" type="line"/>
      <point x="809" y="0" type="line"/>
      <point x="830" y="49"/>
      <point x="834" y="88"/>
      <point x="834" y="116" type="curve" smooth="yes"/>
      <point x="834" y="135"/>
      <point x="831" y="163"/>
      <point x="831" y="163" type="curve"/>
      <point x="289" y="163" type="line"/>
      <point x="440" y="335" type="line"/>
      <point x="822" y="878" type="line"/>
      <point x="812" y="1023" type="line"/>
      <point x="124" y="1023" type="line"/>
      <point x="124" y="1023"/>
      <point x="113" y="1003"/>
      <point x="113" y="959" type="curve" smooth="yes"/>
      <point x="113" y="921"/>
      <point x="121" y="894"/>
      <point x="130" y="859" type="curve"/>
      <point x="597" y="860" type="line"/>
      <point x="452" y="714" type="line"/>
      <point x="66" y="138" type="line"/>
    </contour>
  </outline>
</glyph>
<glyph name="braceleft" format="1">
  <advance width="627"/>
  <unicode hex="007B"/>
  <outline>
    <contour>
      <point x="192" y="127" type="curve" smooth="yes"/>
      <point x="192" y="-120"/>
      <point x="341" y="-246"/>
      <point x="549" y="-270" type="curve"/>
      <point x="549" y="-270"/>
      <point x="605" y="-226"/>
      <point x="606" y="-146" type="curve"/>
      <point x="480" y="-124"/>
      <point x="397" y="-49"/>
      <point x="397" y="109" type="curve" smooth="yes"/>
      <point x="397" y="159"/>
      <point x="404" y="208"/>
      <point x="411" y="256" type="curve" smooth="yes"/>
      <point x="418" y="303"/>
      <point x="424" y="350"/>
      <point x="424" y="399" type="curve" smooth="yes"/>
      <point x="424" y="558"/>
      <point x="357" y="619"/>
      <point x="285" y="657" type="curve"/>
      <point x="277" y="684" type="line"/>
      <point x="317" y="699"/>
      <point x="423" y="731"/>
      <point x="423" y="943" type="curve" smooth="yes"/>
      <point x="423" y="998"/>
      <point x="416" y="1044"/>
      <point x="409" y="1089" type="curve" smooth="yes"/>
      <point x="402" y="1131"/>
      <point x="396" y="1172"/>
      <point x="396" y="1211" type="curve" smooth="yes"/>
      <point x="396" y="1363"/>
      <point x="479" y="1435"/>
      <point x="607" y="1456" type="curve"/>
      <point x="600" y="1541"/>
      <point x="550" y="1583"/>
      <point x="550" y="1583" type="curve"/>
      <point x="341" y="1559"/>
      <point x="193" y="1435"/>
      <point x="193" y="1197" type="curve" smooth="yes"/>
      <point x="193" y="1141"/>
      <point x="202" y="1087"/>
      <point x="212" y="1038" type="curve" smooth="yes"/>
      <point x="221" y="989"/>
      <point x="230" y="938"/>
      <point x="230" y="890" type="curve" smooth="yes"/>
      <point x="230" y="753"/>
      <point x="158" y="746"/>
      <point x="90" y="746" type="curve"/>
      <point x="67" y="736" type="line"/>
      <point x="67" y="736"/>
      <point x="60" y="703"/>
      <point x="60" y="667" type="curve" smooth="yes"/>
      <point x="60" y="648"/>
      <point x="63" y="624"/>
      <point x="69" y="596" type="curve"/>
      <point x="148" y="596"/>
      <point x="231" y="590"/>
      <point x="231" y="439" type="curve" smooth="yes"/>
      <point x="231" y="385"/>
      <point x="222" y="333"/>
      <point x="212" y="281" type="curve" smooth="yes"/>
      <point x="202" y="230"/>
      <point x="192" y="179"/>
    </contour>
  </outline>
</glyph>
<glyph name="bar" format="1">
  <advance width="518"/>
  <unicode hex="007C"/>
  <outline>
    <contour>
      <point x="152" y="-166" type="line"/>
      <point x="366" y="-166" type="line"/>
      <point x="366" y="1517" type="line"/>
      <point x="152" y="1517" type="line"/>
    </contour>
  </outline>
</glyph>
<glyph name="asciitilde" format="1">
  <advance width="1196"/>
  <unicode hex="007E"/>
  <outline>
    <contour>
      <point x="230" y="452" type="curve"/>
      <point x="230" y="452"/>
      <point x="293" y="602"/>
      <point x="397" y="602" type="curve" smooth="yes"/>
      <point x="447" y="602"/>
      <point x="492" y="571"/>
      <point x="542" y="529" type="curve" smooth="yes"/>
      <point x="595" y="485"/>
      <point x="672" y="418"/>
      <point x="781" y="418" type="curve" smooth="yes"/>
      <point x="1007" y="418"/>
      <point x="1085" y="654"/>
      <point x="1085" y="654" type="curve"/>
      <point x="1085" y="654"/>
      <point x="1049" y="711"/>
      <point x="947" y="752" type="curve"/>
      <point x="947" y="752"/>
      <point x="894" y="602"/>
      <point x="789" y="602" type="curve" smooth="yes"/>
      <point x="745" y="602"/>
      <point x="704" y="641"/>
      <point x="653" y="681" type="curve" smooth="yes"/>
      <point x="596" y="726"/>
      <point x="521" y="796"/>
      <point x="410" y="796" type="curve" smooth="yes"/>
      <point x="183" y="796"/>
      <point x="95" y="549"/>
      <point x="95" y="549" type="curve"/>
      <point x="95" y="549"/>
      <point x="138" y="491"/>
    </contour>
  </outline>
</glyph>
<glyph name="cent" format="1">
  <advance width="970"/>
  <unicode hex="00A2"/>
  <outline>
    <contour>
      <point x="90" y="513" type="curve" smooth="yes"/>
      <point x="90" y="206"/>
      <point x="209" y="30"/>
      <point x="446" y="-10" type="curve"/>
      <point x="446" y="-192" type="line"/>
      <point x="485" y="-206"/>
      <point x="518" y="-210"/>
      <point x="543" y="-210" type="curve" smooth="yes"/>
      <point x="584" y="-210"/>
      <point x="630" y="-196"/>
      <point x="630" y="-196" type="curve"/>
      <point x="630" y="-16" type="line"/>
      <point x="737" y="-4"/>
      <point x="847" y="27"/>
      <point x="847" y="27" type="curve"/>
      <point x="849" y="117"/>
      <point x="812" y="191"/>
      <point x="812" y="191" type="curve"/>
      <point x="812" y="191"/>
      <point x="677" y="148"/>
      <point x="561" y="148" type="curve" smooth="yes"/>
      <point x="382" y="148"/>
      <point x="314" y="274"/>
      <point x="314" y="513" type="curve" smooth="yes"/>
      <point x="314" y="733"/>
      <point x="382" y="902"/>
      <point x="561" y="902" type="curve" smooth="yes"/>
      <point x="676" y="902"/>
      <point x="795" y="859"/>
      <point x="795" y="859" type="curve"/>
      <point x="833" y="937"/>
      <point x="842" y="1013"/>
      <point x="842" y="1013" type="curve"/>
      <point x="842" y="1013"/>
      <point x="743" y="1044"/>
      <point x="641" y="1057" type="curve"/>
      <point x="641" y="1236" type="line"/>
      <point x="606" y="1252"/>
      <point x="575" y="1257"/>
      <point x="550" y="1257" type="curve" smooth="yes"/>
      <point x="504" y="1257"/>
      <point x="457" y="1240"/>
      <point x="457" y="1240" type="curve"/>
      <point x="457" y="1054" type="line"/>
      <point x="218" y="1013"/>
      <point x="90" y="822"/>
    </contour>
  </outline>
</glyph>
<glyph name="sterling" format="1">
  <advance width="1058"/>
  <unicode hex="00A3"/>
  <outline>
    <contour>
      <point x="70" y="611" type="curve"/>
      <point x="247" y="611" type="line"/>
      <point x="249" y="593"/>
      <point x="250" y="576"/>
      <point x="250" y="559" type="curve" smooth="yes"/>
      <point x="250" y="326"/>
      <point x="104" y="72"/>
      <point x="104" y="72" type="curve"/>
      <point x="117" y="44"/>
      <point x="171" y="-4"/>
      <point x="231" y="-20" type="curve"/>
      <point x="295" y="19"/>
      <point x="367" y="47"/>
      <point x="434" y="47" type="curve" smooth="yes"/>
      <point x="481" y="47"/>
      <point x="531" y="31"/>
      <point x="574" y="18" type="curve"/>
      <point x="628" y="0"/>
      <point x="690" y="-20"/>
      <point x="769" y="-20" type="curve" smooth="yes"/>
      <point x="986" y="-20"/>
      <point x="1074" y="198"/>
      <point x="1074" y="198" type="curve"/>
      <point x="1074" y="198"/>
      <point x="1042" y="253"/>
      <point x="940" y="293" type="curve"/>
      <point x="940" y="293"/>
      <point x="836" y="174"/>
      <point x="766" y="174" type="curve" smooth="yes"/>
      <point x="711" y="174"/>
      <point x="668" y="191"/>
      <point x="625" y="207" type="curve"/>
      <point x="626" y="207" type="line"/>
      <point x="581" y="224"/>
      <point x="569" y="220"/>
      <point x="508" y="220" type="curve" smooth="yes"/>
      <point x="431" y="220"/>
      <point x="364" y="188"/>
      <point x="334" y="170" type="curve"/>
      <point x="333" y="170" type="line"/>
      <point x="361" y="205"/>
      <point x="465" y="369"/>
      <point x="465" y="592" type="curve" smooth="yes"/>
      <point x="465" y="611" type="line"/>
      <point x="750" y="611" type="line"/>
      <point x="750" y="611"/>
      <point x="762" y="653"/>
      <point x="762" y="694" type="curve" smooth="yes"/>
      <point x="762" y="714"/>
      <point x="759" y="741"/>
      <point x="750" y="776" type="curve"/>
      <point x="446" y="776" type="line"/>
      <point x="434" y="852"/>
      <point x="423" y="937"/>
      <point x="423" y="1042" type="curve" smooth="yes"/>
      <point x="423" y="1171"/>
      <point x="498" y="1247"/>
      <point x="637" y="1247" type="curve" smooth="yes"/>
      <point x="721" y="1247"/>
      <point x="776" y="1226"/>
      <point x="836" y="1182" type="curve"/>
      <point x="864" y="1183" type="line"/>
      <point x="932" y="1236"/>
      <point x="947" y="1304"/>
      <point x="947" y="1304" type="curve"/>
      <point x="947" y="1304"/>
      <point x="844" y="1410"/>
      <point x="648" y="1410" type="curve" smooth="yes"/>
      <point x="344" y="1410"/>
      <point x="198" y="1233"/>
      <point x="198" y="1048" type="curve" smooth="yes"/>
      <point x="198" y="937"/>
      <point x="209" y="851"/>
      <point x="222" y="776" type="curve"/>
      <point x="70" y="776" type="line"/>
      <point x="70" y="776"/>
      <point x="56" y="735"/>
      <point x="56" y="693" type="curve" smooth="yes"/>
      <point x="56" y="673"/>
      <point x="59" y="648"/>
    </contour>
  </outline>
</glyph>
<glyph name="currency" format="1">
  <advance width="1314"/>
  <unicode hex="00A4"/>
  <outline>
    <contour>
      <point x="94" y="216" type="line"/>
      <point x="129" y="142"/>
      <point x="219" y="95"/>
      <point x="219" y="95" type="curve"/>
      <point x="386" y="265" type="line"/>
      <point x="460" y="227"/>
      <point x="553" y="209"/>
      <point x="661" y="209" type="curve" smooth="yes"/>
      <point x="765" y="209"/>
      <point x="856" y="228"/>
      <point x="929" y="268" type="curve"/>
      <point x="1093" y="102" type="line"/>
      <point x="1185" y="135"/>
      <point x="1224" y="216"/>
      <point x="1224" y="216" type="curve"/>
      <point x="1056" y="382" type="line"/>
      <point x="1108" y="457"/>
      <point x="1136" y="558"/>
      <point x="1136" y="684" type="curve" smooth="yes"/>
      <point x="1136" y="796"/>
      <point x="1114" y="884"/>
      <point x="1072" y="951" type="curve"/>
      <point x="1223" y="1100" type="line"/>
      <point x="1198" y="1170"/>
      <point x="1097" y="1219"/>
      <point x="1097" y="1219" type="curve"/>
      <point x="948" y="1068" type="line"/>
      <point x="872" y="1110"/>
      <point x="775" y="1129"/>
      <point x="661" y="1129" type="curve" smooth="yes"/>
      <point x="550" y="1129"/>
      <point x="453" y="1108"/>
      <point x="375" y="1063" type="curve"/>
      <point x="221" y="1220" type="line"/>
      <point x="127" y="1175"/>
      <point x="90" y="1105"/>
      <point x="90" y="1105" type="curve"/>
      <point x="251" y="946" type="line"/>
      <point x="205" y="876"/>
      <point x="180" y="784"/>
      <point x="180" y="670" type="curve" smooth="yes"/>
      <point x="180" y="546"/>
      <point x="207" y="449"/>
      <point x="257" y="377" type="curve"/>
    </contour>
    <contour>
      <point x="661" y="370" type="curve" smooth="yes"/>
      <point x="483" y="370"/>
      <point x="403" y="462"/>
      <point x="403" y="670" type="curve" smooth="yes"/>
      <point x="403" y="859"/>
      <point x="483" y="973"/>
      <point x="661" y="973" type="curve" smooth="yes"/>
      <point x="839" y="973"/>
      <point x="914" y="888"/>
      <point x="914" y="684" type="curve" smooth="yes"/>
      <point x="914" y="493"/>
      <point x="839" y="370"/>
    </contour>
  </outline>
</glyph>
<glyph name="yen" format="1">
  <advance width="1175"/>
  <unicode hex="00A5"/>
  <outline>
    <contour>
      <point x="220" y="505" type="curve"/>
      <point x="486" y="505" type="line"/>
      <point x="486" y="351" type="line"/>
      <point x="220" y="351" type="line"/>
      <point x="220" y="351"/>
      <point x="207" y="310"/>
      <point x="207" y="268" type="curve" smooth="yes"/>
      <point x="207" y="247"/>
      <point x="210" y="230"/>
      <point x="220" y="194" type="curve"/>
      <point x="486" y="194" type="line"/>
      <point x="486" y="0" type="line"/>
      <point x="692" y="0" type="line"/>
      <point x="692" y="194" type="line"/>
      <point x="956" y="194" type="line"/>
      <point x="956" y="194"/>
      <point x="968" y="228"/>
      <point x="968" y="269" type="curve" smooth="yes"/>
      <point x="968" y="288"/>
      <point x="965" y="316"/>
      <point x="956" y="351" type="curve"/>
      <point x="692" y="351" type="line"/>
      <point x="692" y="505" type="line"/>
      <point x="956" y="505" type="line"/>
      <point x="956" y="505"/>
      <point x="968" y="547"/>
      <point x="968" y="588" type="curve" smooth="yes"/>
      <point x="968" y="608"/>
      <point x="965" y="626"/>
      <point x="956" y="661" type="curve"/>
      <point x="675" y="661" type="line"/>
      <point x="1125" y="1350" type="line"/>
      <point x="883" y="1350" type="line"/>
      <point x="608" y="850" type="line"/>
      <point x="587" y="793" type="line"/>
      <point x="564" y="850" type="line"/>
      <point x="293" y="1350" type="line"/>
      <point x="50" y="1350" type="line"/>
      <point x="492" y="661" type="line"/>
      <point x="220" y="661" type="line"/>
      <point x="220" y="661"/>
      <point x="207" y="629"/>
      <point x="207" y="587" type="curve" smooth="yes"/>
      <point x="207" y="567"/>
      <point x="210" y="541"/>
    </contour>
  </outline>
</glyph>
<glyph name="brokenbar" format="1">
  <advance width="518"/>
  <unicode hex="00A6"/>
  <outline>
    <contour>
      <point x="152" y="829" type="line"/>
      <point x="366" y="829" type="line"/>
      <point x="366" y="1517" type="line"/>
      <point x="152" y="1517" type="line"/>
    </contour>
    <contour>
      <point x="152" y="-166" type="line"/>
      <point x="366" y="-166" type="line"/>
      <point x="366" y="523" type="line"/>
      <point x="152" y="523" type="line"/>
    </contour>
  </outline>
</glyph>
<glyph name="section" format="1">
  <advance width="1024"/>
  <unicode hex="00A7"/>
  <outline>
    <contour>
      <point x="177" y="20" type="curve"/>
      <point x="136" y="-66"/>
      <point x="141" y="-145"/>
      <point x="141" y="-145" type="curve"/>
      <point x="141" y="-145"/>
      <point x="293" y="-199"/>
      <point x="438" y="-199" type="curve" smooth="yes"/>
      <point x="708" y="-199"/>
      <point x="877" y="-92"/>
      <point x="877" y="135" type="curve" smooth="yes"/>
      <point x="877" y="216"/>
      <point x="842" y="278"/>
      <point x="757" y="333" type="curve"/>
      <point x="764" y="336"/>
      <point x="872" y="415"/>
      <point x="872" y="542" type="curve" smooth="yes"/>
      <point x="872" y="684"/>
      <point x="839" y="735"/>
      <point x="569" y="891" type="curve" smooth="yes"/>
      <point x="434" y="969"/>
      <point x="366" y="1007"/>
      <point x="366" y="1099" type="curve" smooth="yes"/>
      <point x="366" y="1194"/>
      <point x="452" y="1218"/>
      <point x="558" y="1218" type="curve" smooth="yes"/>
      <point x="701" y="1218"/>
      <point x="787" y="1164"/>
      <point x="787" y="1164" type="curve"/>
      <point x="840" y="1242"/>
      <point x="848" y="1316"/>
      <point x="848" y="1316" type="curve"/>
      <point x="848" y="1316"/>
      <point x="742" y="1374"/>
      <point x="563" y="1374" type="curve" smooth="yes"/>
      <point x="305" y="1374"/>
      <point x="144" y="1270"/>
      <point x="144" y="1049" type="curve" smooth="yes"/>
      <point x="144" y="957"/>
      <point x="196" y="889"/>
      <point x="262" y="850" type="curve"/>
      <point x="262" y="850"/>
      <point x="140" y="771"/>
      <point x="140" y="643" type="curve" smooth="yes"/>
      <point x="140" y="515"/>
      <point x="193" y="441"/>
      <point x="452" y="294" type="curve" smooth="yes"/>
      <point x="574" y="224"/>
      <point x="655" y="173"/>
      <point x="655" y="93" type="curve" smooth="yes"/>
      <point x="655" y="-24"/>
      <point x="561" y="-43"/>
      <point x="443" y="-43" type="curve" smooth="yes"/>
      <point x="292" y="-43"/>
      <point x="177" y="20"/>
    </contour>
    <contour>
      <point x="336" y="663" type="curve" smooth="yes"/>
      <point x="336" y="708"/>
      <point x="354" y="751"/>
      <point x="380" y="779" type="curve"/>
      <point x="663" y="636"/>
      <point x="675" y="602"/>
      <point x="675" y="512" type="curve" smooth="yes"/>
      <point x="675" y="473"/>
      <point x="662" y="433"/>
      <point x="638" y="406" type="curve"/>
      <point x="347" y="559"/>
      <point x="336" y="595"/>
    </contour>
  </outline>
</glyph>
<glyph name="dieresis" format="1">
  <advance width="1022"/>
  <unicode hex="00A8"/>
  <outline>
    <contour>
      <point x="510" y="1713" type="move" name="_top"/>
    </contour>
    <contour>
      <point x="287" y="1225" type="curve" smooth="yes"/>
      <point x="362" y="1225"/>
      <point x="425" y="1281"/>
      <point x="425" y="1350" type="curve" smooth="yes"/>
      <point x="425" y="1421"/>
      <point x="362" y="1476"/>
      <point x="287" y="1476" type="curve" smooth="yes"/>
      <point x="213" y="1476"/>
      <point x="152" y="1421"/>
      <point x="152" y="1350" type="curve" smooth="yes"/>
      <point x="152" y="1281"/>
      <point x="213" y="1225"/>
    </contour>
    <contour>
      <point x="718" y="1225" type="curve" smooth="yes"/>
      <point x="793" y="1225"/>
      <point x="856" y="1281"/>
      <point x="856" y="1350" type="curve" smooth="yes"/>
      <point x="856" y="1421"/>
      <point x="793" y="1476"/>
      <point x="718" y="1476" type="curve" smooth="yes"/>
      <point x="644" y="1476"/>
      <point x="583" y="1421"/>
      <point x="583" y="1350" type="curve" smooth="yes"/>
      <point x="583" y="1281"/>
      <point x="644" y="1225"/>
    </contour>
  </outline>
</glyph>
<glyph name="copyright" format="1">
  <advance width="1685"/>
  <unicode hex="00A9"/>
  <outline>
    <contour>
      <point x="525" y="682" type="curve" smooth="yes"/>
      <point x="525" y="424"/>
      <point x="646" y="299"/>
      <point x="878" y="299" type="curve" smooth="yes"/>
      <point x="969" y="299"/>
      <point x="1082" y="343"/>
      <point x="1082" y="343" type="curve"/>
      <point x="1085" y="422"/>
      <point x="1050" y="471"/>
      <point x="1050" y="471" type="curve"/>
      <point x="1050" y="471"/>
      <point x="959" y="441"/>
      <point x="878" y="441" type="curve" smooth="yes"/>
      <point x="768" y="441"/>
      <point x="702" y="526"/>
      <point x="702" y="682" type="curve" smooth="yes"/>
      <point x="702" y="840"/>
      <point x="768" y="943"/>
      <point x="878" y="943" type="curve" smooth="yes"/>
      <point x="957" y="943"/>
      <point x="1041" y="911"/>
      <point x="1041" y="911" type="curve"/>
      <point x="1071" y="978"/>
      <point x="1074" y="1046"/>
      <point x="1074" y="1046" type="curve"/>
      <point x="1074" y="1046"/>
      <point x="968" y="1079"/>
      <point x="878" y="1079" type="curve" smooth="yes"/>
      <point x="651" y="1079"/>
      <point x="525" y="941"/>
    </contour>
    <contour>
      <point x="138" y="681" type="curve" smooth="yes"/>
      <point x="138" y="297"/>
      <point x="454" y="-13"/>
      <point x="842" y="-13" type="curve" smooth="yes"/>
      <point x="1231" y="-13"/>
      <point x="1547" y="297"/>
      <point x="1547" y="681" type="curve" smooth="yes"/>
      <point x="1547" y="1064"/>
      <point x="1231" y="1374"/>
      <point x="842" y="1374" type="curve" smooth="yes"/>
      <point x="454" y="1374"/>
      <point x="138" y="1064"/>
    </contour>
    <contour>
      <point x="278" y="681" type="curve" smooth="yes"/>
      <point x="278" y="999"/>
      <point x="530" y="1256"/>
      <point x="842" y="1256" type="curve" smooth="yes"/>
      <point x="1155" y="1256"/>
      <point x="1407" y="999"/>
      <point x="1407" y="681" type="curve" smooth="yes"/>
      <point x="1407" y="362"/>
      <point x="1155" y="105"/>
      <point x="842" y="105" type="curve" smooth="yes"/>
      <point x="530" y="105"/>
      <point x="278" y="362"/>
    </contour>
  </outline>
</glyph>
<glyph name="ordfeminine" format="1">
  <advance width="839"/>
  <unicode hex="00AA"/>
  <outline>
    <contour>
      <point x="319" y="561" type="curve" smooth="yes"/>
      <point x="430" y="561"/>
      <point x="539" y="610"/>
      <point x="548" y="618" type="curve"/>
      <point x="562" y="618" type="line"/>
      <point x="614" y="573" type="line"/>
      <point x="773" y="573" type="line"/>
      <point x="773" y="620" type="line"/>
      <point x="706" y="685" type="line"/>
      <point x="706" y="1170" type="line"/>
      <point x="706" y="1317"/>
      <point x="607" y="1398"/>
      <point x="397" y="1398" type="curve" smooth="yes"/>
      <point x="268" y="1398"/>
      <point x="130" y="1342"/>
      <point x="130" y="1342" type="curve"/>
      <point x="130" y="1342"/>
      <point x="136" y="1269"/>
      <point x="178" y="1203" type="curve"/>
      <point x="178" y="1203"/>
      <point x="289" y="1256"/>
      <point x="390" y="1256" type="curve" smooth="yes"/>
      <point x="470" y="1256"/>
      <point x="536" y="1219"/>
      <point x="536" y="1131" type="curve"/>
      <point x="536" y="1062" type="line"/>
      <point x="337" y="1054" type="line"/>
      <point x="195" y="1042"/>
      <point x="91" y="956"/>
      <point x="91" y="816" type="curve" smooth="yes"/>
      <point x="91" y="695"/>
      <point x="180" y="561"/>
    </contour>
    <contour>
      <point x="363" y="686" type="curve" smooth="yes"/>
      <point x="303" y="686"/>
      <point x="264" y="755"/>
      <point x="264" y="822" type="curve" smooth="yes"/>
      <point x="264" y="872"/>
      <point x="305" y="937"/>
      <point x="372" y="941" type="curve"/>
      <point x="536" y="951" type="line"/>
      <point x="536" y="721" type="line"/>
      <point x="536" y="721"/>
      <point x="424" y="686"/>
    </contour>
  </outline>
</glyph>
<glyph name="logicalnot" format="1">
  <advance width="1535"/>
  <unicode hex="00AC"/>
  <outline>
    <contour>
      <point x="193" y="510" type="line"/>
      <point x="1107" y="510" type="line"/>
      <point x="1107" y="177" type="line"/>
      <point x="1303" y="177" type="line"/>
      <point x="1303" y="685" type="line"/>
      <point x="193" y="685" type="line"/>
    </contour>
  </outline>
</glyph>
<glyph name="uni00AD" format="1">
  <advance width="952"/>
  <unicode hex="00AD"/>
  <outline>
    <contour>
      <point x="180" y="510" type="line"/>
      <point x="772" y="510" type="line"/>
      <point x="772" y="685" type="line"/>
      <point x="180" y="685" type="line"/>
    </contour>
  </outline>
</glyph>
<glyph name="registered" format="1">
  <advance width="1685"/>
  <unicode hex="00AE"/>
  <outline>
    <contour>
      <point x="573" y="317" type="line"/>
      <point x="743" y="317" type="line"/>
      <point x="743" y="612" type="line"/>
      <point x="743" y="612"/>
      <point x="764" y="609"/>
      <point x="827" y="609" type="curve"/>
      <point x="981" y="317" type="line"/>
      <point x="1168" y="317" type="line"/>
      <point x="1111" y="421"/>
      <point x="1045" y="525"/>
      <point x="987" y="631" type="curve"/>
      <point x="1089" y="670"/>
      <point x="1137" y="748"/>
      <point x="1137" y="843" type="curve" smooth="yes"/>
      <point x="1137" y="976"/>
      <point x="1051" y="1063"/>
      <point x="880" y="1063" type="curve"/>
      <point x="573" y="1063" type="line"/>
    </contour>
    <contour>
      <point x="743" y="731" type="curve"/>
      <point x="743" y="941" type="line"/>
      <point x="845" y="941" type="line"/>
      <point x="917" y="941"/>
      <point x="956" y="905"/>
      <point x="956" y="840" type="curve" smooth="yes"/>
      <point x="956" y="763"/>
      <point x="902" y="728"/>
      <point x="815" y="728" type="curve" smooth="yes"/>
      <point x="779" y="728"/>
      <point x="759" y="729"/>
    </contour>
    <contour>
      <point x="138" y="681" type="curve" smooth="yes"/>
      <point x="138" y="297"/>
      <point x="454" y="-13"/>
      <point x="842" y="-13" type="curve" smooth="yes"/>
      <point x="1231" y="-13"/>
      <point x="1547" y="297"/>
      <point x="1547" y="681" type="curve" smooth="yes"/>
      <point x="1547" y="1064"/>
      <point x="1231" y="1374"/>
      <point x="842" y="1374" type="curve" smooth="yes"/>
      <point x="454" y="1374"/>
      <point x="138" y="1064"/>
    </contour>
    <contour>
      <point x="278" y="681" type="curve" smooth="yes"/>
      <point x="278" y="999"/>
      <point x="530" y="1256"/>
      <point x="842" y="1256" type="curve" smooth="yes"/>
      <point x="1155" y="1256"/>
      <point x="1407" y="999"/>
      <point x="1407" y="681" type="curve" smooth="yes"/>
      <point x="1407" y="362"/>
      <point x="1155" y="105"/>
      <point x="842" y="105" type="curve" smooth="yes"/>
      <point x="530" y="105"/>
      <point x="278" y="362"/>
    </contour>
  </outline>
</glyph>
<glyph name="macron" format="1">
  <advance width="1024"/>
  <unicode hex="00AF"/>
  <outline>
    <contour>
      <point x="512" y="1713" type="move" name="_top"/>
    </contour>
    <contour>
      <point x="185" y="1301" type="curve"/>
      <point x="825" y="1301" type="line"/>
      <point x="835" y="1332"/>
      <point x="840" y="1363"/>
      <point x="840" y="1389" type="curve" smooth="yes"/>
      <point x="840" y="1407"/>
      <point x="837" y="1433"/>
      <point x="831" y="1459" type="curve"/>
      <point x="186" y="1459" type="line"/>
      <point x="176" y="1431"/>
      <point x="172" y="1404"/>
      <point x="172" y="1380" type="curve" smooth="yes"/>
      <point x="172" y="1360"/>
      <point x="176" y="1334"/>
    </contour>
  </outline>
</glyph>
<glyph name="degree" format="1">
  <advance width="771"/>
  <unicode hex="00B0"/>
  <outline>
    <contour>
      <point x="383" y="1158" type="curve" smooth="yes"/>
      <point x="298" y="1158"/>
      <point x="232" y="1221"/>
      <point x="232" y="1340" type="curve" smooth="yes"/>
      <point x="232" y="1458"/>
      <point x="298" y="1524"/>
      <point x="383" y="1524" type="curve" smooth="yes"/>
      <point x="473" y="1524"/>
      <point x="541" y="1458"/>
      <point x="541" y="1340" type="curve" smooth="yes"/>
      <point x="541" y="1220"/>
      <point x="473" y="1158"/>
    </contour>
    <contour>
      <point x="383" y="1019" type="curve" smooth="yes"/>
      <point x="573" y="1019"/>
      <point x="709" y="1125"/>
      <point x="709" y="1340" type="curve" smooth="yes"/>
      <point x="709" y="1552"/>
      <point x="573" y="1662"/>
      <point x="383" y="1662" type="curve" smooth="yes"/>
      <point x="204" y="1662"/>
      <point x="62" y="1552"/>
      <point x="62" y="1340" type="curve" smooth="yes"/>
      <point x="62" y="1127"/>
      <point x="204" y="1019"/>
    </contour>
  </outline>
</glyph>
<glyph name="plusminus" format="1">
  <advance width="1535"/>
  <unicode hex="00B1"/>
  <outline>
    <contour>
      <point x="203" y="674" type="line"/>
      <point x="661" y="674" type="line"/>
      <point x="661" y="328" type="line"/>
      <point x="857" y="328" type="line"/>
      <point x="857" y="674" type="line"/>
      <point x="1313" y="674" type="line"/>
      <point x="1313" y="848" type="line"/>
      <point x="857" y="848" type="line"/>
      <point x="857" y="1328" type="line"/>
      <point x="661" y="1328" type="line"/>
      <point x="661" y="848" type="line"/>
      <point x="203" y="848" type="line"/>
    </contour>
    <contour>
      <point x="203" y="0" type="line"/>
      <point x="1313" y="0" type="line"/>
      <point x="1313" y="175" type="line"/>
      <point x="203" y="175" type="line"/>
    </contour>
  </outline>
</glyph>
<glyph name="two.superior" format="1">
  <advance width="1195"/>
  <unicode hex="00B2"/>
  <outline>
    <contour>
      <point x="336" y="896" type="line"/>
      <point x="848" y="896" type="line"/>
      <point x="864" y="924"/>
      <point x="867" y="967"/>
      <point x="867" y="998" type="curve" smooth="yes"/>
      <point x="867" y="1017"/>
      <point x="865" y="1047"/>
      <point x="865" y="1047" type="curve"/>
      <point x="865" y="1047"/>
      <point x="690" y="1024"/>
      <point x="547" y="1020" type="curve"/>
      <point x="570" y="1042" type="line"/>
      <point x="745" y="1216"/>
      <point x="842" y="1313"/>
      <point x="842" y="1432" type="curve" smooth="yes"/>
      <point x="842" y="1580"/>
      <point x="751" y="1654"/>
      <point x="592" y="1654" type="curve" smooth="yes"/>
      <point x="443" y="1654"/>
      <point x="329" y="1570"/>
      <point x="329" y="1570" type="curve"/>
      <point x="329" y="1570"/>
      <point x="335" y="1513"/>
      <point x="396" y="1456" type="curve"/>
      <point x="396" y="1456"/>
      <point x="484" y="1529"/>
      <point x="595" y="1529" type="curve" smooth="yes"/>
      <point x="643" y="1529"/>
      <point x="671" y="1492"/>
      <point x="671" y="1421" type="curve" smooth="yes"/>
      <point x="671" y="1347"/>
      <point x="610" y="1279"/>
      <point x="444" y="1109" type="curve"/>
      <point x="336" y="998" type="line"/>
    </contour>
  </outline>
</glyph>
<glyph name="three.superior" format="1">
  <advance width="1195"/>
  <unicode hex="00B3"/>
  <outline>
    <contour>
      <point x="318" y="927" type="curve"/>
      <point x="318" y="927"/>
      <point x="432" y="878"/>
      <point x="556" y="878" type="curve" smooth="yes"/>
      <point x="736" y="878"/>
      <point x="860" y="957"/>
      <point x="860" y="1114" type="curve" smooth="yes"/>
      <point x="860" y="1201"/>
      <point x="798" y="1264"/>
      <point x="711" y="1285" type="curve"/>
      <point x="789" y="1312"/>
      <point x="837" y="1365"/>
      <point x="837" y="1454" type="curve" smooth="yes"/>
      <point x="837" y="1589"/>
      <point x="734" y="1654"/>
      <point x="567" y="1654" type="curve" smooth="yes"/>
      <point x="449" y="1654"/>
      <point x="342" y="1604"/>
      <point x="342" y="1604" type="curve"/>
      <point x="342" y="1604"/>
      <point x="345" y="1547"/>
      <point x="395" y="1491" type="curve"/>
      <point x="395" y="1491"/>
      <point x="474" y="1533"/>
      <point x="559" y="1533" type="curve" smooth="yes"/>
      <point x="624" y="1533"/>
      <point x="666" y="1504"/>
      <point x="666" y="1454" type="curve" smooth="yes"/>
      <point x="666" y="1376"/>
      <point x="617" y="1342"/>
      <point x="568" y="1342" type="curve"/>
      <point x="485" y="1342" type="line"/>
      <point x="485" y="1342"/>
      <point x="480" y="1308"/>
      <point x="480" y="1288" type="curve" smooth="yes"/>
      <point x="480" y="1275"/>
      <point x="483" y="1245"/>
      <point x="489" y="1222" type="curve"/>
      <point x="568" y="1222" type="line"/>
      <point x="641" y="1222"/>
      <point x="685" y="1168"/>
      <point x="685" y="1121" type="curve" smooth="yes"/>
      <point x="685" y="1042"/>
      <point x="624" y="996"/>
      <point x="545" y="996" type="curve" smooth="yes"/>
      <point x="455" y="996"/>
      <point x="364" y="1045"/>
      <point x="364" y="1045" type="curve"/>
      <point x="325" y="979"/>
      <point x="318" y="927"/>
    </contour>
  </outline>
</glyph>
<glyph name="acute" format="1">
  <advance width="567"/>
  <unicode hex="00B4"/>
  <outline>
    <contour>
      <point x="354" y="1169" type="curve"/>
      <point x="671" y="1468" type="line"/>
      <point x="652" y="1508"/>
      <point x="543" y="1591"/>
      <point x="494" y="1605" type="curve"/>
      <point x="249" y="1259" type="line"/>
      <point x="262" y="1227"/>
      <point x="313" y="1185"/>
    </contour>
    <contour>
      <point x="419" y="1713" type="move" name="_top"/>
    </contour>
  </outline>
</glyph>
<glyph name="mu" format="1">
  <advance width="1195"/>
  <unicode hex="00B5"/>
  <outline>
    <contour>
      <point x="358" y="102" type="line"/>
      <point x="382" y="33"/>
      <point x="470" y="-20"/>
      <point x="584" y="-20" type="curve" smooth="yes"/>
      <point x="726" y="-20"/>
      <point x="784" y="69"/>
      <point x="797" y="127" type="curve"/>
      <point x="813" y="69" type="line"/>
      <point x="852" y="0" type="line"/>
      <point x="1055" y="0" type="line"/>
      <point x="1055" y="63" type="line"/>
      <point x="996" y="165" type="line"/>
      <point x="996" y="1022" type="line"/>
      <point x="781" y="1022" type="line"/>
      <point x="781" y="315" type="line"/>
      <point x="781" y="315"/>
      <point x="750" y="144"/>
      <point x="600" y="144" type="curve" smooth="yes"/>
      <point x="433" y="144"/>
      <point x="387" y="265"/>
      <point x="387" y="407" type="curve"/>
      <point x="387" y="1022" type="line"/>
      <point x="173" y="1022" type="line"/>
      <point x="173" y="335" type="line"/>
      <point x="172" y="-425" type="line"/>
      <point x="349" y="-425" type="line"/>
      <point x="387" y="-384" type="line"/>
    </contour>
  </outline>
</glyph>
<glyph name="paragraph" format="1">
  <advance width="1366"/>
  <unicode hex="00B6"/>
  <outline>
    <contour>
      <point x="599" y="-156" type="line"/>
      <point x="805" y="-156" type="line"/>
      <point x="805" y="1185" type="line"/>
      <point x="977" y="1185" type="line"/>
      <point x="977" y="-156" type="line"/>
      <point x="1192" y="-156" type="line"/>
      <point x="1192" y="1358" type="line"/>
      <point x="587" y="1358" type="line"/>
      <point x="322" y="1358"/>
      <point x="140" y="1187"/>
      <point x="140" y="933" type="curve" smooth="yes"/>
      <point x="140" y="713"/>
      <point x="307" y="528"/>
      <point x="599" y="514" type="curve"/>
    </contour>
  </outline>
</glyph>
<glyph name="periodcentered" format="1">
  <advance width="452"/>
  <unicode hex="00B7"/>
  <outline>
    <contour>
      <point x="226" y="414" type="curve" smooth="yes"/>
      <point x="308" y="414"/>
      <point x="374" y="477"/>
      <point x="374" y="553" type="curve" smooth="yes"/>
      <point x="374" y="629"/>
      <point x="308" y="690"/>
      <point x="226" y="690" type="curve" smooth="yes"/>
      <point x="144" y="690"/>
      <point x="78" y="629"/>
      <point x="78" y="553" type="curve" smooth="yes"/>
      <point x="78" y="477"/>
      <point x="144" y="414"/>
    </contour>
  </outline>
</glyph>
<glyph name="cedilla" format="1">
  <advance width="512"/>
  <unicode hex="00B8"/>
  <outline>
    <contour>
      <point x="255" y="-157" type="move" name="_btm"/>
    </contour>
    <contour>
      <point x="144" y="16" type="line"/>
      <point x="144" y="16"/>
      <point x="156" y="-61"/>
      <point x="156" y="-116" type="curve" smooth="yes"/>
      <point x="156" y="-177"/>
      <point x="122" y="-231"/>
      <point x="47" y="-231" type="curve" smooth="yes"/>
      <point x="36" y="-231"/>
      <point x="12" y="-225"/>
      <point x="-19" y="-218" type="curve"/>
      <point x="-31" y="-260"/>
      <point x="-35" y="-295"/>
      <point x="-35" y="-324" type="curve" smooth="yes"/>
      <point x="-35" y="-379"/>
      <point x="-21" y="-423"/>
      <point x="-21" y="-423" type="curve"/>
      <point x="-21" y="-423"/>
      <point x="13" y="-434"/>
      <point x="62" y="-434" type="curve" smooth="yes"/>
      <point x="242" y="-434"/>
      <point x="343" y="-310"/>
      <point x="343" y="-166" type="curve" smooth="yes"/>
      <point x="343" y="-78"/>
      <point x="308" y="32"/>
      <point x="308" y="32" type="curve"/>
      <point x="167" y="32" type="line"/>
    </contour>
  </outline>
</glyph>
<glyph name="one.superior" format="1">
  <advance width="856"/>
  <unicode hex="00B9"/>
  <outline>
    <contour>
      <point x="360" y="896" type="line"/>
      <point x="525" y="896" type="line"/>
      <point x="525" y="1636" type="line"/>
      <point x="401" y="1636" type="line"/>
      <point x="401" y="1636"/>
      <point x="312" y="1590"/>
      <point x="200" y="1547" type="curve"/>
      <point x="200" y="1547"/>
      <point x="197" y="1469"/>
      <point x="257" y="1436" type="curve"/>
      <point x="274" y="1435" type="line"/>
      <point x="304" y="1442"/>
      <point x="337" y="1455"/>
      <point x="360" y="1464" type="curve"/>
    </contour>
  </outline>
</glyph>
<glyph name="ordmasculine" format="1">
  <advance width="911"/>
  <unicode hex="00BA"/>
  <outline>
    <contour>
      <point x="458" y="557" type="curve" smooth="yes"/>
      <point x="658" y="557"/>
      <point x="782" y="705"/>
      <point x="782" y="999" type="curve" smooth="yes"/>
      <point x="782" y="1290"/>
      <point x="660" y="1399"/>
      <point x="458" y="1399" type="curve" smooth="yes"/>
      <point x="261" y="1399"/>
      <point x="129" y="1280"/>
      <point x="129" y="987" type="curve" smooth="yes"/>
      <point x="129" y="694"/>
      <point x="251" y="557"/>
    </contour>
    <contour>
      <point x="458" y="683" type="curve" smooth="yes"/>
      <point x="353" y="683"/>
      <point x="305" y="802"/>
      <point x="305" y="987" type="curve" smooth="yes"/>
      <point x="305" y="1156"/>
      <point x="353" y="1278"/>
      <point x="458" y="1278" type="curve" smooth="yes"/>
      <point x="562" y="1278"/>
      <point x="605" y="1182"/>
      <point x="605" y="999" type="curve" smooth="yes"/>
      <point x="605" y="827"/>
      <point x="562" y="683"/>
    </contour>
  </outline>
</glyph>
<glyph name="onequarter" format="1">
  <advance width="1612"/>
  <unicode hex="00BC"/>
  <outline>
    <contour>
      <point x="870" y="267" type="line"/>
      <point x="870" y="267"/>
      <point x="866" y="203"/>
      <point x="927" y="165" type="curve"/>
      <point x="1229" y="165" type="line"/>
      <point x="1229" y="0" type="line"/>
      <point x="1394" y="0" type="line"/>
      <point x="1394" y="165" type="line"/>
      <point x="1490" y="165" type="line"/>
      <point x="1514" y="211"/>
      <point x="1507" y="281"/>
      <point x="1507" y="281" type="curve"/>
      <point x="1394" y="281" type="line"/>
      <point x="1394" y="472" type="line"/>
      <point x="1394" y="472"/>
      <point x="1281" y="448"/>
      <point x="1229" y="405" type="curve"/>
      <point x="1229" y="281" type="line"/>
      <point x="1053" y="281" type="line"/>
      <point x="1170" y="489"/>
      <point x="1305" y="695"/>
      <point x="1305" y="695" type="curve"/>
      <point x="1303" y="710" type="line"/>
      <point x="1278" y="739"/>
      <point x="1160" y="773"/>
      <point x="1160" y="773" type="curve"/>
    </contour>
    <component base="fraction" xOffset="203"/>
    <component base="one.superior" xOffset="-99" yOffset="-119"/>
  </outline>
</glyph>
<glyph name="onehalf" format="1">
  <advance width="1612"/>
  <unicode hex="00BD"/>
  <outline>
    <contour>
      <point x="981" y="13" type="line"/>
      <point x="1493" y="13" type="line"/>
      <point x="1509" y="41"/>
      <point x="1512" y="84"/>
      <point x="1512" y="115" type="curve" smooth="yes"/>
      <point x="1512" y="134"/>
      <point x="1510" y="164"/>
      <point x="1510" y="164" type="curve"/>
      <point x="1510" y="164"/>
      <point x="1335" y="141"/>
      <point x="1192" y="137" type="curve"/>
      <point x="1215" y="159" type="line" smooth="yes"/>
      <point x="1390" y="333"/>
      <point x="1487" y="430"/>
      <point x="1487" y="549" type="curve" smooth="yes"/>
      <point x="1487" y="697"/>
      <point x="1396" y="771"/>
      <point x="1237" y="771" type="curve" smooth="yes"/>
      <point x="1088" y="771"/>
      <point x="974" y="687"/>
      <point x="974" y="687" type="curve"/>
      <point x="974" y="687"/>
      <point x="980" y="630"/>
      <point x="1041" y="573" type="curve"/>
      <point x="1041" y="573"/>
      <point x="1129" y="646"/>
      <point x="1240" y="646" type="curve" smooth="yes"/>
      <point x="1288" y="646"/>
      <point x="1316" y="609"/>
      <point x="1316" y="538" type="curve" smooth="yes"/>
      <point x="1316" y="464"/>
      <point x="1255" y="396"/>
      <point x="1089" y="226" type="curve" smooth="yes"/>
      <point x="981" y="115" type="line"/>
    </contour>
    <component base="fraction" xOffset="203"/>
    <component base="one.superior" xOffset="-99" yOffset="-119"/>
  </outline>
</glyph>
<glyph name="threequarters" format="1">
  <advance width="1688"/>
  <unicode hex="00BE"/>
  <outline>
    <contour>
      <point x="946" y="267" type="line"/>
      <point x="946" y="267"/>
      <point x="942" y="203"/>
      <point x="1003" y="165" type="curve"/>
      <point x="1305" y="165" type="line"/>
      <point x="1305" y="0" type="line"/>
      <point x="1470" y="0" type="line"/>
      <point x="1470" y="165" type="line"/>
      <point x="1566" y="165" type="line"/>
      <point x="1590" y="211"/>
      <point x="1583" y="281"/>
      <point x="1583" y="281" type="curve"/>
      <point x="1470" y="281" type="line"/>
      <point x="1470" y="462" type="line"/>
      <point x="1470" y="462"/>
      <point x="1357" y="438"/>
      <point x="1305" y="395" type="curve"/>
      <point x="1305" y="281" type="line"/>
      <point x="1129" y="281" type="line"/>
      <point x="1246" y="489"/>
      <point x="1381" y="695"/>
      <point x="1381" y="695" type="curve"/>
      <point x="1379" y="710" type="line"/>
      <point x="1354" y="739"/>
      <point x="1236" y="773"/>
      <point x="1236" y="773" type="curve"/>
    </contour>
    <component base="fraction" xOffset="279"/>
    <component base="three.superior" xOffset="-251" yOffset="-126"/>
  </outline>
</glyph>
<glyph name="AE" format="1">
  <advance width="1423"/>
  <unicode hex="00C6"/>
  <outline>
    <contour>
      <point x="-27" y="0" type="line"/>
      <point x="197" y="0" type="line"/>
      <point x="323" y="458" type="line"/>
      <point x="632" y="458" type="line"/>
      <point x="632" y="0" type="line"/>
      <point x="1336" y="0" type="line"/>
      <point x="1349" y="49"/>
      <point x="1352" y="99"/>
      <point x="1352" y="126" type="curve" smooth="yes"/>
      <point x="1352" y="157"/>
      <point x="1349" y="186"/>
      <point x="1349" y="186" type="curve"/>
      <point x="1349" y="186"/>
      <point x="1064" y="172"/>
      <point x="859" y="171" type="curve"/>
      <point x="859" y="559" type="line"/>
      <point x="970" y="559"/>
      <point x="1268" y="558"/>
      <point x="1268" y="558" type="curve"/>
      <point x="1288" y="632"/>
      <point x="1292" y="657"/>
      <point x="1292" y="666" type="curve" smooth="yes"/>
      <point x="1292" y="698"/>
      <point x="1289" y="736"/>
      <point x="1289" y="736" type="curve"/>
      <point x="1289" y="736"/>
      <point x="994" y="727"/>
      <point x="859" y="726" type="curve"/>
      <point x="859" y="1185" type="line"/>
      <point x="1065" y="1185"/>
      <point x="1308" y="1176"/>
      <point x="1308" y="1176" type="curve"/>
      <point x="1338" y="1236"/>
      <point x="1344" y="1285"/>
      <point x="1344" y="1308" type="curve" smooth="yes"/>
      <point x="1344" y="1335"/>
      <point x="1341" y="1358"/>
      <point x="1341" y="1358" type="curve"/>
      <point x="373" y="1358" type="line"/>
    </contour>
    <contour>
      <point x="374" y="632" type="line"/>
      <point x="526" y="1193" type="line"/>
      <point x="632" y="1193" type="line"/>
      <point x="632" y="632" type="line"/>
    </contour>
    <contour>
      <point x="804" y="1713" type="move" name="top"/>
    </contour>
  </outline>
</glyph>
<glyph name="Ccedilla" format="1">
  <advance width="1069"/>
  <unicode hex="00C7"/>
  <outline>
    <contour>
      <point x="51" y="667" type="curve" smooth="yes"/>
      <point x="51" y="261"/>
      <point x="217" y="28"/>
      <point x="537" y="-17" type="curve"/>
      <point x="542" y="-40"/>
      <point x="545" y="-86"/>
      <point x="545" y="-116" type="curve" smooth="yes"/>
      <point x="545" y="-177"/>
      <point x="511" y="-231"/>
      <point x="436" y="-231" type="curve" smooth="yes"/>
      <point x="425" y="-231"/>
      <point x="401" y="-225"/>
      <point x="370" y="-218" type="curve"/>
      <point x="358" y="-260"/>
      <point x="354" y="-295"/>
      <point x="354" y="-324" type="curve" smooth="yes"/>
      <point x="354" y="-379"/>
      <point x="368" y="-423"/>
      <point x="368" y="-423" type="curve"/>
      <point x="368" y="-423"/>
      <point x="402" y="-434"/>
      <point x="451" y="-434" type="curve" smooth="yes"/>
      <point x="631" y="-434"/>
      <point x="732" y="-310"/>
      <point x="732" y="-166" type="curve" smooth="yes"/>
      <point x="732" y="-119"/>
      <point x="722" y="-64"/>
      <point x="712" y="-24" type="curve"/>
      <point x="852" y="-15"/>
      <point x="980" y="28"/>
      <point x="980" y="28" type="curve"/>
      <point x="984" y="138"/>
      <point x="945" y="212"/>
      <point x="945" y="212" type="curve"/>
      <point x="945" y="212"/>
      <point x="812" y="159"/>
      <point x="663" y="159" type="curve" smooth="yes"/>
      <point x="426" y="159"/>
      <point x="276" y="333"/>
      <point x="276" y="667" type="curve" smooth="yes"/>
      <point x="276" y="1002"/>
      <point x="426" y="1200"/>
      <point x="663" y="1200" type="curve" smooth="yes"/>
      <point x="810" y="1200"/>
      <point x="935" y="1148"/>
      <point x="935" y="1148" type="curve"/>
      <point x="981" y="1242"/>
      <point x="987" y="1329"/>
      <point x="987" y="1329" type="curve"/>
      <point x="987" y="1329"/>
      <point x="819" y="1384"/>
      <point x="663" y="1384" type="curve" smooth="yes"/>
      <point x="268" y="1384"/>
      <point x="51" y="1123"/>
    </contour>
  </outline>
</glyph>
<glyph name="multiply" format="1">
  <advance width="1368"/>
  <unicode hex="00D7"/>
  <outline>
    <contour>
      <point x="182" y="226" type="line"/>
      <point x="317" y="92" type="line"/>
      <point x="682" y="483" type="line"/>
      <point x="1037" y="92" type="line"/>
      <point x="1162" y="216" type="line"/>
      <point x="800" y="592" type="line"/>
      <point x="1172" y="978" type="line"/>
      <point x="1037" y="1113" type="line"/>
      <point x="672" y="721" type="line"/>
      <point x="307" y="1113" type="line"/>
      <point x="182" y="988" type="line"/>
      <point x="553" y="612" type="line"/>
    </contour>
  </outline>
</glyph>
<glyph name="Oslash" format="1">
  <advance width="1290"/>
  <unicode hex="00D8"/>
  <outline>
    <contour>
      <point x="649" y="-26" type="curve" smooth="yes"/>
      <point x="1041" y="-26"/>
      <point x="1207" y="259"/>
      <point x="1207" y="698" type="curve" smooth="yes"/>
      <point x="1207" y="981"/>
      <point x="1144" y="1186"/>
      <point x="988" y="1294" type="curve"/>
      <point x="1066" y="1458" type="line"/>
      <point x="1027" y="1512"/>
      <point x="958" y="1520"/>
      <point x="958" y="1520" type="curve"/>
      <point x="877" y="1350" type="line"/>
      <point x="812" y="1372"/>
      <point x="736" y="1384"/>
      <point x="649" y="1384" type="curve" smooth="yes"/>
      <point x="259" y="1384"/>
      <point x="83" y="1117"/>
      <point x="83" y="679" type="curve" smooth="yes"/>
      <point x="83" y="406"/>
      <point x="147" y="200"/>
      <point x="292" y="83" type="curve"/>
      <point x="196" y="-117" type="line"/>
      <point x="250" y="-170"/>
      <point x="307" y="-180"/>
      <point x="307" y="-180" type="curve"/>
      <point x="401" y="18" type="line"/>
      <point x="471" y="-10"/>
      <point x="553" y="-26"/>
    </contour>
    <contour>
      <point x="649" y="149" type="curve" smooth="yes"/>
      <point x="580" y="149"/>
      <point x="523" y="163"/>
      <point x="477" y="191" type="curve"/>
      <point x="892" y="1111" type="line"/>
      <point x="957" y="1028"/>
      <point x="981" y="891"/>
      <point x="981" y="698" type="curve" smooth="yes"/>
      <point x="981" y="372"/>
      <point x="902" y="149"/>
    </contour>
    <contour>
      <point x="308" y="679" type="curve" smooth="yes"/>
      <point x="308" y="1016"/>
      <point x="395" y="1211"/>
      <point x="649" y="1211" type="curve" smooth="yes"/>
      <point x="712" y="1211"/>
      <point x="764" y="1200"/>
      <point x="807" y="1180" type="curve"/>
      <point x="393" y="271" type="line"/>
      <point x="332" y="362"/>
      <point x="308" y="500"/>
    </contour>
  </outline>
</glyph>
<glyph name="Thorn" format="1">
  <advance width="1116"/>
  <unicode hex="00DE"/>
  <outline>
    <contour>
      <point x="153" y="0" type="line"/>
      <point x="380" y="0" type="line"/>
      <point x="380" y="280" type="line"/>
      <point x="380" y="280"/>
      <point x="469" y="265"/>
      <point x="582" y="265" type="curve" smooth="yes"/>
      <point x="899" y="265"/>
      <point x="1068" y="466"/>
      <point x="1068" y="697" type="curve" smooth="yes"/>
      <point x="1068" y="952"/>
      <point x="926" y="1114"/>
      <point x="658" y="1114" type="curve"/>
      <point x="382" y="1114" type="line"/>
      <point x="382" y="1358" type="line"/>
      <point x="153" y="1358" type="line"/>
    </contour>
    <contour>
      <point x="380" y="443" type="curve"/>
      <point x="380" y="945" type="line"/>
      <point x="614" y="945" type="line"/>
      <point x="761" y="945"/>
      <point x="831" y="843"/>
      <point x="831" y="693" type="curve" smooth="yes"/>
      <point x="831" y="505"/>
      <point x="698" y="436"/>
      <point x="517" y="436" type="curve" smooth="yes"/>
      <point x="452" y="436"/>
      <point x="404" y="440"/>
    </contour>
  </outline>
</glyph>
<glyph name="germandbls" format="1">
  <advance width="1141"/>
  <unicode hex="00DF"/>
  <outline>
    <contour>
      <point x="149" y="0" type="line"/>
      <point x="354" y="0" type="line"/>
      <point x="354" y="950" type="line"/>
      <point x="354" y="1084"/>
      <point x="444" y="1221"/>
      <point x="569" y="1221" type="curve" smooth="yes"/>
      <point x="662" y="1221"/>
      <point x="712" y="1168"/>
      <point x="712" y="1095" type="curve" smooth="yes"/>
      <point x="712" y="997"/>
      <point x="656" y="943"/>
      <point x="611" y="900" type="curve" smooth="yes"/>
      <point x="559" y="849"/>
      <point x="507" y="810"/>
      <point x="507" y="708" type="curve" smooth="yes"/>
      <point x="507" y="569"/>
      <point x="573" y="523"/>
      <point x="739" y="452" type="curve" smooth="yes"/>
      <point x="825" y="415"/>
      <point x="868" y="350"/>
      <point x="868" y="277" type="curve" smooth="yes"/>
      <point x="868" y="177"/>
      <point x="790" y="160"/>
      <point x="719" y="160" type="curve" smooth="yes"/>
      <point x="629" y="160"/>
      <point x="519" y="208"/>
      <point x="519" y="208" type="curve"/>
      <point x="472" y="126"/>
      <point x="473" y="37"/>
      <point x="473" y="37" type="curve"/>
      <point x="473" y="37"/>
      <point x="573" y="-20"/>
      <point x="725" y="-20" type="curve" smooth="yes"/>
      <point x="933" y="-20"/>
      <point x="1093" y="99"/>
      <point x="1093" y="282" type="curve" smooth="yes"/>
      <point x="1093" y="453"/>
      <point x="1047" y="542"/>
      <point x="838" y="633" type="curve" smooth="yes"/>
      <point x="746" y="673"/>
      <point x="719" y="674"/>
      <point x="719" y="729" type="curve" smooth="yes"/>
      <point x="719" y="781"/>
      <point x="762" y="824"/>
      <point x="800" y="860" type="curve" smooth="yes"/>
      <point x="858" y="917"/>
      <point x="928" y="976"/>
      <point x="928" y="1117" type="curve" smooth="yes"/>
      <point x="928" y="1328"/>
      <point x="713" y="1384"/>
      <point x="580" y="1384" type="curve" smooth="yes"/>
      <point x="289" y="1384"/>
      <point x="149" y="1153"/>
      <point x="149" y="926" type="curve"/>
    </contour>
  </outline>
</glyph>
<glyph name="ae" format="1">
  <advance width="1577"/>
  <unicode hex="00E6"/>
  <outline>
    <contour>
      <point x="67" y="317" type="curve" smooth="yes"/>
      <point x="67" y="107"/>
      <point x="212" y="-20"/>
      <point x="412" y="-20" type="curve" smooth="yes"/>
      <point x="641" y="-20"/>
      <point x="742" y="107"/>
      <point x="757" y="127" type="curve"/>
      <point x="778" y="127" type="line"/>
      <point x="859" y="31"/>
      <point x="970" y="-20"/>
      <point x="1135" y="-20" type="curve" smooth="yes"/>
      <point x="1313" y="-20"/>
      <point x="1454" y="46"/>
      <point x="1454" y="46" type="curve"/>
      <point x="1454" y="46"/>
      <point x="1449" y="112"/>
      <point x="1406" y="209" type="curve"/>
      <point x="1406" y="209"/>
      <point x="1279" y="148"/>
      <point x="1135" y="148" type="curve" smooth="yes"/>
      <point x="960" y="148"/>
      <point x="861" y="265"/>
      <point x="859" y="489" type="curve"/>
      <point x="1490" y="509" type="line"/>
      <point x="1490" y="509"/>
      <point x="1499" y="578"/>
      <point x="1499" y="663" type="curve" smooth="yes"/>
      <point x="1499" y="900"/>
      <point x="1352" y="1050"/>
      <point x="1105" y="1050" type="curve" smooth="yes"/>
      <point x="996" y="1050"/>
      <point x="879" y="997"/>
      <point x="810" y="922" type="curve"/>
      <point x="762" y="999"/>
      <point x="683" y="1050"/>
      <point x="466" y="1050" type="curve" smooth="yes"/>
      <point x="307" y="1050"/>
      <point x="150" y="976"/>
      <point x="150" y="976" type="curve"/>
      <point x="150" y="976"/>
      <point x="153" y="903"/>
      <point x="212" y="827" type="curve"/>
      <point x="212" y="827"/>
      <point x="328" y="889"/>
      <point x="466" y="889" type="curve" smooth="yes"/>
      <point x="619" y="889"/>
      <point x="660" y="838"/>
      <point x="660" y="701" type="curve"/>
      <point x="660" y="616" type="line"/>
      <point x="570" y="613"/>
      <point x="496" y="609"/>
      <point x="407" y="607" type="curve"/>
      <point x="235" y="593"/>
      <point x="67" y="513"/>
    </contour>
    <contour>
      <point x="285" y="326" type="curve" smooth="yes"/>
      <point x="285" y="411"/>
      <point x="323" y="457"/>
      <point x="428" y="462" type="curve"/>
      <point x="660" y="472" type="line"/>
      <point x="662" y="385"/>
      <point x="682" y="301"/>
      <point x="707" y="239" type="curve"/>
      <point x="676" y="210"/>
      <point x="592" y="144"/>
      <point x="483" y="144" type="curve" smooth="yes"/>
      <point x="373" y="144"/>
      <point x="285" y="201"/>
    </contour>
    <contour>
      <point x="868" y="628" type="curve"/>
      <point x="893" y="796"/>
      <point x="985" y="889"/>
      <point x="1128" y="889" type="curve" smooth="yes"/>
      <point x="1234" y="889"/>
      <point x="1310" y="810"/>
      <point x="1310" y="647" type="curve"/>
      <point x="1156" y="641"/>
      <point x="1020" y="634"/>
    </contour>
    <contour>
      <point x="820" y="1713" type="move" name="top"/>
    </contour>
    <contour>
      <point x="793" y="-157" type="move" name="btm"/>
    </contour>
  </outline>
</glyph>
<glyph name="ccedilla" format="1">
  <advance width="858"/>
  <unicode hex="00E7"/>
  <outline>
    <contour>
      <point x="79" y="513" type="curve" smooth="yes"/>
      <point x="79" y="212"/>
      <point x="208" y="36"/>
      <point x="440" y="-8" type="curve"/>
      <point x="445" y="-33"/>
      <point x="450" y="-87"/>
      <point x="450" y="-116" type="curve" smooth="yes"/>
      <point x="450" y="-177"/>
      <point x="416" y="-231"/>
      <point x="341" y="-231" type="curve" smooth="yes"/>
      <point x="330" y="-231"/>
      <point x="306" y="-225"/>
      <point x="275" y="-218" type="curve"/>
      <point x="263" y="-260"/>
      <point x="259" y="-295"/>
      <point x="259" y="-324" type="curve" smooth="yes"/>
      <point x="259" y="-379"/>
      <point x="273" y="-423"/>
      <point x="273" y="-423" type="curve"/>
      <point x="273" y="-423"/>
      <point x="307" y="-434"/>
      <point x="356" y="-434" type="curve" smooth="yes"/>
      <point x="536" y="-434"/>
      <point x="637" y="-310"/>
      <point x="637" y="-166" type="curve" smooth="yes"/>
      <point x="637" y="-120"/>
      <point x="626" y="-58"/>
      <point x="616" y="-17" type="curve"/>
      <point x="714" y="-8"/>
      <point x="808" y="27"/>
      <point x="808" y="27" type="curve"/>
      <point x="810" y="117"/>
      <point x="773" y="191"/>
      <point x="773" y="191" type="curve"/>
      <point x="773" y="191"/>
      <point x="676" y="148"/>
      <point x="570" y="148" type="curve" smooth="yes"/>
      <point x="391" y="148"/>
      <point x="296" y="275"/>
      <point x="296" y="514" type="curve" smooth="yes"/>
      <point x="296" y="734"/>
      <point x="381" y="869"/>
      <point x="560" y="869" type="curve" smooth="yes"/>
      <point x="664" y="869"/>
      <point x="754" y="826"/>
      <point x="754" y="826" type="curve"/>
      <point x="792" y="904"/>
      <point x="801" y="1000"/>
      <point x="801" y="1000" type="curve"/>
      <point x="801" y="1000"/>
      <point x="673" y="1050"/>
      <point x="560" y="1050" type="curve" smooth="yes"/>
      <point x="254" y="1050"/>
      <point x="79" y="864"/>
    </contour>
  </outline>
</glyph>
<glyph name="eth" format="1">
  <advance width="1135"/>
  <unicode hex="00F0"/>
  <outline>
    <contour>
      <point x="554" y="1190" type="line"/>
      <point x="676" y="1311" type="line"/>
      <point x="754" y="1261"/>
      <point x="879" y="998"/>
      <point x="861" y="895" type="curve"/>
      <point x="809" y="977"/>
      <point x="695" y="1049"/>
      <point x="523" y="1049" type="curve" smooth="yes"/>
      <point x="307" y="1049"/>
      <point x="86" y="897"/>
      <point x="86" y="508" type="curve" smooth="yes"/>
      <point x="86" y="228"/>
      <point x="279" y="-26"/>
      <point x="561" y="-26" type="curve" smooth="yes"/>
      <point x="923" y="-26"/>
      <point x="1066" y="280"/>
      <point x="1064" y="631" type="curve" smooth="yes"/>
      <point x="1062" y="1069"/>
      <point x="916" y="1283"/>
      <point x="799" y="1425" type="curve"/>
      <point x="935" y="1554" type="line"/>
      <point x="825" y="1681" type="line"/>
      <point x="693" y="1528" type="line"/>
      <point x="636" y="1592"/>
      <point x="476" y="1695"/>
      <point x="387" y="1695" type="curve"/>
      <point x="387" y="1695"/>
      <point x="361" y="1646"/>
      <point x="342" y="1546" type="curve"/>
      <point x="388" y="1538"/>
      <point x="507" y="1493"/>
      <point x="578" y="1423" type="curve"/>
      <point x="439" y="1308" type="line"/>
    </contour>
    <contour>
      <point x="311" y="492" type="curve" smooth="yes"/>
      <point x="311" y="738"/>
      <point x="403" y="895"/>
      <point x="561" y="895" type="curve" smooth="yes"/>
      <point x="689" y="895"/>
      <point x="818" y="787"/>
      <point x="837" y="668" type="curve" smooth="yes"/>
      <point x="841" y="645"/>
      <point x="840" y="521"/>
      <point x="840" y="496" type="curve" smooth="yes"/>
      <point x="840" y="354"/>
      <point x="746" y="138"/>
      <point x="569" y="138" type="curve" smooth="yes"/>
      <point x="382" y="138"/>
      <point x="311" y="333"/>
    </contour>
  </outline>
</glyph>
<glyph name="divide" format="1">
  <advance width="1535"/>
  <unicode hex="00F7"/>
  <outline>
    <contour>
      <point x="203" y="510" type="line"/>
      <point x="1313" y="510" type="line"/>
      <point x="1313" y="685" type="line"/>
      <point x="203" y="685" type="line"/>
    </contour>
    <component base="period" xOffset="565" yOffset="13"/>
    <component base="period" xOffset="565" yOffset="926"/>
  </outline>
</glyph>
<glyph name="oslash" format="1">
  <advance width="1118"/>
  <unicode hex="00F8"/>
  <outline>
    <contour>
      <point x="76" y="523" type="curve" smooth="yes"/>
      <point x="76" y="310"/>
      <point x="149" y="156"/>
      <point x="267" y="67" type="curve"/>
      <point x="166" y="-116" type="line"/>
      <point x="220" y="-169"/>
      <point x="297" y="-159"/>
      <point x="297" y="-159" type="curve"/>
      <point x="382" y="7" type="line"/>
      <point x="435" y="-11"/>
      <point x="496" y="-20"/>
      <point x="563" y="-20" type="curve" smooth="yes"/>
      <point x="856" y="-20"/>
      <point x="1042" y="184"/>
      <point x="1042" y="537" type="curve" smooth="yes"/>
      <point x="1042" y="756"/>
      <point x="965" y="893"/>
      <point x="844" y="975" type="curve"/>
      <point x="932" y="1140" type="line"/>
      <point x="892" y="1193"/>
      <point x="803" y="1172"/>
      <point x="803" y="1172" type="curve"/>
      <point x="729" y="1028" type="line"/>
      <point x="679" y="1042"/>
      <point x="624" y="1050"/>
      <point x="563" y="1050" type="curve" smooth="yes"/>
      <point x="276" y="1050"/>
      <point x="76" y="875"/>
    </contour>
    <contour>
      <point x="563" y="145" type="curve" smooth="yes"/>
      <point x="519" y="145"/>
      <point x="482" y="153"/>
      <point x="451" y="169" type="curve"/>
      <point x="744" y="808" type="line"/>
      <point x="789" y="746"/>
      <point x="818" y="664"/>
      <point x="818" y="537" type="curve" smooth="yes"/>
      <point x="818" y="316"/>
      <point x="740" y="145"/>
    </contour>
    <contour>
      <point x="300" y="523" type="curve" smooth="yes"/>
      <point x="300" y="743"/>
      <point x="385" y="891"/>
      <point x="563" y="891" type="curve" smooth="yes"/>
      <point x="601" y="891"/>
      <point x="634" y="885"/>
      <point x="663" y="873" type="curve"/>
      <point x="370" y="244" type="line"/>
      <point x="329" y="308"/>
      <point x="300" y="403"/>
    </contour>
  </outline>
</glyph>
<glyph name="thorn" format="1">
  <advance width="1089"/>
  <unicode hex="00FE"/>
  <outline>
    <contour>
      <point x="136" y="1439" type="line"/>
      <point x="136" y="-405" type="line"/>
      <point x="351" y="-405" type="line"/>
      <point x="350" y="-13" type="line"/>
      <point x="397" y="-17"/>
      <point x="451" y="-20"/>
      <point x="512" y="-20" type="curve" smooth="yes"/>
      <point x="781" y="-20"/>
      <point x="1010" y="164"/>
      <point x="1010" y="531" type="curve" smooth="yes"/>
      <point x="1010" y="939"/>
      <point x="819" y="1051"/>
      <point x="615" y="1051" type="curve" smooth="yes"/>
      <point x="467" y="1051"/>
      <point x="374" y="979"/>
      <point x="354" y="962" type="curve"/>
      <point x="348" y="962" type="line"/>
      <point x="348" y="1439" type="line"/>
    </contour>
    <contour>
      <point x="348" y="157" type="curve"/>
      <point x="348" y="833" type="line"/>
      <point x="348" y="833"/>
      <point x="434" y="888"/>
      <point x="506" y="888" type="curve" smooth="yes"/>
      <point x="679" y="888"/>
      <point x="785" y="814"/>
      <point x="785" y="531" type="curve" smooth="yes"/>
      <point x="785" y="279"/>
      <point x="673" y="135"/>
      <point x="467" y="135" type="curve" smooth="yes"/>
      <point x="406" y="135"/>
      <point x="366" y="149"/>
    </contour>
  </outline>
</glyph>
<glyph name="Aogonek" format="1">
  <advance width="1121"/>
  <unicode hex="0104"/>
  <outline>
    <contour>
      <point x="-10" y="0" type="line"/>
      <point x="223" y="0" type="line"/>
      <point x="341" y="415" type="line"/>
      <point x="780" y="415" type="line"/>
      <point x="882" y="73" type="line"/>
      <point x="793" y="15"/>
      <point x="755" y="-66"/>
      <point x="755" y="-133" type="curve" smooth="yes"/>
      <point x="755" y="-261"/>
      <point x="857" y="-354"/>
      <point x="1037" y="-354" type="curve" smooth="yes"/>
      <point x="1087" y="-354"/>
      <point x="1122" y="-343"/>
      <point x="1122" y="-343" type="curve"/>
      <point x="1122" y="-343"/>
      <point x="1135" y="-309"/>
      <point x="1135" y="-253" type="curve" smooth="yes"/>
      <point x="1135" y="-225"/>
      <point x="1131" y="-193"/>
      <point x="1119" y="-151" type="curve"/>
      <point x="1097" y="-158"/>
      <point x="1080" y="-160"/>
      <point x="1053" y="-160" type="curve" smooth="yes"/>
      <point x="977" y="-160"/>
      <point x="932" y="-134"/>
      <point x="932" y="-94" type="curve" smooth="yes"/>
      <point x="932" y="-45"/>
      <point x="958" y="-15"/>
      <point x="997" y="0" type="curve"/>
      <point x="1131" y="0" type="line"/>
      <point x="725" y="1358" type="line"/>
      <point x="384" y="1358" type="line"/>
    </contour>
    <contour>
      <point x="385" y="589" type="line"/>
      <point x="550" y="1255" type="line"/>
      <point x="733" y="589" type="line"/>
    </contour>
  </outline>
</glyph>
<glyph name="aogonek" format="1">
  <advance width="992"/>
  <unicode hex="0105"/>
  <outline>
    <contour>
      <point x="64" y="292" type="curve" smooth="yes"/>
      <point x="64" y="107"/>
      <point x="195" y="-20"/>
      <point x="395" y="-20" type="curve" smooth="yes"/>
      <point x="522" y="-20"/>
      <point x="630" y="76"/>
      <point x="643" y="89" type="curve"/>
      <point x="679" y="89" type="line"/>
      <point x="711" y="51" type="line"/>
      <point x="664" y="7"/>
      <point x="616" y="-65"/>
      <point x="616" y="-133" type="curve" smooth="yes"/>
      <point x="616" y="-261"/>
      <point x="713" y="-354"/>
      <point x="893" y="-354" type="curve" smooth="yes"/>
      <point x="943" y="-354"/>
      <point x="978" y="-343"/>
      <point x="978" y="-343" type="curve"/>
      <point x="978" y="-343"/>
      <point x="991" y="-309"/>
      <point x="991" y="-253" type="curve" smooth="yes"/>
      <point x="991" y="-225"/>
      <point x="987" y="-193"/>
      <point x="975" y="-151" type="curve"/>
      <point x="953" y="-158"/>
      <point x="936" y="-160"/>
      <point x="909" y="-160" type="curve" smooth="yes"/>
      <point x="833" y="-160"/>
      <point x="793" y="-134"/>
      <point x="793" y="-94" type="curve" smooth="yes"/>
      <point x="793" y="-45"/>
      <point x="819" y="-15"/>
      <point x="858" y="0" type="curve"/>
      <point x="941" y="0" type="line"/>
      <point x="941" y="63" type="line"/>
      <point x="857" y="165" type="line"/>
      <point x="857" y="723" type="line" smooth="yes"/>
      <point x="857" y="947"/>
      <point x="774" y="1051"/>
      <point x="469" y="1051" type="curve" smooth="yes"/>
      <point x="285" y="1051"/>
      <point x="124" y="967"/>
      <point x="124" y="967" type="curve"/>
      <point x="124" y="967"/>
      <point x="133" y="888"/>
      <point x="191" y="806" type="curve"/>
      <point x="191" y="806"/>
      <point x="313" y="882"/>
      <point x="457" y="882" type="curve" smooth="yes"/>
      <point x="601" y="882"/>
      <point x="647" y="842"/>
      <point x="647" y="699" type="curve" smooth="yes"/>
      <point x="647" y="619" type="line"/>
      <point x="424" y="607" type="line" smooth="yes"/>
      <point x="196" y="594"/>
      <point x="64" y="514"/>
    </contour>
    <contour>
      <point x="282" y="310" type="curve" smooth="yes"/>
      <point x="282" y="398"/>
      <point x="321" y="464"/>
      <point x="446" y="471" type="curve"/>
      <point x="647" y="484" type="line"/>
      <point x="647" y="215" type="line"/>
      <point x="647" y="215"/>
      <point x="565" y="153"/>
      <point x="463" y="153" type="curve" smooth="yes"/>
      <point x="354" y="153"/>
      <point x="282" y="187"/>
    </contour>
  </outline>
</glyph>
<glyph name="dcaron" format="1">
  <advance width="1317"/>
  <unicode hex="010F"/>
  <outline>
    <contour>
      <point x="1083" y="1000" type="line"/>
      <point x="1106" y="984"/>
      <point x="1136" y="980"/>
      <point x="1162" y="980" type="curve" smooth="yes"/>
      <point x="1193" y="980"/>
      <point x="1230" y="992"/>
      <point x="1230" y="992" type="curve"/>
      <point x="1230" y="992"/>
      <point x="1314" y="1129"/>
      <point x="1314" y="1298" type="curve" smooth="yes"/>
      <point x="1314" y="1332"/>
      <point x="1311" y="1368"/>
      <point x="1304" y="1402" type="curve"/>
      <point x="1269" y="1426"/>
      <point x="1233" y="1433"/>
      <point x="1200" y="1433" type="curve" smooth="yes"/>
      <point x="1141" y="1433"/>
      <point x="1078" y="1406"/>
      <point x="1074" y="1405" type="curve"/>
      <point x="1093" y="1342"/>
      <point x="1100" y="1278"/>
      <point x="1100" y="1224" type="curve" smooth="yes"/>
      <point x="1100" y="1106"/>
      <point x="1073" y="1014"/>
      <point x="1073" y="1014" type="curve"/>
    </contour>
    <component base="d"/>
  </outline>
</glyph>
<glyph name="Dcroat" format="1">
  <advance width="1265"/>
  <unicode hex="0110"/>
  <outline>
    <contour>
      <point x="56" y="617" type="line"/>
      <point x="168" y="617" type="line"/>
      <point x="168" y="0" type="line"/>
      <point x="553" y="0" type="line" smooth="yes"/>
      <point x="960" y="0"/>
      <point x="1213" y="236"/>
      <point x="1213" y="692" type="curve" smooth="yes"/>
      <point x="1213" y="1148"/>
      <point x="982" y="1368"/>
      <point x="567" y="1368" type="curve" smooth="yes"/>
      <point x="337" y="1368"/>
      <point x="168" y="1357"/>
      <point x="168" y="1357" type="curve"/>
      <point x="168" y="775" type="line"/>
      <point x="129" y="774"/>
      <point x="92" y="773"/>
      <point x="56" y="773" type="curve"/>
    </contour>
    <contour>
      <point x="394" y="175" type="line"/>
      <point x="394" y="616" type="line"/>
      <point x="562" y="615"/>
      <point x="700" y="613"/>
      <point x="700" y="613" type="curve"/>
      <point x="714" y="660"/>
      <point x="717" y="700"/>
      <point x="717" y="727" type="curve" smooth="yes"/>
      <point x="717" y="758"/>
      <point x="714" y="784"/>
      <point x="714" y="784" type="curve"/>
      <point x="714" y="784"/>
      <point x="569" y="782"/>
      <point x="394" y="779" type="curve"/>
      <point x="394" y="1188" type="line"/>
      <point x="394" y="1188"/>
      <point x="451" y="1194"/>
      <point x="587" y="1194" type="curve" smooth="yes"/>
      <point x="834" y="1194"/>
      <point x="982" y="1021"/>
      <point x="982" y="688" type="curve" smooth="yes"/>
      <point x="982" y="400"/>
      <point x="834" y="175"/>
      <point x="587" y="175" type="curve" smooth="yes"/>
    </contour>
  </outline>
</glyph>
<glyph name="dcroat" format="1">
  <advance width="1091"/>
  <unicode hex="0111"/>
  <outline>
    <contour>
      <point x="586" y="1131" type="curve"/>
      <point x="742" y="1131" type="line"/>
      <point x="742" y="1024" type="line"/>
      <point x="742" y="1024"/>
      <point x="679" y="1048"/>
      <point x="579" y="1048" type="curve" smooth="yes"/>
      <point x="311" y="1048"/>
      <point x="81" y="887"/>
      <point x="81" y="506" type="curve" smooth="yes"/>
      <point x="81" y="150"/>
      <point x="310" y="-7"/>
      <point x="508" y="-7" type="curve" smooth="yes"/>
      <point x="657" y="-7"/>
      <point x="728" y="80"/>
      <point x="740" y="92" type="curve"/>
      <point x="774" y="92" type="line"/>
      <point x="843" y="13" type="line"/>
      <point x="1043" y="13" type="line"/>
      <point x="1043" y="76" type="line"/>
      <point x="955" y="178" type="line"/>
      <point x="955" y="1131" type="line"/>
      <point x="1077" y="1131" type="line"/>
      <point x="1088" y="1162"/>
      <point x="1092" y="1193"/>
      <point x="1092" y="1219" type="curve" smooth="yes"/>
      <point x="1092" y="1238"/>
      <point x="1090" y="1263"/>
      <point x="1084" y="1289" type="curve"/>
      <point x="955" y="1289" type="line"/>
      <point x="955" y="1452" type="line"/>
      <point x="742" y="1452" type="line"/>
      <point x="742" y="1289" type="line"/>
      <point x="586" y="1289" type="line"/>
      <point x="577" y="1259"/>
      <point x="573" y="1235"/>
      <point x="573" y="1213" type="curve" smooth="yes"/>
      <point x="573" y="1193"/>
      <point x="577" y="1164"/>
    </contour>
    <contour>
      <point x="305" y="506" type="curve" smooth="yes"/>
      <point x="305" y="769"/>
      <point x="425" y="895"/>
      <point x="633" y="895" type="curve" smooth="yes"/>
      <point x="693" y="895"/>
      <point x="725" y="881"/>
      <point x="742" y="871" type="curve"/>
      <point x="742" y="211" type="line"/>
      <point x="742" y="211"/>
      <point x="652" y="157"/>
      <point x="585" y="157" type="curve" smooth="yes"/>
      <point x="411" y="157"/>
      <point x="305" y="258"/>
    </contour>
  </outline>
</glyph>
<glyph name="Eogonek" format="1">
  <advance width="1020"/>
  <unicode hex="0118"/>
  <outline>
    <contour>
      <point x="158" y="0" type="line"/>
      <point x="623" y="0" type="line"/>
      <point x="591" y="-44"/>
      <point x="576" y="-91"/>
      <point x="576" y="-133" type="curve" smooth="yes"/>
      <point x="576" y="-261"/>
      <point x="678" y="-354"/>
      <point x="858" y="-354" type="curve" smooth="yes"/>
      <point x="908" y="-354"/>
      <point x="943" y="-343"/>
      <point x="943" y="-343" type="curve"/>
      <point x="943" y="-343"/>
      <point x="956" y="-309"/>
      <point x="956" y="-253" type="curve" smooth="yes"/>
      <point x="956" y="-225"/>
      <point x="952" y="-193"/>
      <point x="940" y="-151" type="curve"/>
      <point x="918" y="-158"/>
      <point x="901" y="-160"/>
      <point x="874" y="-160" type="curve" smooth="yes"/>
      <point x="798" y="-160"/>
      <point x="753" y="-134"/>
      <point x="753" y="-94" type="curve" smooth="yes"/>
      <point x="753" y="-45"/>
      <point x="779" y="-15"/>
      <point x="818" y="0" type="curve"/>
      <point x="932" y="0" type="line"/>
      <point x="945" y="52"/>
      <point x="948" y="100"/>
      <point x="948" y="128" type="curve" smooth="yes"/>
      <point x="948" y="159"/>
      <point x="945" y="189"/>
      <point x="945" y="189" type="curve"/>
      <point x="945" y="189"/>
      <point x="618" y="172"/>
      <point x="385" y="171" type="curve"/>
      <point x="385" y="619" type="line"/>
      <point x="518" y="619"/>
      <point x="843" y="617"/>
      <point x="843" y="617" type="curve"/>
      <point x="859" y="649"/>
      <point x="868" y="723"/>
      <point x="868" y="735" type="curve" smooth="yes"/>
      <point x="868" y="766"/>
      <point x="865" y="792"/>
      <point x="865" y="792" type="curve"/>
      <point x="865" y="792"/>
      <point x="542" y="782"/>
      <point x="385" y="781" type="curve"/>
      <point x="385" y="1191" type="line"/>
      <point x="619" y="1191"/>
      <point x="905" y="1178"/>
      <point x="905" y="1178" type="curve"/>
      <point x="934" y="1238"/>
      <point x="940" y="1287"/>
      <point x="940" y="1309" type="curve" smooth="yes"/>
      <point x="940" y="1335"/>
      <point x="937" y="1358"/>
      <point x="937" y="1358" type="curve"/>
      <point x="158" y="1358" type="line"/>
    </contour>
  </outline>
</glyph>
<glyph name="eogonek" format="1">
  <advance width="1043"/>
  <unicode hex="0119"/>
  <outline>
    <contour>
      <point x="77" y="511" type="curve" smooth="yes"/>
      <point x="77" y="148"/>
      <point x="238" y="0"/>
      <point x="521" y="-18" type="curve"/>
      <point x="497" y="-56"/>
      <point x="486" y="-97"/>
      <point x="486" y="-133" type="curve" smooth="yes"/>
      <point x="486" y="-261"/>
      <point x="588" y="-354"/>
      <point x="768" y="-354" type="curve" smooth="yes"/>
      <point x="818" y="-354"/>
      <point x="853" y="-343"/>
      <point x="853" y="-343" type="curve"/>
      <point x="853" y="-343"/>
      <point x="866" y="-309"/>
      <point x="866" y="-253" type="curve" smooth="yes"/>
      <point x="866" y="-225"/>
      <point x="862" y="-193"/>
      <point x="850" y="-151" type="curve"/>
      <point x="828" y="-158"/>
      <point x="811" y="-160"/>
      <point x="784" y="-160" type="curve" smooth="yes"/>
      <point x="708" y="-160"/>
      <point x="663" y="-134"/>
      <point x="663" y="-94" type="curve" smooth="yes"/>
      <point x="663" y="-55"/>
      <point x="679" y="-29"/>
      <point x="705" y="-12" type="curve"/>
      <point x="825" y="4"/>
      <point x="892" y="40"/>
      <point x="892" y="40" type="curve"/>
      <point x="892" y="40"/>
      <point x="891" y="109"/>
      <point x="850" y="203" type="curve"/>
      <point x="850" y="203"/>
      <point x="748" y="148"/>
      <point x="580" y="148" type="curve" smooth="yes"/>
      <point x="383" y="148"/>
      <point x="293" y="221"/>
      <point x="290" y="459" type="curve"/>
      <point x="946" y="456" type="line"/>
      <point x="946" y="456"/>
      <point x="965" y="524"/>
      <point x="965" y="614" type="curve" smooth="yes"/>
      <point x="965" y="877"/>
      <point x="811" y="1050"/>
      <point x="553" y="1050" type="curve" smooth="yes"/>
      <point x="274" y="1050"/>
      <point x="77" y="896"/>
    </contour>
    <contour>
      <point x="293" y="605" type="line"/>
      <point x="293" y="814"/>
      <point x="380" y="889"/>
      <point x="549" y="889" type="curve" smooth="yes"/>
      <point x="665" y="889"/>
      <point x="751" y="808"/>
      <point x="751" y="639" type="curve" smooth="yes"/>
      <point x="751" y="605" type="line"/>
    </contour>
  </outline>
</glyph>
<glyph name="Hbar" format="1">
  <advance width="1309"/>
  <unicode hex="0126"/>
  <outline>
    <contour>
      <point x="48" y="973" type="line"/>
      <point x="163" y="973" type="line"/>
      <point x="163" y="13" type="line"/>
      <point x="390" y="13" type="line"/>
      <point x="390" y="560" type="line"/>
      <point x="920" y="560" type="line"/>
      <point x="920" y="13" type="line"/>
      <point x="1146" y="13" type="line"/>
      <point x="1146" y="973" type="line"/>
      <point x="1249" y="973" type="line"/>
      <point x="1259" y="1005"/>
      <point x="1264" y="1025"/>
      <point x="1264" y="1052" type="curve" smooth="yes"/>
      <point x="1264" y="1070"/>
      <point x="1261" y="1086"/>
      <point x="1255" y="1112" type="curve"/>
      <point x="1146" y="1112" type="line"/>
      <point x="1146" y="1371" type="line"/>
      <point x="920" y="1371" type="line"/>
      <point x="920" y="1112" type="line"/>
      <point x="390" y="1112" type="line"/>
      <point x="390" y="1371" type="line"/>
      <point x="163" y="1371" type="line"/>
      <point x="163" y="1112" type="line"/>
      <point x="49" y="1112" type="line"/>
      <point x="39" y="1084"/>
      <point x="35" y="1066"/>
      <point x="35" y="1043" type="curve" smooth="yes"/>
      <point x="35" y="1022"/>
      <point x="39" y="997"/>
      <point x="48" y="963" type="curve"/>
    </contour>
    <contour>
      <point x="390" y="734" type="line"/>
      <point x="390" y="973" type="line"/>
      <point x="920" y="973" type="line"/>
      <point x="920" y="734" type="line"/>
    </contour>
  </outline>
</glyph>
<glyph name="hbar" format="1">
  <advance width="1127"/>
  <unicode hex="0127"/>
  <outline>
    <contour>
      <point x="9" y="1178" type="line"/>
      <point x="136" y="1178" type="line"/>
      <point x="136" y="0" type="line"/>
      <point x="351" y="0" type="line"/>
      <point x="351" y="844" type="line"/>
      <point x="351" y="844"/>
      <point x="455" y="900"/>
      <point x="582" y="900" type="curve" smooth="yes"/>
      <point x="715" y="900"/>
      <point x="769" y="832"/>
      <point x="769" y="688" type="curve" smooth="yes"/>
      <point x="769" y="0" type="line"/>
      <point x="984" y="0" type="line"/>
      <point x="984" y="709" type="line" smooth="yes"/>
      <point x="984" y="924"/>
      <point x="862" y="1063"/>
      <point x="638" y="1063" type="curve" smooth="yes"/>
      <point x="496" y="1063"/>
      <point x="367" y="981"/>
      <point x="347" y="964" type="curve"/>
      <point x="341" y="964" type="line"/>
      <point x="351" y="1117" type="line"/>
      <point x="351" y="1178" type="line"/>
      <point x="532" y="1178" type="line"/>
      <point x="544" y="1208"/>
      <point x="547" y="1230"/>
      <point x="547" y="1253" type="curve" smooth="yes"/>
      <point x="547" y="1283"/>
      <point x="541" y="1318"/>
      <point x="541" y="1318" type="curve"/>
      <point x="351" y="1318" type="line"/>
      <point x="351" y="1440" type="line"/>
      <point x="136" y="1440" type="line"/>
      <point x="136" y="1318" type="line"/>
      <point x="10" y="1318" type="line"/>
      <point x="0" y="1290"/>
      <point x="-4" y="1272"/>
      <point x="-4" y="1249" type="curve" smooth="yes"/>
      <point x="-4" y="1231"/>
      <point x="0" y="1206"/>
      <point x="9" y="1173" type="curve"/>
    </contour>
  </outline>
</glyph>
<glyph name="Iogonek" format="1">
  <advance width="542"/>
  <unicode hex="012E"/>
  <outline>
    <contour>
      <point x="384" y="0" type="line"/>
      <point x="384" y="1358" type="line"/>
      <point x="158" y="1358" type="line"/>
      <point x="158" y="71" type="line"/>
      <point x="71" y="14"/>
      <point x="34" y="-67"/>
      <point x="34" y="-133" type="curve" smooth="yes"/>
      <point x="34" y="-261"/>
      <point x="136" y="-354"/>
      <point x="316" y="-354" type="curve" smooth="yes"/>
      <point x="366" y="-354"/>
      <point x="401" y="-343"/>
      <point x="401" y="-343" type="curve"/>
      <point x="401" y="-343"/>
      <point x="414" y="-309"/>
      <point x="414" y="-253" type="curve" smooth="yes"/>
      <point x="414" y="-225"/>
      <point x="410" y="-193"/>
      <point x="398" y="-151" type="curve"/>
      <point x="376" y="-158"/>
      <point x="359" y="-160"/>
      <point x="332" y="-160" type="curve" smooth="yes"/>
      <point x="256" y="-160"/>
      <point x="211" y="-134"/>
      <point x="211" y="-94" type="curve" smooth="yes"/>
      <point x="211" y="-45"/>
      <point x="237" y="-15"/>
      <point x="276" y="0" type="curve"/>
    </contour>
  </outline>
</glyph>
<glyph name="iogonek" format="1">
  <advance width="521"/>
  <unicode hex="012F"/>
  <outline>
    <contour>
      <point x="141" y="172" type="line" smooth="yes"/>
      <point x="141" y="135"/>
      <point x="148" y="105"/>
      <point x="161" y="80" type="curve"/>
      <point x="63" y="22"/>
      <point x="22" y="-63"/>
      <point x="22" y="-133" type="curve" smooth="yes"/>
      <point x="22" y="-261"/>
      <point x="124" y="-354"/>
      <point x="304" y="-354" type="curve" smooth="yes"/>
      <point x="354" y="-354"/>
      <point x="389" y="-343"/>
      <point x="389" y="-343" type="curve"/>
      <point x="389" y="-343"/>
      <point x="402" y="-309"/>
      <point x="402" y="-253" type="curve" smooth="yes"/>
      <point x="402" y="-225"/>
      <point x="398" y="-193"/>
      <point x="386" y="-151" type="curve"/>
      <point x="364" y="-158"/>
      <point x="347" y="-160"/>
      <point x="320" y="-160" type="curve" smooth="yes"/>
      <point x="244" y="-160"/>
      <point x="199" y="-134"/>
      <point x="199" y="-94" type="curve" smooth="yes"/>
      <point x="199" y="-38"/>
      <point x="232" y="-7"/>
      <point x="280" y="5" type="curve"/>
      <point x="301" y="2"/>
      <point x="324" y="0"/>
      <point x="349" y="0" type="curve"/>
      <point x="349" y="2" type="line"/>
      <point x="351" y="0" type="line"/>
      <point x="408" y="0" type="line"/>
      <point x="408" y="126" type="line"/>
      <point x="349" y="168" type="line"/>
      <point x="349" y="1022" type="line"/>
      <point x="141" y="1022" type="line"/>
    </contour>
    <contour>
      <point x="256" y="1195" type="curve" smooth="yes"/>
      <point x="331" y="1195"/>
      <point x="393" y="1251"/>
      <point x="393" y="1320" type="curve" smooth="yes"/>
      <point x="393" y="1391"/>
      <point x="331" y="1446"/>
      <point x="256" y="1446" type="curve" smooth="yes"/>
      <point x="182" y="1446"/>
      <point x="120" y="1391"/>
      <point x="120" y="1320" type="curve" smooth="yes"/>
      <point x="120" y="1251"/>
      <point x="182" y="1195"/>
    </contour>
  </outline>
</glyph>
<glyph name="dotlessi" format="1">
  <advance width="521"/>
  <unicode hex="0131"/>
  <outline>
    <contour>
      <point x="261" y="1700" type="move" name="top"/>
    </contour>
    <contour>
      <point x="263" y="-157" type="move" name="btm"/>
    </contour>
    <contour>
      <point x="141" y="172" type="line" smooth="yes"/>
      <point x="141" y="49"/>
      <point x="217" y="0"/>
      <point x="349" y="0" type="curve"/>
      <point x="349" y="1022" type="line"/>
      <point x="141" y="1022" type="line"/>
    </contour>
    <contour>
      <point x="349" y="168" type="line"/>
      <point x="251" y="131" type="line"/>
      <point x="351" y="0" type="line"/>
      <point x="408" y="0" type="line"/>
      <point x="408" y="126" type="line"/>
    </contour>
  </outline>
</glyph>
<glyph name="kgreenlandic" format="1">
  <advance width="929"/>
  <unicode hex="0138"/>
  <outline>
    <contour>
      <point x="72" y="0" type="line"/>
      <point x="276" y="0" type="line"/>
      <point x="276" y="340" type="line"/>
      <point x="266" y="522" type="line"/>
      <point x="313" y="462" type="line"/>
      <point x="657" y="0" type="line"/>
      <point x="900" y="0" type="line"/>
      <point x="539" y="472" type="line"/>
      <point x="474" y="531" type="line"/>
      <point x="557" y="610" type="line"/>
      <point x="882" y="1022" type="line"/>
      <point x="640" y="1022" type="line"/>
      <point x="319" y="597" type="line"/>
      <point x="266" y="534" type="line"/>
      <point x="276" y="679" type="line"/>
      <point x="276" y="1020" type="line"/>
      <point x="72" y="1020" type="line"/>
    </contour>
  </outline>
</glyph>
<glyph name="Lcaron" format="1">
  <advance width="993"/>
  <unicode hex="013D"/>
  <outline>
    <contour>
      <point x="566" y="1006" type="line"/>
      <point x="590" y="990"/>
      <point x="620" y="986"/>
      <point x="645" y="986" type="curve" smooth="yes"/>
      <point x="677" y="986"/>
      <point x="714" y="998"/>
      <point x="714" y="998" type="curve"/>
      <point x="714" y="998"/>
      <point x="799" y="1136"/>
      <point x="799" y="1306" type="curve" smooth="yes"/>
      <point x="799" y="1340"/>
      <point x="796" y="1377"/>
      <point x="789" y="1411" type="curve"/>
      <point x="753" y="1435"/>
      <point x="717" y="1441"/>
      <point x="684" y="1441" type="curve" smooth="yes"/>
      <point x="625" y="1441"/>
      <point x="561" y="1415"/>
      <point x="557" y="1414" type="curve"/>
      <point x="577" y="1350"/>
      <point x="584" y="1286"/>
      <point x="584" y="1231" type="curve" smooth="yes"/>
      <point x="584" y="1113"/>
      <point x="556" y="1020"/>
      <point x="556" y="1020" type="curve"/>
    </contour>
    <component base="L" yOffset="13"/>
  </outline>
</glyph>
<glyph name="lcaron" format="1">
  <advance width="684"/>
  <unicode hex="013E"/>
  <outline>
    <contour>
      <point x="450" y="1000" type="line"/>
      <point x="473" y="984"/>
      <point x="503" y="980"/>
      <point x="529" y="980" type="curve" smooth="yes"/>
      <point x="560" y="980"/>
      <point x="597" y="992"/>
      <point x="597" y="992" type="curve"/>
      <point x="597" y="992"/>
      <point x="681" y="1129"/>
      <point x="681" y="1298" type="curve" smooth="yes"/>
      <point x="681" y="1332"/>
      <point x="678" y="1368"/>
      <point x="671" y="1402" type="curve"/>
      <point x="636" y="1426"/>
      <point x="600" y="1433"/>
      <point x="567" y="1433" type="curve" smooth="yes"/>
      <point x="508" y="1433"/>
      <point x="445" y="1406"/>
      <point x="441" y="1405" type="curve"/>
      <point x="460" y="1342"/>
      <point x="467" y="1278"/>
      <point x="467" y="1224" type="curve" smooth="yes"/>
      <point x="467" y="1106"/>
      <point x="440" y="1014"/>
      <point x="440" y="1014" type="curve"/>
    </contour>
    <component base="l" yOffset="13"/>
  </outline>
</glyph>
<glyph name="Lslash" format="1">
  <advance width="993"/>
  <unicode hex="0141"/>
  <outline>
    <contour>
      <point x="-5" y="452" type="line"/>
      <point x="158" y="508" type="line"/>
      <point x="158" y="0" type="line"/>
      <point x="880" y="0" type="line"/>
      <point x="887" y="-1"/>
      <point x="915" y="160"/>
      <point x="915" y="205" type="curve" smooth="yes"/>
      <point x="915" y="205"/>
      <point x="612" y="189"/>
      <point x="385" y="188" type="curve"/>
      <point x="385" y="588" type="line"/>
      <point x="731" y="708" type="line"/>
      <point x="731" y="877" type="line"/>
      <point x="385" y="757" type="line"/>
      <point x="385" y="1358" type="line"/>
      <point x="158" y="1358" type="line"/>
      <point x="158" y="677" type="line"/>
      <point x="-5" y="621" type="line"/>
    </contour>
  </outline>
</glyph>
